G04 #@! TF.GenerationSoftware,KiCad,Pcbnew,6.0.0-rc1-unknown-589e1f6~66~ubuntu18.04.1*
G04 #@! TF.CreationDate,2018-11-04T22:43:28+01:00*
G04 #@! TF.ProjectId,Ntester,4e746573-7465-4722-9e6b-696361645f70,rev?*
G04 #@! TF.SameCoordinates,Original*
G04 #@! TF.FileFunction,Paste,Bot*
G04 #@! TF.FilePolarity,Positive*
%FSLAX46Y46*%
G04 Gerber Fmt 4.6, Leading zero omitted, Abs format (unit mm)*
G04 Created by KiCad (PCBNEW 6.0.0-rc1-unknown-589e1f6~66~ubuntu18.04.1) date nie, 4 lis 2018, 22:43:28*
%MOMM*%
%LPD*%
G01*
G04 APERTURE LIST*
%ADD10C,0.100000*%
%ADD11C,2.075000*%
%ADD12C,0.875000*%
%ADD13C,1.250000*%
%ADD14C,4.000000*%
G04 APERTURE END LIST*
D10*
G04 #@! TO.C,C85*
G36*
X67699504Y-134826204D02*
X67723773Y-134829804D01*
X67747571Y-134835765D01*
X67770671Y-134844030D01*
X67792849Y-134854520D01*
X67813893Y-134867133D01*
X67833598Y-134881747D01*
X67851777Y-134898223D01*
X67868253Y-134916402D01*
X67882867Y-134936107D01*
X67895480Y-134957151D01*
X67905970Y-134979329D01*
X67914235Y-135002429D01*
X67920196Y-135026227D01*
X67923796Y-135050496D01*
X67925000Y-135075000D01*
X67925000Y-137125000D01*
X67923796Y-137149504D01*
X67920196Y-137173773D01*
X67914235Y-137197571D01*
X67905970Y-137220671D01*
X67895480Y-137242849D01*
X67882867Y-137263893D01*
X67868253Y-137283598D01*
X67851777Y-137301777D01*
X67833598Y-137318253D01*
X67813893Y-137332867D01*
X67792849Y-137345480D01*
X67770671Y-137355970D01*
X67747571Y-137364235D01*
X67723773Y-137370196D01*
X67699504Y-137373796D01*
X67675000Y-137375000D01*
X66100000Y-137375000D01*
X66075496Y-137373796D01*
X66051227Y-137370196D01*
X66027429Y-137364235D01*
X66004329Y-137355970D01*
X65982151Y-137345480D01*
X65961107Y-137332867D01*
X65941402Y-137318253D01*
X65923223Y-137301777D01*
X65906747Y-137283598D01*
X65892133Y-137263893D01*
X65879520Y-137242849D01*
X65869030Y-137220671D01*
X65860765Y-137197571D01*
X65854804Y-137173773D01*
X65851204Y-137149504D01*
X65850000Y-137125000D01*
X65850000Y-135075000D01*
X65851204Y-135050496D01*
X65854804Y-135026227D01*
X65860765Y-135002429D01*
X65869030Y-134979329D01*
X65879520Y-134957151D01*
X65892133Y-134936107D01*
X65906747Y-134916402D01*
X65923223Y-134898223D01*
X65941402Y-134881747D01*
X65961107Y-134867133D01*
X65982151Y-134854520D01*
X66004329Y-134844030D01*
X66027429Y-134835765D01*
X66051227Y-134829804D01*
X66075496Y-134826204D01*
X66100000Y-134825000D01*
X67675000Y-134825000D01*
X67699504Y-134826204D01*
X67699504Y-134826204D01*
G37*
D11*
X66887500Y-136100000D03*
D10*
G36*
X73924504Y-134826204D02*
X73948773Y-134829804D01*
X73972571Y-134835765D01*
X73995671Y-134844030D01*
X74017849Y-134854520D01*
X74038893Y-134867133D01*
X74058598Y-134881747D01*
X74076777Y-134898223D01*
X74093253Y-134916402D01*
X74107867Y-134936107D01*
X74120480Y-134957151D01*
X74130970Y-134979329D01*
X74139235Y-135002429D01*
X74145196Y-135026227D01*
X74148796Y-135050496D01*
X74150000Y-135075000D01*
X74150000Y-137125000D01*
X74148796Y-137149504D01*
X74145196Y-137173773D01*
X74139235Y-137197571D01*
X74130970Y-137220671D01*
X74120480Y-137242849D01*
X74107867Y-137263893D01*
X74093253Y-137283598D01*
X74076777Y-137301777D01*
X74058598Y-137318253D01*
X74038893Y-137332867D01*
X74017849Y-137345480D01*
X73995671Y-137355970D01*
X73972571Y-137364235D01*
X73948773Y-137370196D01*
X73924504Y-137373796D01*
X73900000Y-137375000D01*
X72325000Y-137375000D01*
X72300496Y-137373796D01*
X72276227Y-137370196D01*
X72252429Y-137364235D01*
X72229329Y-137355970D01*
X72207151Y-137345480D01*
X72186107Y-137332867D01*
X72166402Y-137318253D01*
X72148223Y-137301777D01*
X72131747Y-137283598D01*
X72117133Y-137263893D01*
X72104520Y-137242849D01*
X72094030Y-137220671D01*
X72085765Y-137197571D01*
X72079804Y-137173773D01*
X72076204Y-137149504D01*
X72075000Y-137125000D01*
X72075000Y-135075000D01*
X72076204Y-135050496D01*
X72079804Y-135026227D01*
X72085765Y-135002429D01*
X72094030Y-134979329D01*
X72104520Y-134957151D01*
X72117133Y-134936107D01*
X72131747Y-134916402D01*
X72148223Y-134898223D01*
X72166402Y-134881747D01*
X72186107Y-134867133D01*
X72207151Y-134854520D01*
X72229329Y-134844030D01*
X72252429Y-134835765D01*
X72276227Y-134829804D01*
X72300496Y-134826204D01*
X72325000Y-134825000D01*
X73900000Y-134825000D01*
X73924504Y-134826204D01*
X73924504Y-134826204D01*
G37*
D11*
X73112500Y-136100000D03*
G04 #@! TD*
D10*
G04 #@! TO.C,C81*
G36*
X73924504Y-139726204D02*
X73948773Y-139729804D01*
X73972571Y-139735765D01*
X73995671Y-139744030D01*
X74017849Y-139754520D01*
X74038893Y-139767133D01*
X74058598Y-139781747D01*
X74076777Y-139798223D01*
X74093253Y-139816402D01*
X74107867Y-139836107D01*
X74120480Y-139857151D01*
X74130970Y-139879329D01*
X74139235Y-139902429D01*
X74145196Y-139926227D01*
X74148796Y-139950496D01*
X74150000Y-139975000D01*
X74150000Y-142025000D01*
X74148796Y-142049504D01*
X74145196Y-142073773D01*
X74139235Y-142097571D01*
X74130970Y-142120671D01*
X74120480Y-142142849D01*
X74107867Y-142163893D01*
X74093253Y-142183598D01*
X74076777Y-142201777D01*
X74058598Y-142218253D01*
X74038893Y-142232867D01*
X74017849Y-142245480D01*
X73995671Y-142255970D01*
X73972571Y-142264235D01*
X73948773Y-142270196D01*
X73924504Y-142273796D01*
X73900000Y-142275000D01*
X72325000Y-142275000D01*
X72300496Y-142273796D01*
X72276227Y-142270196D01*
X72252429Y-142264235D01*
X72229329Y-142255970D01*
X72207151Y-142245480D01*
X72186107Y-142232867D01*
X72166402Y-142218253D01*
X72148223Y-142201777D01*
X72131747Y-142183598D01*
X72117133Y-142163893D01*
X72104520Y-142142849D01*
X72094030Y-142120671D01*
X72085765Y-142097571D01*
X72079804Y-142073773D01*
X72076204Y-142049504D01*
X72075000Y-142025000D01*
X72075000Y-139975000D01*
X72076204Y-139950496D01*
X72079804Y-139926227D01*
X72085765Y-139902429D01*
X72094030Y-139879329D01*
X72104520Y-139857151D01*
X72117133Y-139836107D01*
X72131747Y-139816402D01*
X72148223Y-139798223D01*
X72166402Y-139781747D01*
X72186107Y-139767133D01*
X72207151Y-139754520D01*
X72229329Y-139744030D01*
X72252429Y-139735765D01*
X72276227Y-139729804D01*
X72300496Y-139726204D01*
X72325000Y-139725000D01*
X73900000Y-139725000D01*
X73924504Y-139726204D01*
X73924504Y-139726204D01*
G37*
D11*
X73112500Y-141000000D03*
D10*
G36*
X67699504Y-139726204D02*
X67723773Y-139729804D01*
X67747571Y-139735765D01*
X67770671Y-139744030D01*
X67792849Y-139754520D01*
X67813893Y-139767133D01*
X67833598Y-139781747D01*
X67851777Y-139798223D01*
X67868253Y-139816402D01*
X67882867Y-139836107D01*
X67895480Y-139857151D01*
X67905970Y-139879329D01*
X67914235Y-139902429D01*
X67920196Y-139926227D01*
X67923796Y-139950496D01*
X67925000Y-139975000D01*
X67925000Y-142025000D01*
X67923796Y-142049504D01*
X67920196Y-142073773D01*
X67914235Y-142097571D01*
X67905970Y-142120671D01*
X67895480Y-142142849D01*
X67882867Y-142163893D01*
X67868253Y-142183598D01*
X67851777Y-142201777D01*
X67833598Y-142218253D01*
X67813893Y-142232867D01*
X67792849Y-142245480D01*
X67770671Y-142255970D01*
X67747571Y-142264235D01*
X67723773Y-142270196D01*
X67699504Y-142273796D01*
X67675000Y-142275000D01*
X66100000Y-142275000D01*
X66075496Y-142273796D01*
X66051227Y-142270196D01*
X66027429Y-142264235D01*
X66004329Y-142255970D01*
X65982151Y-142245480D01*
X65961107Y-142232867D01*
X65941402Y-142218253D01*
X65923223Y-142201777D01*
X65906747Y-142183598D01*
X65892133Y-142163893D01*
X65879520Y-142142849D01*
X65869030Y-142120671D01*
X65860765Y-142097571D01*
X65854804Y-142073773D01*
X65851204Y-142049504D01*
X65850000Y-142025000D01*
X65850000Y-139975000D01*
X65851204Y-139950496D01*
X65854804Y-139926227D01*
X65860765Y-139902429D01*
X65869030Y-139879329D01*
X65879520Y-139857151D01*
X65892133Y-139836107D01*
X65906747Y-139816402D01*
X65923223Y-139798223D01*
X65941402Y-139781747D01*
X65961107Y-139767133D01*
X65982151Y-139754520D01*
X66004329Y-139744030D01*
X66027429Y-139735765D01*
X66051227Y-139729804D01*
X66075496Y-139726204D01*
X66100000Y-139725000D01*
X67675000Y-139725000D01*
X67699504Y-139726204D01*
X67699504Y-139726204D01*
G37*
D11*
X66887500Y-141000000D03*
G04 #@! TD*
D10*
G04 #@! TO.C,C86*
G36*
X64977691Y-138876053D02*
X64998926Y-138879203D01*
X65019750Y-138884419D01*
X65039962Y-138891651D01*
X65059368Y-138900830D01*
X65077781Y-138911866D01*
X65095024Y-138924654D01*
X65110930Y-138939070D01*
X65125346Y-138954976D01*
X65138134Y-138972219D01*
X65149170Y-138990632D01*
X65158349Y-139010038D01*
X65165581Y-139030250D01*
X65170797Y-139051074D01*
X65173947Y-139072309D01*
X65175000Y-139093750D01*
X65175000Y-139531250D01*
X65173947Y-139552691D01*
X65170797Y-139573926D01*
X65165581Y-139594750D01*
X65158349Y-139614962D01*
X65149170Y-139634368D01*
X65138134Y-139652781D01*
X65125346Y-139670024D01*
X65110930Y-139685930D01*
X65095024Y-139700346D01*
X65077781Y-139713134D01*
X65059368Y-139724170D01*
X65039962Y-139733349D01*
X65019750Y-139740581D01*
X64998926Y-139745797D01*
X64977691Y-139748947D01*
X64956250Y-139750000D01*
X64443750Y-139750000D01*
X64422309Y-139748947D01*
X64401074Y-139745797D01*
X64380250Y-139740581D01*
X64360038Y-139733349D01*
X64340632Y-139724170D01*
X64322219Y-139713134D01*
X64304976Y-139700346D01*
X64289070Y-139685930D01*
X64274654Y-139670024D01*
X64261866Y-139652781D01*
X64250830Y-139634368D01*
X64241651Y-139614962D01*
X64234419Y-139594750D01*
X64229203Y-139573926D01*
X64226053Y-139552691D01*
X64225000Y-139531250D01*
X64225000Y-139093750D01*
X64226053Y-139072309D01*
X64229203Y-139051074D01*
X64234419Y-139030250D01*
X64241651Y-139010038D01*
X64250830Y-138990632D01*
X64261866Y-138972219D01*
X64274654Y-138954976D01*
X64289070Y-138939070D01*
X64304976Y-138924654D01*
X64322219Y-138911866D01*
X64340632Y-138900830D01*
X64360038Y-138891651D01*
X64380250Y-138884419D01*
X64401074Y-138879203D01*
X64422309Y-138876053D01*
X64443750Y-138875000D01*
X64956250Y-138875000D01*
X64977691Y-138876053D01*
X64977691Y-138876053D01*
G37*
D12*
X64700000Y-139312500D03*
D10*
G36*
X64977691Y-140451053D02*
X64998926Y-140454203D01*
X65019750Y-140459419D01*
X65039962Y-140466651D01*
X65059368Y-140475830D01*
X65077781Y-140486866D01*
X65095024Y-140499654D01*
X65110930Y-140514070D01*
X65125346Y-140529976D01*
X65138134Y-140547219D01*
X65149170Y-140565632D01*
X65158349Y-140585038D01*
X65165581Y-140605250D01*
X65170797Y-140626074D01*
X65173947Y-140647309D01*
X65175000Y-140668750D01*
X65175000Y-141106250D01*
X65173947Y-141127691D01*
X65170797Y-141148926D01*
X65165581Y-141169750D01*
X65158349Y-141189962D01*
X65149170Y-141209368D01*
X65138134Y-141227781D01*
X65125346Y-141245024D01*
X65110930Y-141260930D01*
X65095024Y-141275346D01*
X65077781Y-141288134D01*
X65059368Y-141299170D01*
X65039962Y-141308349D01*
X65019750Y-141315581D01*
X64998926Y-141320797D01*
X64977691Y-141323947D01*
X64956250Y-141325000D01*
X64443750Y-141325000D01*
X64422309Y-141323947D01*
X64401074Y-141320797D01*
X64380250Y-141315581D01*
X64360038Y-141308349D01*
X64340632Y-141299170D01*
X64322219Y-141288134D01*
X64304976Y-141275346D01*
X64289070Y-141260930D01*
X64274654Y-141245024D01*
X64261866Y-141227781D01*
X64250830Y-141209368D01*
X64241651Y-141189962D01*
X64234419Y-141169750D01*
X64229203Y-141148926D01*
X64226053Y-141127691D01*
X64225000Y-141106250D01*
X64225000Y-140668750D01*
X64226053Y-140647309D01*
X64229203Y-140626074D01*
X64234419Y-140605250D01*
X64241651Y-140585038D01*
X64250830Y-140565632D01*
X64261866Y-140547219D01*
X64274654Y-140529976D01*
X64289070Y-140514070D01*
X64304976Y-140499654D01*
X64322219Y-140486866D01*
X64340632Y-140475830D01*
X64360038Y-140466651D01*
X64380250Y-140459419D01*
X64401074Y-140454203D01*
X64422309Y-140451053D01*
X64443750Y-140450000D01*
X64956250Y-140450000D01*
X64977691Y-140451053D01*
X64977691Y-140451053D01*
G37*
D12*
X64700000Y-140887500D03*
G04 #@! TD*
D10*
G04 #@! TO.C,C82*
G36*
X92424504Y-134826204D02*
X92448773Y-134829804D01*
X92472571Y-134835765D01*
X92495671Y-134844030D01*
X92517849Y-134854520D01*
X92538893Y-134867133D01*
X92558598Y-134881747D01*
X92576777Y-134898223D01*
X92593253Y-134916402D01*
X92607867Y-134936107D01*
X92620480Y-134957151D01*
X92630970Y-134979329D01*
X92639235Y-135002429D01*
X92645196Y-135026227D01*
X92648796Y-135050496D01*
X92650000Y-135075000D01*
X92650000Y-137125000D01*
X92648796Y-137149504D01*
X92645196Y-137173773D01*
X92639235Y-137197571D01*
X92630970Y-137220671D01*
X92620480Y-137242849D01*
X92607867Y-137263893D01*
X92593253Y-137283598D01*
X92576777Y-137301777D01*
X92558598Y-137318253D01*
X92538893Y-137332867D01*
X92517849Y-137345480D01*
X92495671Y-137355970D01*
X92472571Y-137364235D01*
X92448773Y-137370196D01*
X92424504Y-137373796D01*
X92400000Y-137375000D01*
X90825000Y-137375000D01*
X90800496Y-137373796D01*
X90776227Y-137370196D01*
X90752429Y-137364235D01*
X90729329Y-137355970D01*
X90707151Y-137345480D01*
X90686107Y-137332867D01*
X90666402Y-137318253D01*
X90648223Y-137301777D01*
X90631747Y-137283598D01*
X90617133Y-137263893D01*
X90604520Y-137242849D01*
X90594030Y-137220671D01*
X90585765Y-137197571D01*
X90579804Y-137173773D01*
X90576204Y-137149504D01*
X90575000Y-137125000D01*
X90575000Y-135075000D01*
X90576204Y-135050496D01*
X90579804Y-135026227D01*
X90585765Y-135002429D01*
X90594030Y-134979329D01*
X90604520Y-134957151D01*
X90617133Y-134936107D01*
X90631747Y-134916402D01*
X90648223Y-134898223D01*
X90666402Y-134881747D01*
X90686107Y-134867133D01*
X90707151Y-134854520D01*
X90729329Y-134844030D01*
X90752429Y-134835765D01*
X90776227Y-134829804D01*
X90800496Y-134826204D01*
X90825000Y-134825000D01*
X92400000Y-134825000D01*
X92424504Y-134826204D01*
X92424504Y-134826204D01*
G37*
D11*
X91612500Y-136100000D03*
D10*
G36*
X86199504Y-134826204D02*
X86223773Y-134829804D01*
X86247571Y-134835765D01*
X86270671Y-134844030D01*
X86292849Y-134854520D01*
X86313893Y-134867133D01*
X86333598Y-134881747D01*
X86351777Y-134898223D01*
X86368253Y-134916402D01*
X86382867Y-134936107D01*
X86395480Y-134957151D01*
X86405970Y-134979329D01*
X86414235Y-135002429D01*
X86420196Y-135026227D01*
X86423796Y-135050496D01*
X86425000Y-135075000D01*
X86425000Y-137125000D01*
X86423796Y-137149504D01*
X86420196Y-137173773D01*
X86414235Y-137197571D01*
X86405970Y-137220671D01*
X86395480Y-137242849D01*
X86382867Y-137263893D01*
X86368253Y-137283598D01*
X86351777Y-137301777D01*
X86333598Y-137318253D01*
X86313893Y-137332867D01*
X86292849Y-137345480D01*
X86270671Y-137355970D01*
X86247571Y-137364235D01*
X86223773Y-137370196D01*
X86199504Y-137373796D01*
X86175000Y-137375000D01*
X84600000Y-137375000D01*
X84575496Y-137373796D01*
X84551227Y-137370196D01*
X84527429Y-137364235D01*
X84504329Y-137355970D01*
X84482151Y-137345480D01*
X84461107Y-137332867D01*
X84441402Y-137318253D01*
X84423223Y-137301777D01*
X84406747Y-137283598D01*
X84392133Y-137263893D01*
X84379520Y-137242849D01*
X84369030Y-137220671D01*
X84360765Y-137197571D01*
X84354804Y-137173773D01*
X84351204Y-137149504D01*
X84350000Y-137125000D01*
X84350000Y-135075000D01*
X84351204Y-135050496D01*
X84354804Y-135026227D01*
X84360765Y-135002429D01*
X84369030Y-134979329D01*
X84379520Y-134957151D01*
X84392133Y-134936107D01*
X84406747Y-134916402D01*
X84423223Y-134898223D01*
X84441402Y-134881747D01*
X84461107Y-134867133D01*
X84482151Y-134854520D01*
X84504329Y-134844030D01*
X84527429Y-134835765D01*
X84551227Y-134829804D01*
X84575496Y-134826204D01*
X84600000Y-134825000D01*
X86175000Y-134825000D01*
X86199504Y-134826204D01*
X86199504Y-134826204D01*
G37*
D11*
X85387500Y-136100000D03*
G04 #@! TD*
D10*
G04 #@! TO.C,C87*
G36*
X64977691Y-135776053D02*
X64998926Y-135779203D01*
X65019750Y-135784419D01*
X65039962Y-135791651D01*
X65059368Y-135800830D01*
X65077781Y-135811866D01*
X65095024Y-135824654D01*
X65110930Y-135839070D01*
X65125346Y-135854976D01*
X65138134Y-135872219D01*
X65149170Y-135890632D01*
X65158349Y-135910038D01*
X65165581Y-135930250D01*
X65170797Y-135951074D01*
X65173947Y-135972309D01*
X65175000Y-135993750D01*
X65175000Y-136431250D01*
X65173947Y-136452691D01*
X65170797Y-136473926D01*
X65165581Y-136494750D01*
X65158349Y-136514962D01*
X65149170Y-136534368D01*
X65138134Y-136552781D01*
X65125346Y-136570024D01*
X65110930Y-136585930D01*
X65095024Y-136600346D01*
X65077781Y-136613134D01*
X65059368Y-136624170D01*
X65039962Y-136633349D01*
X65019750Y-136640581D01*
X64998926Y-136645797D01*
X64977691Y-136648947D01*
X64956250Y-136650000D01*
X64443750Y-136650000D01*
X64422309Y-136648947D01*
X64401074Y-136645797D01*
X64380250Y-136640581D01*
X64360038Y-136633349D01*
X64340632Y-136624170D01*
X64322219Y-136613134D01*
X64304976Y-136600346D01*
X64289070Y-136585930D01*
X64274654Y-136570024D01*
X64261866Y-136552781D01*
X64250830Y-136534368D01*
X64241651Y-136514962D01*
X64234419Y-136494750D01*
X64229203Y-136473926D01*
X64226053Y-136452691D01*
X64225000Y-136431250D01*
X64225000Y-135993750D01*
X64226053Y-135972309D01*
X64229203Y-135951074D01*
X64234419Y-135930250D01*
X64241651Y-135910038D01*
X64250830Y-135890632D01*
X64261866Y-135872219D01*
X64274654Y-135854976D01*
X64289070Y-135839070D01*
X64304976Y-135824654D01*
X64322219Y-135811866D01*
X64340632Y-135800830D01*
X64360038Y-135791651D01*
X64380250Y-135784419D01*
X64401074Y-135779203D01*
X64422309Y-135776053D01*
X64443750Y-135775000D01*
X64956250Y-135775000D01*
X64977691Y-135776053D01*
X64977691Y-135776053D01*
G37*
D12*
X64700000Y-136212500D03*
D10*
G36*
X64977691Y-137351053D02*
X64998926Y-137354203D01*
X65019750Y-137359419D01*
X65039962Y-137366651D01*
X65059368Y-137375830D01*
X65077781Y-137386866D01*
X65095024Y-137399654D01*
X65110930Y-137414070D01*
X65125346Y-137429976D01*
X65138134Y-137447219D01*
X65149170Y-137465632D01*
X65158349Y-137485038D01*
X65165581Y-137505250D01*
X65170797Y-137526074D01*
X65173947Y-137547309D01*
X65175000Y-137568750D01*
X65175000Y-138006250D01*
X65173947Y-138027691D01*
X65170797Y-138048926D01*
X65165581Y-138069750D01*
X65158349Y-138089962D01*
X65149170Y-138109368D01*
X65138134Y-138127781D01*
X65125346Y-138145024D01*
X65110930Y-138160930D01*
X65095024Y-138175346D01*
X65077781Y-138188134D01*
X65059368Y-138199170D01*
X65039962Y-138208349D01*
X65019750Y-138215581D01*
X64998926Y-138220797D01*
X64977691Y-138223947D01*
X64956250Y-138225000D01*
X64443750Y-138225000D01*
X64422309Y-138223947D01*
X64401074Y-138220797D01*
X64380250Y-138215581D01*
X64360038Y-138208349D01*
X64340632Y-138199170D01*
X64322219Y-138188134D01*
X64304976Y-138175346D01*
X64289070Y-138160930D01*
X64274654Y-138145024D01*
X64261866Y-138127781D01*
X64250830Y-138109368D01*
X64241651Y-138089962D01*
X64234419Y-138069750D01*
X64229203Y-138048926D01*
X64226053Y-138027691D01*
X64225000Y-138006250D01*
X64225000Y-137568750D01*
X64226053Y-137547309D01*
X64229203Y-137526074D01*
X64234419Y-137505250D01*
X64241651Y-137485038D01*
X64250830Y-137465632D01*
X64261866Y-137447219D01*
X64274654Y-137429976D01*
X64289070Y-137414070D01*
X64304976Y-137399654D01*
X64322219Y-137386866D01*
X64340632Y-137375830D01*
X64360038Y-137366651D01*
X64380250Y-137359419D01*
X64401074Y-137354203D01*
X64422309Y-137351053D01*
X64443750Y-137350000D01*
X64956250Y-137350000D01*
X64977691Y-137351053D01*
X64977691Y-137351053D01*
G37*
D12*
X64700000Y-137787500D03*
G04 #@! TD*
D10*
G04 #@! TO.C,C78*
G36*
X79777691Y-134276053D02*
X79798926Y-134279203D01*
X79819750Y-134284419D01*
X79839962Y-134291651D01*
X79859368Y-134300830D01*
X79877781Y-134311866D01*
X79895024Y-134324654D01*
X79910930Y-134339070D01*
X79925346Y-134354976D01*
X79938134Y-134372219D01*
X79949170Y-134390632D01*
X79958349Y-134410038D01*
X79965581Y-134430250D01*
X79970797Y-134451074D01*
X79973947Y-134472309D01*
X79975000Y-134493750D01*
X79975000Y-134931250D01*
X79973947Y-134952691D01*
X79970797Y-134973926D01*
X79965581Y-134994750D01*
X79958349Y-135014962D01*
X79949170Y-135034368D01*
X79938134Y-135052781D01*
X79925346Y-135070024D01*
X79910930Y-135085930D01*
X79895024Y-135100346D01*
X79877781Y-135113134D01*
X79859368Y-135124170D01*
X79839962Y-135133349D01*
X79819750Y-135140581D01*
X79798926Y-135145797D01*
X79777691Y-135148947D01*
X79756250Y-135150000D01*
X79243750Y-135150000D01*
X79222309Y-135148947D01*
X79201074Y-135145797D01*
X79180250Y-135140581D01*
X79160038Y-135133349D01*
X79140632Y-135124170D01*
X79122219Y-135113134D01*
X79104976Y-135100346D01*
X79089070Y-135085930D01*
X79074654Y-135070024D01*
X79061866Y-135052781D01*
X79050830Y-135034368D01*
X79041651Y-135014962D01*
X79034419Y-134994750D01*
X79029203Y-134973926D01*
X79026053Y-134952691D01*
X79025000Y-134931250D01*
X79025000Y-134493750D01*
X79026053Y-134472309D01*
X79029203Y-134451074D01*
X79034419Y-134430250D01*
X79041651Y-134410038D01*
X79050830Y-134390632D01*
X79061866Y-134372219D01*
X79074654Y-134354976D01*
X79089070Y-134339070D01*
X79104976Y-134324654D01*
X79122219Y-134311866D01*
X79140632Y-134300830D01*
X79160038Y-134291651D01*
X79180250Y-134284419D01*
X79201074Y-134279203D01*
X79222309Y-134276053D01*
X79243750Y-134275000D01*
X79756250Y-134275000D01*
X79777691Y-134276053D01*
X79777691Y-134276053D01*
G37*
D12*
X79500000Y-134712500D03*
D10*
G36*
X79777691Y-135851053D02*
X79798926Y-135854203D01*
X79819750Y-135859419D01*
X79839962Y-135866651D01*
X79859368Y-135875830D01*
X79877781Y-135886866D01*
X79895024Y-135899654D01*
X79910930Y-135914070D01*
X79925346Y-135929976D01*
X79938134Y-135947219D01*
X79949170Y-135965632D01*
X79958349Y-135985038D01*
X79965581Y-136005250D01*
X79970797Y-136026074D01*
X79973947Y-136047309D01*
X79975000Y-136068750D01*
X79975000Y-136506250D01*
X79973947Y-136527691D01*
X79970797Y-136548926D01*
X79965581Y-136569750D01*
X79958349Y-136589962D01*
X79949170Y-136609368D01*
X79938134Y-136627781D01*
X79925346Y-136645024D01*
X79910930Y-136660930D01*
X79895024Y-136675346D01*
X79877781Y-136688134D01*
X79859368Y-136699170D01*
X79839962Y-136708349D01*
X79819750Y-136715581D01*
X79798926Y-136720797D01*
X79777691Y-136723947D01*
X79756250Y-136725000D01*
X79243750Y-136725000D01*
X79222309Y-136723947D01*
X79201074Y-136720797D01*
X79180250Y-136715581D01*
X79160038Y-136708349D01*
X79140632Y-136699170D01*
X79122219Y-136688134D01*
X79104976Y-136675346D01*
X79089070Y-136660930D01*
X79074654Y-136645024D01*
X79061866Y-136627781D01*
X79050830Y-136609368D01*
X79041651Y-136589962D01*
X79034419Y-136569750D01*
X79029203Y-136548926D01*
X79026053Y-136527691D01*
X79025000Y-136506250D01*
X79025000Y-136068750D01*
X79026053Y-136047309D01*
X79029203Y-136026074D01*
X79034419Y-136005250D01*
X79041651Y-135985038D01*
X79050830Y-135965632D01*
X79061866Y-135947219D01*
X79074654Y-135929976D01*
X79089070Y-135914070D01*
X79104976Y-135899654D01*
X79122219Y-135886866D01*
X79140632Y-135875830D01*
X79160038Y-135866651D01*
X79180250Y-135859419D01*
X79201074Y-135854203D01*
X79222309Y-135851053D01*
X79243750Y-135850000D01*
X79756250Y-135850000D01*
X79777691Y-135851053D01*
X79777691Y-135851053D01*
G37*
D12*
X79500000Y-136287500D03*
G04 #@! TD*
D10*
G04 #@! TO.C,C80*
G36*
X79777691Y-137776053D02*
X79798926Y-137779203D01*
X79819750Y-137784419D01*
X79839962Y-137791651D01*
X79859368Y-137800830D01*
X79877781Y-137811866D01*
X79895024Y-137824654D01*
X79910930Y-137839070D01*
X79925346Y-137854976D01*
X79938134Y-137872219D01*
X79949170Y-137890632D01*
X79958349Y-137910038D01*
X79965581Y-137930250D01*
X79970797Y-137951074D01*
X79973947Y-137972309D01*
X79975000Y-137993750D01*
X79975000Y-138431250D01*
X79973947Y-138452691D01*
X79970797Y-138473926D01*
X79965581Y-138494750D01*
X79958349Y-138514962D01*
X79949170Y-138534368D01*
X79938134Y-138552781D01*
X79925346Y-138570024D01*
X79910930Y-138585930D01*
X79895024Y-138600346D01*
X79877781Y-138613134D01*
X79859368Y-138624170D01*
X79839962Y-138633349D01*
X79819750Y-138640581D01*
X79798926Y-138645797D01*
X79777691Y-138648947D01*
X79756250Y-138650000D01*
X79243750Y-138650000D01*
X79222309Y-138648947D01*
X79201074Y-138645797D01*
X79180250Y-138640581D01*
X79160038Y-138633349D01*
X79140632Y-138624170D01*
X79122219Y-138613134D01*
X79104976Y-138600346D01*
X79089070Y-138585930D01*
X79074654Y-138570024D01*
X79061866Y-138552781D01*
X79050830Y-138534368D01*
X79041651Y-138514962D01*
X79034419Y-138494750D01*
X79029203Y-138473926D01*
X79026053Y-138452691D01*
X79025000Y-138431250D01*
X79025000Y-137993750D01*
X79026053Y-137972309D01*
X79029203Y-137951074D01*
X79034419Y-137930250D01*
X79041651Y-137910038D01*
X79050830Y-137890632D01*
X79061866Y-137872219D01*
X79074654Y-137854976D01*
X79089070Y-137839070D01*
X79104976Y-137824654D01*
X79122219Y-137811866D01*
X79140632Y-137800830D01*
X79160038Y-137791651D01*
X79180250Y-137784419D01*
X79201074Y-137779203D01*
X79222309Y-137776053D01*
X79243750Y-137775000D01*
X79756250Y-137775000D01*
X79777691Y-137776053D01*
X79777691Y-137776053D01*
G37*
D12*
X79500000Y-138212500D03*
D10*
G36*
X79777691Y-139351053D02*
X79798926Y-139354203D01*
X79819750Y-139359419D01*
X79839962Y-139366651D01*
X79859368Y-139375830D01*
X79877781Y-139386866D01*
X79895024Y-139399654D01*
X79910930Y-139414070D01*
X79925346Y-139429976D01*
X79938134Y-139447219D01*
X79949170Y-139465632D01*
X79958349Y-139485038D01*
X79965581Y-139505250D01*
X79970797Y-139526074D01*
X79973947Y-139547309D01*
X79975000Y-139568750D01*
X79975000Y-140006250D01*
X79973947Y-140027691D01*
X79970797Y-140048926D01*
X79965581Y-140069750D01*
X79958349Y-140089962D01*
X79949170Y-140109368D01*
X79938134Y-140127781D01*
X79925346Y-140145024D01*
X79910930Y-140160930D01*
X79895024Y-140175346D01*
X79877781Y-140188134D01*
X79859368Y-140199170D01*
X79839962Y-140208349D01*
X79819750Y-140215581D01*
X79798926Y-140220797D01*
X79777691Y-140223947D01*
X79756250Y-140225000D01*
X79243750Y-140225000D01*
X79222309Y-140223947D01*
X79201074Y-140220797D01*
X79180250Y-140215581D01*
X79160038Y-140208349D01*
X79140632Y-140199170D01*
X79122219Y-140188134D01*
X79104976Y-140175346D01*
X79089070Y-140160930D01*
X79074654Y-140145024D01*
X79061866Y-140127781D01*
X79050830Y-140109368D01*
X79041651Y-140089962D01*
X79034419Y-140069750D01*
X79029203Y-140048926D01*
X79026053Y-140027691D01*
X79025000Y-140006250D01*
X79025000Y-139568750D01*
X79026053Y-139547309D01*
X79029203Y-139526074D01*
X79034419Y-139505250D01*
X79041651Y-139485038D01*
X79050830Y-139465632D01*
X79061866Y-139447219D01*
X79074654Y-139429976D01*
X79089070Y-139414070D01*
X79104976Y-139399654D01*
X79122219Y-139386866D01*
X79140632Y-139375830D01*
X79160038Y-139366651D01*
X79180250Y-139359419D01*
X79201074Y-139354203D01*
X79222309Y-139351053D01*
X79243750Y-139350000D01*
X79756250Y-139350000D01*
X79777691Y-139351053D01*
X79777691Y-139351053D01*
G37*
D12*
X79500000Y-139787500D03*
G04 #@! TD*
D10*
G04 #@! TO.C,C75*
G36*
X64977691Y-128951053D02*
X64998926Y-128954203D01*
X65019750Y-128959419D01*
X65039962Y-128966651D01*
X65059368Y-128975830D01*
X65077781Y-128986866D01*
X65095024Y-128999654D01*
X65110930Y-129014070D01*
X65125346Y-129029976D01*
X65138134Y-129047219D01*
X65149170Y-129065632D01*
X65158349Y-129085038D01*
X65165581Y-129105250D01*
X65170797Y-129126074D01*
X65173947Y-129147309D01*
X65175000Y-129168750D01*
X65175000Y-129606250D01*
X65173947Y-129627691D01*
X65170797Y-129648926D01*
X65165581Y-129669750D01*
X65158349Y-129689962D01*
X65149170Y-129709368D01*
X65138134Y-129727781D01*
X65125346Y-129745024D01*
X65110930Y-129760930D01*
X65095024Y-129775346D01*
X65077781Y-129788134D01*
X65059368Y-129799170D01*
X65039962Y-129808349D01*
X65019750Y-129815581D01*
X64998926Y-129820797D01*
X64977691Y-129823947D01*
X64956250Y-129825000D01*
X64443750Y-129825000D01*
X64422309Y-129823947D01*
X64401074Y-129820797D01*
X64380250Y-129815581D01*
X64360038Y-129808349D01*
X64340632Y-129799170D01*
X64322219Y-129788134D01*
X64304976Y-129775346D01*
X64289070Y-129760930D01*
X64274654Y-129745024D01*
X64261866Y-129727781D01*
X64250830Y-129709368D01*
X64241651Y-129689962D01*
X64234419Y-129669750D01*
X64229203Y-129648926D01*
X64226053Y-129627691D01*
X64225000Y-129606250D01*
X64225000Y-129168750D01*
X64226053Y-129147309D01*
X64229203Y-129126074D01*
X64234419Y-129105250D01*
X64241651Y-129085038D01*
X64250830Y-129065632D01*
X64261866Y-129047219D01*
X64274654Y-129029976D01*
X64289070Y-129014070D01*
X64304976Y-128999654D01*
X64322219Y-128986866D01*
X64340632Y-128975830D01*
X64360038Y-128966651D01*
X64380250Y-128959419D01*
X64401074Y-128954203D01*
X64422309Y-128951053D01*
X64443750Y-128950000D01*
X64956250Y-128950000D01*
X64977691Y-128951053D01*
X64977691Y-128951053D01*
G37*
D12*
X64700000Y-129387500D03*
D10*
G36*
X64977691Y-127376053D02*
X64998926Y-127379203D01*
X65019750Y-127384419D01*
X65039962Y-127391651D01*
X65059368Y-127400830D01*
X65077781Y-127411866D01*
X65095024Y-127424654D01*
X65110930Y-127439070D01*
X65125346Y-127454976D01*
X65138134Y-127472219D01*
X65149170Y-127490632D01*
X65158349Y-127510038D01*
X65165581Y-127530250D01*
X65170797Y-127551074D01*
X65173947Y-127572309D01*
X65175000Y-127593750D01*
X65175000Y-128031250D01*
X65173947Y-128052691D01*
X65170797Y-128073926D01*
X65165581Y-128094750D01*
X65158349Y-128114962D01*
X65149170Y-128134368D01*
X65138134Y-128152781D01*
X65125346Y-128170024D01*
X65110930Y-128185930D01*
X65095024Y-128200346D01*
X65077781Y-128213134D01*
X65059368Y-128224170D01*
X65039962Y-128233349D01*
X65019750Y-128240581D01*
X64998926Y-128245797D01*
X64977691Y-128248947D01*
X64956250Y-128250000D01*
X64443750Y-128250000D01*
X64422309Y-128248947D01*
X64401074Y-128245797D01*
X64380250Y-128240581D01*
X64360038Y-128233349D01*
X64340632Y-128224170D01*
X64322219Y-128213134D01*
X64304976Y-128200346D01*
X64289070Y-128185930D01*
X64274654Y-128170024D01*
X64261866Y-128152781D01*
X64250830Y-128134368D01*
X64241651Y-128114962D01*
X64234419Y-128094750D01*
X64229203Y-128073926D01*
X64226053Y-128052691D01*
X64225000Y-128031250D01*
X64225000Y-127593750D01*
X64226053Y-127572309D01*
X64229203Y-127551074D01*
X64234419Y-127530250D01*
X64241651Y-127510038D01*
X64250830Y-127490632D01*
X64261866Y-127472219D01*
X64274654Y-127454976D01*
X64289070Y-127439070D01*
X64304976Y-127424654D01*
X64322219Y-127411866D01*
X64340632Y-127400830D01*
X64360038Y-127391651D01*
X64380250Y-127384419D01*
X64401074Y-127379203D01*
X64422309Y-127376053D01*
X64443750Y-127375000D01*
X64956250Y-127375000D01*
X64977691Y-127376053D01*
X64977691Y-127376053D01*
G37*
D12*
X64700000Y-127812500D03*
G04 #@! TD*
D10*
G04 #@! TO.C,C70*
G36*
X67699504Y-128226204D02*
X67723773Y-128229804D01*
X67747571Y-128235765D01*
X67770671Y-128244030D01*
X67792849Y-128254520D01*
X67813893Y-128267133D01*
X67833598Y-128281747D01*
X67851777Y-128298223D01*
X67868253Y-128316402D01*
X67882867Y-128336107D01*
X67895480Y-128357151D01*
X67905970Y-128379329D01*
X67914235Y-128402429D01*
X67920196Y-128426227D01*
X67923796Y-128450496D01*
X67925000Y-128475000D01*
X67925000Y-130525000D01*
X67923796Y-130549504D01*
X67920196Y-130573773D01*
X67914235Y-130597571D01*
X67905970Y-130620671D01*
X67895480Y-130642849D01*
X67882867Y-130663893D01*
X67868253Y-130683598D01*
X67851777Y-130701777D01*
X67833598Y-130718253D01*
X67813893Y-130732867D01*
X67792849Y-130745480D01*
X67770671Y-130755970D01*
X67747571Y-130764235D01*
X67723773Y-130770196D01*
X67699504Y-130773796D01*
X67675000Y-130775000D01*
X66100000Y-130775000D01*
X66075496Y-130773796D01*
X66051227Y-130770196D01*
X66027429Y-130764235D01*
X66004329Y-130755970D01*
X65982151Y-130745480D01*
X65961107Y-130732867D01*
X65941402Y-130718253D01*
X65923223Y-130701777D01*
X65906747Y-130683598D01*
X65892133Y-130663893D01*
X65879520Y-130642849D01*
X65869030Y-130620671D01*
X65860765Y-130597571D01*
X65854804Y-130573773D01*
X65851204Y-130549504D01*
X65850000Y-130525000D01*
X65850000Y-128475000D01*
X65851204Y-128450496D01*
X65854804Y-128426227D01*
X65860765Y-128402429D01*
X65869030Y-128379329D01*
X65879520Y-128357151D01*
X65892133Y-128336107D01*
X65906747Y-128316402D01*
X65923223Y-128298223D01*
X65941402Y-128281747D01*
X65961107Y-128267133D01*
X65982151Y-128254520D01*
X66004329Y-128244030D01*
X66027429Y-128235765D01*
X66051227Y-128229804D01*
X66075496Y-128226204D01*
X66100000Y-128225000D01*
X67675000Y-128225000D01*
X67699504Y-128226204D01*
X67699504Y-128226204D01*
G37*
D11*
X66887500Y-129500000D03*
D10*
G36*
X73924504Y-128226204D02*
X73948773Y-128229804D01*
X73972571Y-128235765D01*
X73995671Y-128244030D01*
X74017849Y-128254520D01*
X74038893Y-128267133D01*
X74058598Y-128281747D01*
X74076777Y-128298223D01*
X74093253Y-128316402D01*
X74107867Y-128336107D01*
X74120480Y-128357151D01*
X74130970Y-128379329D01*
X74139235Y-128402429D01*
X74145196Y-128426227D01*
X74148796Y-128450496D01*
X74150000Y-128475000D01*
X74150000Y-130525000D01*
X74148796Y-130549504D01*
X74145196Y-130573773D01*
X74139235Y-130597571D01*
X74130970Y-130620671D01*
X74120480Y-130642849D01*
X74107867Y-130663893D01*
X74093253Y-130683598D01*
X74076777Y-130701777D01*
X74058598Y-130718253D01*
X74038893Y-130732867D01*
X74017849Y-130745480D01*
X73995671Y-130755970D01*
X73972571Y-130764235D01*
X73948773Y-130770196D01*
X73924504Y-130773796D01*
X73900000Y-130775000D01*
X72325000Y-130775000D01*
X72300496Y-130773796D01*
X72276227Y-130770196D01*
X72252429Y-130764235D01*
X72229329Y-130755970D01*
X72207151Y-130745480D01*
X72186107Y-130732867D01*
X72166402Y-130718253D01*
X72148223Y-130701777D01*
X72131747Y-130683598D01*
X72117133Y-130663893D01*
X72104520Y-130642849D01*
X72094030Y-130620671D01*
X72085765Y-130597571D01*
X72079804Y-130573773D01*
X72076204Y-130549504D01*
X72075000Y-130525000D01*
X72075000Y-128475000D01*
X72076204Y-128450496D01*
X72079804Y-128426227D01*
X72085765Y-128402429D01*
X72094030Y-128379329D01*
X72104520Y-128357151D01*
X72117133Y-128336107D01*
X72131747Y-128316402D01*
X72148223Y-128298223D01*
X72166402Y-128281747D01*
X72186107Y-128267133D01*
X72207151Y-128254520D01*
X72229329Y-128244030D01*
X72252429Y-128235765D01*
X72276227Y-128229804D01*
X72300496Y-128226204D01*
X72325000Y-128225000D01*
X73900000Y-128225000D01*
X73924504Y-128226204D01*
X73924504Y-128226204D01*
G37*
D11*
X73112500Y-129500000D03*
G04 #@! TD*
D10*
G04 #@! TO.C,C74*
G36*
X73924504Y-123326204D02*
X73948773Y-123329804D01*
X73972571Y-123335765D01*
X73995671Y-123344030D01*
X74017849Y-123354520D01*
X74038893Y-123367133D01*
X74058598Y-123381747D01*
X74076777Y-123398223D01*
X74093253Y-123416402D01*
X74107867Y-123436107D01*
X74120480Y-123457151D01*
X74130970Y-123479329D01*
X74139235Y-123502429D01*
X74145196Y-123526227D01*
X74148796Y-123550496D01*
X74150000Y-123575000D01*
X74150000Y-125625000D01*
X74148796Y-125649504D01*
X74145196Y-125673773D01*
X74139235Y-125697571D01*
X74130970Y-125720671D01*
X74120480Y-125742849D01*
X74107867Y-125763893D01*
X74093253Y-125783598D01*
X74076777Y-125801777D01*
X74058598Y-125818253D01*
X74038893Y-125832867D01*
X74017849Y-125845480D01*
X73995671Y-125855970D01*
X73972571Y-125864235D01*
X73948773Y-125870196D01*
X73924504Y-125873796D01*
X73900000Y-125875000D01*
X72325000Y-125875000D01*
X72300496Y-125873796D01*
X72276227Y-125870196D01*
X72252429Y-125864235D01*
X72229329Y-125855970D01*
X72207151Y-125845480D01*
X72186107Y-125832867D01*
X72166402Y-125818253D01*
X72148223Y-125801777D01*
X72131747Y-125783598D01*
X72117133Y-125763893D01*
X72104520Y-125742849D01*
X72094030Y-125720671D01*
X72085765Y-125697571D01*
X72079804Y-125673773D01*
X72076204Y-125649504D01*
X72075000Y-125625000D01*
X72075000Y-123575000D01*
X72076204Y-123550496D01*
X72079804Y-123526227D01*
X72085765Y-123502429D01*
X72094030Y-123479329D01*
X72104520Y-123457151D01*
X72117133Y-123436107D01*
X72131747Y-123416402D01*
X72148223Y-123398223D01*
X72166402Y-123381747D01*
X72186107Y-123367133D01*
X72207151Y-123354520D01*
X72229329Y-123344030D01*
X72252429Y-123335765D01*
X72276227Y-123329804D01*
X72300496Y-123326204D01*
X72325000Y-123325000D01*
X73900000Y-123325000D01*
X73924504Y-123326204D01*
X73924504Y-123326204D01*
G37*
D11*
X73112500Y-124600000D03*
D10*
G36*
X67699504Y-123326204D02*
X67723773Y-123329804D01*
X67747571Y-123335765D01*
X67770671Y-123344030D01*
X67792849Y-123354520D01*
X67813893Y-123367133D01*
X67833598Y-123381747D01*
X67851777Y-123398223D01*
X67868253Y-123416402D01*
X67882867Y-123436107D01*
X67895480Y-123457151D01*
X67905970Y-123479329D01*
X67914235Y-123502429D01*
X67920196Y-123526227D01*
X67923796Y-123550496D01*
X67925000Y-123575000D01*
X67925000Y-125625000D01*
X67923796Y-125649504D01*
X67920196Y-125673773D01*
X67914235Y-125697571D01*
X67905970Y-125720671D01*
X67895480Y-125742849D01*
X67882867Y-125763893D01*
X67868253Y-125783598D01*
X67851777Y-125801777D01*
X67833598Y-125818253D01*
X67813893Y-125832867D01*
X67792849Y-125845480D01*
X67770671Y-125855970D01*
X67747571Y-125864235D01*
X67723773Y-125870196D01*
X67699504Y-125873796D01*
X67675000Y-125875000D01*
X66100000Y-125875000D01*
X66075496Y-125873796D01*
X66051227Y-125870196D01*
X66027429Y-125864235D01*
X66004329Y-125855970D01*
X65982151Y-125845480D01*
X65961107Y-125832867D01*
X65941402Y-125818253D01*
X65923223Y-125801777D01*
X65906747Y-125783598D01*
X65892133Y-125763893D01*
X65879520Y-125742849D01*
X65869030Y-125720671D01*
X65860765Y-125697571D01*
X65854804Y-125673773D01*
X65851204Y-125649504D01*
X65850000Y-125625000D01*
X65850000Y-123575000D01*
X65851204Y-123550496D01*
X65854804Y-123526227D01*
X65860765Y-123502429D01*
X65869030Y-123479329D01*
X65879520Y-123457151D01*
X65892133Y-123436107D01*
X65906747Y-123416402D01*
X65923223Y-123398223D01*
X65941402Y-123381747D01*
X65961107Y-123367133D01*
X65982151Y-123354520D01*
X66004329Y-123344030D01*
X66027429Y-123335765D01*
X66051227Y-123329804D01*
X66075496Y-123326204D01*
X66100000Y-123325000D01*
X67675000Y-123325000D01*
X67699504Y-123326204D01*
X67699504Y-123326204D01*
G37*
D11*
X66887500Y-124600000D03*
G04 #@! TD*
D10*
G04 #@! TO.C,C76*
G36*
X64977691Y-125851053D02*
X64998926Y-125854203D01*
X65019750Y-125859419D01*
X65039962Y-125866651D01*
X65059368Y-125875830D01*
X65077781Y-125886866D01*
X65095024Y-125899654D01*
X65110930Y-125914070D01*
X65125346Y-125929976D01*
X65138134Y-125947219D01*
X65149170Y-125965632D01*
X65158349Y-125985038D01*
X65165581Y-126005250D01*
X65170797Y-126026074D01*
X65173947Y-126047309D01*
X65175000Y-126068750D01*
X65175000Y-126506250D01*
X65173947Y-126527691D01*
X65170797Y-126548926D01*
X65165581Y-126569750D01*
X65158349Y-126589962D01*
X65149170Y-126609368D01*
X65138134Y-126627781D01*
X65125346Y-126645024D01*
X65110930Y-126660930D01*
X65095024Y-126675346D01*
X65077781Y-126688134D01*
X65059368Y-126699170D01*
X65039962Y-126708349D01*
X65019750Y-126715581D01*
X64998926Y-126720797D01*
X64977691Y-126723947D01*
X64956250Y-126725000D01*
X64443750Y-126725000D01*
X64422309Y-126723947D01*
X64401074Y-126720797D01*
X64380250Y-126715581D01*
X64360038Y-126708349D01*
X64340632Y-126699170D01*
X64322219Y-126688134D01*
X64304976Y-126675346D01*
X64289070Y-126660930D01*
X64274654Y-126645024D01*
X64261866Y-126627781D01*
X64250830Y-126609368D01*
X64241651Y-126589962D01*
X64234419Y-126569750D01*
X64229203Y-126548926D01*
X64226053Y-126527691D01*
X64225000Y-126506250D01*
X64225000Y-126068750D01*
X64226053Y-126047309D01*
X64229203Y-126026074D01*
X64234419Y-126005250D01*
X64241651Y-125985038D01*
X64250830Y-125965632D01*
X64261866Y-125947219D01*
X64274654Y-125929976D01*
X64289070Y-125914070D01*
X64304976Y-125899654D01*
X64322219Y-125886866D01*
X64340632Y-125875830D01*
X64360038Y-125866651D01*
X64380250Y-125859419D01*
X64401074Y-125854203D01*
X64422309Y-125851053D01*
X64443750Y-125850000D01*
X64956250Y-125850000D01*
X64977691Y-125851053D01*
X64977691Y-125851053D01*
G37*
D12*
X64700000Y-126287500D03*
D10*
G36*
X64977691Y-124276053D02*
X64998926Y-124279203D01*
X65019750Y-124284419D01*
X65039962Y-124291651D01*
X65059368Y-124300830D01*
X65077781Y-124311866D01*
X65095024Y-124324654D01*
X65110930Y-124339070D01*
X65125346Y-124354976D01*
X65138134Y-124372219D01*
X65149170Y-124390632D01*
X65158349Y-124410038D01*
X65165581Y-124430250D01*
X65170797Y-124451074D01*
X65173947Y-124472309D01*
X65175000Y-124493750D01*
X65175000Y-124931250D01*
X65173947Y-124952691D01*
X65170797Y-124973926D01*
X65165581Y-124994750D01*
X65158349Y-125014962D01*
X65149170Y-125034368D01*
X65138134Y-125052781D01*
X65125346Y-125070024D01*
X65110930Y-125085930D01*
X65095024Y-125100346D01*
X65077781Y-125113134D01*
X65059368Y-125124170D01*
X65039962Y-125133349D01*
X65019750Y-125140581D01*
X64998926Y-125145797D01*
X64977691Y-125148947D01*
X64956250Y-125150000D01*
X64443750Y-125150000D01*
X64422309Y-125148947D01*
X64401074Y-125145797D01*
X64380250Y-125140581D01*
X64360038Y-125133349D01*
X64340632Y-125124170D01*
X64322219Y-125113134D01*
X64304976Y-125100346D01*
X64289070Y-125085930D01*
X64274654Y-125070024D01*
X64261866Y-125052781D01*
X64250830Y-125034368D01*
X64241651Y-125014962D01*
X64234419Y-124994750D01*
X64229203Y-124973926D01*
X64226053Y-124952691D01*
X64225000Y-124931250D01*
X64225000Y-124493750D01*
X64226053Y-124472309D01*
X64229203Y-124451074D01*
X64234419Y-124430250D01*
X64241651Y-124410038D01*
X64250830Y-124390632D01*
X64261866Y-124372219D01*
X64274654Y-124354976D01*
X64289070Y-124339070D01*
X64304976Y-124324654D01*
X64322219Y-124311866D01*
X64340632Y-124300830D01*
X64360038Y-124291651D01*
X64380250Y-124284419D01*
X64401074Y-124279203D01*
X64422309Y-124276053D01*
X64443750Y-124275000D01*
X64956250Y-124275000D01*
X64977691Y-124276053D01*
X64977691Y-124276053D01*
G37*
D12*
X64700000Y-124712500D03*
G04 #@! TD*
D10*
G04 #@! TO.C,C71*
G36*
X86199504Y-123326204D02*
X86223773Y-123329804D01*
X86247571Y-123335765D01*
X86270671Y-123344030D01*
X86292849Y-123354520D01*
X86313893Y-123367133D01*
X86333598Y-123381747D01*
X86351777Y-123398223D01*
X86368253Y-123416402D01*
X86382867Y-123436107D01*
X86395480Y-123457151D01*
X86405970Y-123479329D01*
X86414235Y-123502429D01*
X86420196Y-123526227D01*
X86423796Y-123550496D01*
X86425000Y-123575000D01*
X86425000Y-125625000D01*
X86423796Y-125649504D01*
X86420196Y-125673773D01*
X86414235Y-125697571D01*
X86405970Y-125720671D01*
X86395480Y-125742849D01*
X86382867Y-125763893D01*
X86368253Y-125783598D01*
X86351777Y-125801777D01*
X86333598Y-125818253D01*
X86313893Y-125832867D01*
X86292849Y-125845480D01*
X86270671Y-125855970D01*
X86247571Y-125864235D01*
X86223773Y-125870196D01*
X86199504Y-125873796D01*
X86175000Y-125875000D01*
X84600000Y-125875000D01*
X84575496Y-125873796D01*
X84551227Y-125870196D01*
X84527429Y-125864235D01*
X84504329Y-125855970D01*
X84482151Y-125845480D01*
X84461107Y-125832867D01*
X84441402Y-125818253D01*
X84423223Y-125801777D01*
X84406747Y-125783598D01*
X84392133Y-125763893D01*
X84379520Y-125742849D01*
X84369030Y-125720671D01*
X84360765Y-125697571D01*
X84354804Y-125673773D01*
X84351204Y-125649504D01*
X84350000Y-125625000D01*
X84350000Y-123575000D01*
X84351204Y-123550496D01*
X84354804Y-123526227D01*
X84360765Y-123502429D01*
X84369030Y-123479329D01*
X84379520Y-123457151D01*
X84392133Y-123436107D01*
X84406747Y-123416402D01*
X84423223Y-123398223D01*
X84441402Y-123381747D01*
X84461107Y-123367133D01*
X84482151Y-123354520D01*
X84504329Y-123344030D01*
X84527429Y-123335765D01*
X84551227Y-123329804D01*
X84575496Y-123326204D01*
X84600000Y-123325000D01*
X86175000Y-123325000D01*
X86199504Y-123326204D01*
X86199504Y-123326204D01*
G37*
D11*
X85387500Y-124600000D03*
D10*
G36*
X92424504Y-123326204D02*
X92448773Y-123329804D01*
X92472571Y-123335765D01*
X92495671Y-123344030D01*
X92517849Y-123354520D01*
X92538893Y-123367133D01*
X92558598Y-123381747D01*
X92576777Y-123398223D01*
X92593253Y-123416402D01*
X92607867Y-123436107D01*
X92620480Y-123457151D01*
X92630970Y-123479329D01*
X92639235Y-123502429D01*
X92645196Y-123526227D01*
X92648796Y-123550496D01*
X92650000Y-123575000D01*
X92650000Y-125625000D01*
X92648796Y-125649504D01*
X92645196Y-125673773D01*
X92639235Y-125697571D01*
X92630970Y-125720671D01*
X92620480Y-125742849D01*
X92607867Y-125763893D01*
X92593253Y-125783598D01*
X92576777Y-125801777D01*
X92558598Y-125818253D01*
X92538893Y-125832867D01*
X92517849Y-125845480D01*
X92495671Y-125855970D01*
X92472571Y-125864235D01*
X92448773Y-125870196D01*
X92424504Y-125873796D01*
X92400000Y-125875000D01*
X90825000Y-125875000D01*
X90800496Y-125873796D01*
X90776227Y-125870196D01*
X90752429Y-125864235D01*
X90729329Y-125855970D01*
X90707151Y-125845480D01*
X90686107Y-125832867D01*
X90666402Y-125818253D01*
X90648223Y-125801777D01*
X90631747Y-125783598D01*
X90617133Y-125763893D01*
X90604520Y-125742849D01*
X90594030Y-125720671D01*
X90585765Y-125697571D01*
X90579804Y-125673773D01*
X90576204Y-125649504D01*
X90575000Y-125625000D01*
X90575000Y-123575000D01*
X90576204Y-123550496D01*
X90579804Y-123526227D01*
X90585765Y-123502429D01*
X90594030Y-123479329D01*
X90604520Y-123457151D01*
X90617133Y-123436107D01*
X90631747Y-123416402D01*
X90648223Y-123398223D01*
X90666402Y-123381747D01*
X90686107Y-123367133D01*
X90707151Y-123354520D01*
X90729329Y-123344030D01*
X90752429Y-123335765D01*
X90776227Y-123329804D01*
X90800496Y-123326204D01*
X90825000Y-123325000D01*
X92400000Y-123325000D01*
X92424504Y-123326204D01*
X92424504Y-123326204D01*
G37*
D11*
X91612500Y-124600000D03*
G04 #@! TD*
D10*
G04 #@! TO.C,C69*
G36*
X79777691Y-127851053D02*
X79798926Y-127854203D01*
X79819750Y-127859419D01*
X79839962Y-127866651D01*
X79859368Y-127875830D01*
X79877781Y-127886866D01*
X79895024Y-127899654D01*
X79910930Y-127914070D01*
X79925346Y-127929976D01*
X79938134Y-127947219D01*
X79949170Y-127965632D01*
X79958349Y-127985038D01*
X79965581Y-128005250D01*
X79970797Y-128026074D01*
X79973947Y-128047309D01*
X79975000Y-128068750D01*
X79975000Y-128506250D01*
X79973947Y-128527691D01*
X79970797Y-128548926D01*
X79965581Y-128569750D01*
X79958349Y-128589962D01*
X79949170Y-128609368D01*
X79938134Y-128627781D01*
X79925346Y-128645024D01*
X79910930Y-128660930D01*
X79895024Y-128675346D01*
X79877781Y-128688134D01*
X79859368Y-128699170D01*
X79839962Y-128708349D01*
X79819750Y-128715581D01*
X79798926Y-128720797D01*
X79777691Y-128723947D01*
X79756250Y-128725000D01*
X79243750Y-128725000D01*
X79222309Y-128723947D01*
X79201074Y-128720797D01*
X79180250Y-128715581D01*
X79160038Y-128708349D01*
X79140632Y-128699170D01*
X79122219Y-128688134D01*
X79104976Y-128675346D01*
X79089070Y-128660930D01*
X79074654Y-128645024D01*
X79061866Y-128627781D01*
X79050830Y-128609368D01*
X79041651Y-128589962D01*
X79034419Y-128569750D01*
X79029203Y-128548926D01*
X79026053Y-128527691D01*
X79025000Y-128506250D01*
X79025000Y-128068750D01*
X79026053Y-128047309D01*
X79029203Y-128026074D01*
X79034419Y-128005250D01*
X79041651Y-127985038D01*
X79050830Y-127965632D01*
X79061866Y-127947219D01*
X79074654Y-127929976D01*
X79089070Y-127914070D01*
X79104976Y-127899654D01*
X79122219Y-127886866D01*
X79140632Y-127875830D01*
X79160038Y-127866651D01*
X79180250Y-127859419D01*
X79201074Y-127854203D01*
X79222309Y-127851053D01*
X79243750Y-127850000D01*
X79756250Y-127850000D01*
X79777691Y-127851053D01*
X79777691Y-127851053D01*
G37*
D12*
X79500000Y-128287500D03*
D10*
G36*
X79777691Y-126276053D02*
X79798926Y-126279203D01*
X79819750Y-126284419D01*
X79839962Y-126291651D01*
X79859368Y-126300830D01*
X79877781Y-126311866D01*
X79895024Y-126324654D01*
X79910930Y-126339070D01*
X79925346Y-126354976D01*
X79938134Y-126372219D01*
X79949170Y-126390632D01*
X79958349Y-126410038D01*
X79965581Y-126430250D01*
X79970797Y-126451074D01*
X79973947Y-126472309D01*
X79975000Y-126493750D01*
X79975000Y-126931250D01*
X79973947Y-126952691D01*
X79970797Y-126973926D01*
X79965581Y-126994750D01*
X79958349Y-127014962D01*
X79949170Y-127034368D01*
X79938134Y-127052781D01*
X79925346Y-127070024D01*
X79910930Y-127085930D01*
X79895024Y-127100346D01*
X79877781Y-127113134D01*
X79859368Y-127124170D01*
X79839962Y-127133349D01*
X79819750Y-127140581D01*
X79798926Y-127145797D01*
X79777691Y-127148947D01*
X79756250Y-127150000D01*
X79243750Y-127150000D01*
X79222309Y-127148947D01*
X79201074Y-127145797D01*
X79180250Y-127140581D01*
X79160038Y-127133349D01*
X79140632Y-127124170D01*
X79122219Y-127113134D01*
X79104976Y-127100346D01*
X79089070Y-127085930D01*
X79074654Y-127070024D01*
X79061866Y-127052781D01*
X79050830Y-127034368D01*
X79041651Y-127014962D01*
X79034419Y-126994750D01*
X79029203Y-126973926D01*
X79026053Y-126952691D01*
X79025000Y-126931250D01*
X79025000Y-126493750D01*
X79026053Y-126472309D01*
X79029203Y-126451074D01*
X79034419Y-126430250D01*
X79041651Y-126410038D01*
X79050830Y-126390632D01*
X79061866Y-126372219D01*
X79074654Y-126354976D01*
X79089070Y-126339070D01*
X79104976Y-126324654D01*
X79122219Y-126311866D01*
X79140632Y-126300830D01*
X79160038Y-126291651D01*
X79180250Y-126284419D01*
X79201074Y-126279203D01*
X79222309Y-126276053D01*
X79243750Y-126275000D01*
X79756250Y-126275000D01*
X79777691Y-126276053D01*
X79777691Y-126276053D01*
G37*
D12*
X79500000Y-126712500D03*
G04 #@! TD*
D10*
G04 #@! TO.C,C67*
G36*
X79777691Y-124351053D02*
X79798926Y-124354203D01*
X79819750Y-124359419D01*
X79839962Y-124366651D01*
X79859368Y-124375830D01*
X79877781Y-124386866D01*
X79895024Y-124399654D01*
X79910930Y-124414070D01*
X79925346Y-124429976D01*
X79938134Y-124447219D01*
X79949170Y-124465632D01*
X79958349Y-124485038D01*
X79965581Y-124505250D01*
X79970797Y-124526074D01*
X79973947Y-124547309D01*
X79975000Y-124568750D01*
X79975000Y-125006250D01*
X79973947Y-125027691D01*
X79970797Y-125048926D01*
X79965581Y-125069750D01*
X79958349Y-125089962D01*
X79949170Y-125109368D01*
X79938134Y-125127781D01*
X79925346Y-125145024D01*
X79910930Y-125160930D01*
X79895024Y-125175346D01*
X79877781Y-125188134D01*
X79859368Y-125199170D01*
X79839962Y-125208349D01*
X79819750Y-125215581D01*
X79798926Y-125220797D01*
X79777691Y-125223947D01*
X79756250Y-125225000D01*
X79243750Y-125225000D01*
X79222309Y-125223947D01*
X79201074Y-125220797D01*
X79180250Y-125215581D01*
X79160038Y-125208349D01*
X79140632Y-125199170D01*
X79122219Y-125188134D01*
X79104976Y-125175346D01*
X79089070Y-125160930D01*
X79074654Y-125145024D01*
X79061866Y-125127781D01*
X79050830Y-125109368D01*
X79041651Y-125089962D01*
X79034419Y-125069750D01*
X79029203Y-125048926D01*
X79026053Y-125027691D01*
X79025000Y-125006250D01*
X79025000Y-124568750D01*
X79026053Y-124547309D01*
X79029203Y-124526074D01*
X79034419Y-124505250D01*
X79041651Y-124485038D01*
X79050830Y-124465632D01*
X79061866Y-124447219D01*
X79074654Y-124429976D01*
X79089070Y-124414070D01*
X79104976Y-124399654D01*
X79122219Y-124386866D01*
X79140632Y-124375830D01*
X79160038Y-124366651D01*
X79180250Y-124359419D01*
X79201074Y-124354203D01*
X79222309Y-124351053D01*
X79243750Y-124350000D01*
X79756250Y-124350000D01*
X79777691Y-124351053D01*
X79777691Y-124351053D01*
G37*
D12*
X79500000Y-124787500D03*
D10*
G36*
X79777691Y-122776053D02*
X79798926Y-122779203D01*
X79819750Y-122784419D01*
X79839962Y-122791651D01*
X79859368Y-122800830D01*
X79877781Y-122811866D01*
X79895024Y-122824654D01*
X79910930Y-122839070D01*
X79925346Y-122854976D01*
X79938134Y-122872219D01*
X79949170Y-122890632D01*
X79958349Y-122910038D01*
X79965581Y-122930250D01*
X79970797Y-122951074D01*
X79973947Y-122972309D01*
X79975000Y-122993750D01*
X79975000Y-123431250D01*
X79973947Y-123452691D01*
X79970797Y-123473926D01*
X79965581Y-123494750D01*
X79958349Y-123514962D01*
X79949170Y-123534368D01*
X79938134Y-123552781D01*
X79925346Y-123570024D01*
X79910930Y-123585930D01*
X79895024Y-123600346D01*
X79877781Y-123613134D01*
X79859368Y-123624170D01*
X79839962Y-123633349D01*
X79819750Y-123640581D01*
X79798926Y-123645797D01*
X79777691Y-123648947D01*
X79756250Y-123650000D01*
X79243750Y-123650000D01*
X79222309Y-123648947D01*
X79201074Y-123645797D01*
X79180250Y-123640581D01*
X79160038Y-123633349D01*
X79140632Y-123624170D01*
X79122219Y-123613134D01*
X79104976Y-123600346D01*
X79089070Y-123585930D01*
X79074654Y-123570024D01*
X79061866Y-123552781D01*
X79050830Y-123534368D01*
X79041651Y-123514962D01*
X79034419Y-123494750D01*
X79029203Y-123473926D01*
X79026053Y-123452691D01*
X79025000Y-123431250D01*
X79025000Y-122993750D01*
X79026053Y-122972309D01*
X79029203Y-122951074D01*
X79034419Y-122930250D01*
X79041651Y-122910038D01*
X79050830Y-122890632D01*
X79061866Y-122872219D01*
X79074654Y-122854976D01*
X79089070Y-122839070D01*
X79104976Y-122824654D01*
X79122219Y-122811866D01*
X79140632Y-122800830D01*
X79160038Y-122791651D01*
X79180250Y-122784419D01*
X79201074Y-122779203D01*
X79222309Y-122776053D01*
X79243750Y-122775000D01*
X79756250Y-122775000D01*
X79777691Y-122776053D01*
X79777691Y-122776053D01*
G37*
D12*
X79500000Y-123212500D03*
G04 #@! TD*
D10*
G04 #@! TO.C,C56*
G36*
X79777691Y-111376053D02*
X79798926Y-111379203D01*
X79819750Y-111384419D01*
X79839962Y-111391651D01*
X79859368Y-111400830D01*
X79877781Y-111411866D01*
X79895024Y-111424654D01*
X79910930Y-111439070D01*
X79925346Y-111454976D01*
X79938134Y-111472219D01*
X79949170Y-111490632D01*
X79958349Y-111510038D01*
X79965581Y-111530250D01*
X79970797Y-111551074D01*
X79973947Y-111572309D01*
X79975000Y-111593750D01*
X79975000Y-112031250D01*
X79973947Y-112052691D01*
X79970797Y-112073926D01*
X79965581Y-112094750D01*
X79958349Y-112114962D01*
X79949170Y-112134368D01*
X79938134Y-112152781D01*
X79925346Y-112170024D01*
X79910930Y-112185930D01*
X79895024Y-112200346D01*
X79877781Y-112213134D01*
X79859368Y-112224170D01*
X79839962Y-112233349D01*
X79819750Y-112240581D01*
X79798926Y-112245797D01*
X79777691Y-112248947D01*
X79756250Y-112250000D01*
X79243750Y-112250000D01*
X79222309Y-112248947D01*
X79201074Y-112245797D01*
X79180250Y-112240581D01*
X79160038Y-112233349D01*
X79140632Y-112224170D01*
X79122219Y-112213134D01*
X79104976Y-112200346D01*
X79089070Y-112185930D01*
X79074654Y-112170024D01*
X79061866Y-112152781D01*
X79050830Y-112134368D01*
X79041651Y-112114962D01*
X79034419Y-112094750D01*
X79029203Y-112073926D01*
X79026053Y-112052691D01*
X79025000Y-112031250D01*
X79025000Y-111593750D01*
X79026053Y-111572309D01*
X79029203Y-111551074D01*
X79034419Y-111530250D01*
X79041651Y-111510038D01*
X79050830Y-111490632D01*
X79061866Y-111472219D01*
X79074654Y-111454976D01*
X79089070Y-111439070D01*
X79104976Y-111424654D01*
X79122219Y-111411866D01*
X79140632Y-111400830D01*
X79160038Y-111391651D01*
X79180250Y-111384419D01*
X79201074Y-111379203D01*
X79222309Y-111376053D01*
X79243750Y-111375000D01*
X79756250Y-111375000D01*
X79777691Y-111376053D01*
X79777691Y-111376053D01*
G37*
D12*
X79500000Y-111812500D03*
D10*
G36*
X79777691Y-112951053D02*
X79798926Y-112954203D01*
X79819750Y-112959419D01*
X79839962Y-112966651D01*
X79859368Y-112975830D01*
X79877781Y-112986866D01*
X79895024Y-112999654D01*
X79910930Y-113014070D01*
X79925346Y-113029976D01*
X79938134Y-113047219D01*
X79949170Y-113065632D01*
X79958349Y-113085038D01*
X79965581Y-113105250D01*
X79970797Y-113126074D01*
X79973947Y-113147309D01*
X79975000Y-113168750D01*
X79975000Y-113606250D01*
X79973947Y-113627691D01*
X79970797Y-113648926D01*
X79965581Y-113669750D01*
X79958349Y-113689962D01*
X79949170Y-113709368D01*
X79938134Y-113727781D01*
X79925346Y-113745024D01*
X79910930Y-113760930D01*
X79895024Y-113775346D01*
X79877781Y-113788134D01*
X79859368Y-113799170D01*
X79839962Y-113808349D01*
X79819750Y-113815581D01*
X79798926Y-113820797D01*
X79777691Y-113823947D01*
X79756250Y-113825000D01*
X79243750Y-113825000D01*
X79222309Y-113823947D01*
X79201074Y-113820797D01*
X79180250Y-113815581D01*
X79160038Y-113808349D01*
X79140632Y-113799170D01*
X79122219Y-113788134D01*
X79104976Y-113775346D01*
X79089070Y-113760930D01*
X79074654Y-113745024D01*
X79061866Y-113727781D01*
X79050830Y-113709368D01*
X79041651Y-113689962D01*
X79034419Y-113669750D01*
X79029203Y-113648926D01*
X79026053Y-113627691D01*
X79025000Y-113606250D01*
X79025000Y-113168750D01*
X79026053Y-113147309D01*
X79029203Y-113126074D01*
X79034419Y-113105250D01*
X79041651Y-113085038D01*
X79050830Y-113065632D01*
X79061866Y-113047219D01*
X79074654Y-113029976D01*
X79089070Y-113014070D01*
X79104976Y-112999654D01*
X79122219Y-112986866D01*
X79140632Y-112975830D01*
X79160038Y-112966651D01*
X79180250Y-112959419D01*
X79201074Y-112954203D01*
X79222309Y-112951053D01*
X79243750Y-112950000D01*
X79756250Y-112950000D01*
X79777691Y-112951053D01*
X79777691Y-112951053D01*
G37*
D12*
X79500000Y-113387500D03*
G04 #@! TD*
D10*
G04 #@! TO.C,C58*
G36*
X79777691Y-114576053D02*
X79798926Y-114579203D01*
X79819750Y-114584419D01*
X79839962Y-114591651D01*
X79859368Y-114600830D01*
X79877781Y-114611866D01*
X79895024Y-114624654D01*
X79910930Y-114639070D01*
X79925346Y-114654976D01*
X79938134Y-114672219D01*
X79949170Y-114690632D01*
X79958349Y-114710038D01*
X79965581Y-114730250D01*
X79970797Y-114751074D01*
X79973947Y-114772309D01*
X79975000Y-114793750D01*
X79975000Y-115231250D01*
X79973947Y-115252691D01*
X79970797Y-115273926D01*
X79965581Y-115294750D01*
X79958349Y-115314962D01*
X79949170Y-115334368D01*
X79938134Y-115352781D01*
X79925346Y-115370024D01*
X79910930Y-115385930D01*
X79895024Y-115400346D01*
X79877781Y-115413134D01*
X79859368Y-115424170D01*
X79839962Y-115433349D01*
X79819750Y-115440581D01*
X79798926Y-115445797D01*
X79777691Y-115448947D01*
X79756250Y-115450000D01*
X79243750Y-115450000D01*
X79222309Y-115448947D01*
X79201074Y-115445797D01*
X79180250Y-115440581D01*
X79160038Y-115433349D01*
X79140632Y-115424170D01*
X79122219Y-115413134D01*
X79104976Y-115400346D01*
X79089070Y-115385930D01*
X79074654Y-115370024D01*
X79061866Y-115352781D01*
X79050830Y-115334368D01*
X79041651Y-115314962D01*
X79034419Y-115294750D01*
X79029203Y-115273926D01*
X79026053Y-115252691D01*
X79025000Y-115231250D01*
X79025000Y-114793750D01*
X79026053Y-114772309D01*
X79029203Y-114751074D01*
X79034419Y-114730250D01*
X79041651Y-114710038D01*
X79050830Y-114690632D01*
X79061866Y-114672219D01*
X79074654Y-114654976D01*
X79089070Y-114639070D01*
X79104976Y-114624654D01*
X79122219Y-114611866D01*
X79140632Y-114600830D01*
X79160038Y-114591651D01*
X79180250Y-114584419D01*
X79201074Y-114579203D01*
X79222309Y-114576053D01*
X79243750Y-114575000D01*
X79756250Y-114575000D01*
X79777691Y-114576053D01*
X79777691Y-114576053D01*
G37*
D12*
X79500000Y-115012500D03*
D10*
G36*
X79777691Y-116151053D02*
X79798926Y-116154203D01*
X79819750Y-116159419D01*
X79839962Y-116166651D01*
X79859368Y-116175830D01*
X79877781Y-116186866D01*
X79895024Y-116199654D01*
X79910930Y-116214070D01*
X79925346Y-116229976D01*
X79938134Y-116247219D01*
X79949170Y-116265632D01*
X79958349Y-116285038D01*
X79965581Y-116305250D01*
X79970797Y-116326074D01*
X79973947Y-116347309D01*
X79975000Y-116368750D01*
X79975000Y-116806250D01*
X79973947Y-116827691D01*
X79970797Y-116848926D01*
X79965581Y-116869750D01*
X79958349Y-116889962D01*
X79949170Y-116909368D01*
X79938134Y-116927781D01*
X79925346Y-116945024D01*
X79910930Y-116960930D01*
X79895024Y-116975346D01*
X79877781Y-116988134D01*
X79859368Y-116999170D01*
X79839962Y-117008349D01*
X79819750Y-117015581D01*
X79798926Y-117020797D01*
X79777691Y-117023947D01*
X79756250Y-117025000D01*
X79243750Y-117025000D01*
X79222309Y-117023947D01*
X79201074Y-117020797D01*
X79180250Y-117015581D01*
X79160038Y-117008349D01*
X79140632Y-116999170D01*
X79122219Y-116988134D01*
X79104976Y-116975346D01*
X79089070Y-116960930D01*
X79074654Y-116945024D01*
X79061866Y-116927781D01*
X79050830Y-116909368D01*
X79041651Y-116889962D01*
X79034419Y-116869750D01*
X79029203Y-116848926D01*
X79026053Y-116827691D01*
X79025000Y-116806250D01*
X79025000Y-116368750D01*
X79026053Y-116347309D01*
X79029203Y-116326074D01*
X79034419Y-116305250D01*
X79041651Y-116285038D01*
X79050830Y-116265632D01*
X79061866Y-116247219D01*
X79074654Y-116229976D01*
X79089070Y-116214070D01*
X79104976Y-116199654D01*
X79122219Y-116186866D01*
X79140632Y-116175830D01*
X79160038Y-116166651D01*
X79180250Y-116159419D01*
X79201074Y-116154203D01*
X79222309Y-116151053D01*
X79243750Y-116150000D01*
X79756250Y-116150000D01*
X79777691Y-116151053D01*
X79777691Y-116151053D01*
G37*
D12*
X79500000Y-116587500D03*
G04 #@! TD*
D10*
G04 #@! TO.C,C62*
G36*
X92424504Y-111826204D02*
X92448773Y-111829804D01*
X92472571Y-111835765D01*
X92495671Y-111844030D01*
X92517849Y-111854520D01*
X92538893Y-111867133D01*
X92558598Y-111881747D01*
X92576777Y-111898223D01*
X92593253Y-111916402D01*
X92607867Y-111936107D01*
X92620480Y-111957151D01*
X92630970Y-111979329D01*
X92639235Y-112002429D01*
X92645196Y-112026227D01*
X92648796Y-112050496D01*
X92650000Y-112075000D01*
X92650000Y-114125000D01*
X92648796Y-114149504D01*
X92645196Y-114173773D01*
X92639235Y-114197571D01*
X92630970Y-114220671D01*
X92620480Y-114242849D01*
X92607867Y-114263893D01*
X92593253Y-114283598D01*
X92576777Y-114301777D01*
X92558598Y-114318253D01*
X92538893Y-114332867D01*
X92517849Y-114345480D01*
X92495671Y-114355970D01*
X92472571Y-114364235D01*
X92448773Y-114370196D01*
X92424504Y-114373796D01*
X92400000Y-114375000D01*
X90825000Y-114375000D01*
X90800496Y-114373796D01*
X90776227Y-114370196D01*
X90752429Y-114364235D01*
X90729329Y-114355970D01*
X90707151Y-114345480D01*
X90686107Y-114332867D01*
X90666402Y-114318253D01*
X90648223Y-114301777D01*
X90631747Y-114283598D01*
X90617133Y-114263893D01*
X90604520Y-114242849D01*
X90594030Y-114220671D01*
X90585765Y-114197571D01*
X90579804Y-114173773D01*
X90576204Y-114149504D01*
X90575000Y-114125000D01*
X90575000Y-112075000D01*
X90576204Y-112050496D01*
X90579804Y-112026227D01*
X90585765Y-112002429D01*
X90594030Y-111979329D01*
X90604520Y-111957151D01*
X90617133Y-111936107D01*
X90631747Y-111916402D01*
X90648223Y-111898223D01*
X90666402Y-111881747D01*
X90686107Y-111867133D01*
X90707151Y-111854520D01*
X90729329Y-111844030D01*
X90752429Y-111835765D01*
X90776227Y-111829804D01*
X90800496Y-111826204D01*
X90825000Y-111825000D01*
X92400000Y-111825000D01*
X92424504Y-111826204D01*
X92424504Y-111826204D01*
G37*
D11*
X91612500Y-113100000D03*
D10*
G36*
X86199504Y-111826204D02*
X86223773Y-111829804D01*
X86247571Y-111835765D01*
X86270671Y-111844030D01*
X86292849Y-111854520D01*
X86313893Y-111867133D01*
X86333598Y-111881747D01*
X86351777Y-111898223D01*
X86368253Y-111916402D01*
X86382867Y-111936107D01*
X86395480Y-111957151D01*
X86405970Y-111979329D01*
X86414235Y-112002429D01*
X86420196Y-112026227D01*
X86423796Y-112050496D01*
X86425000Y-112075000D01*
X86425000Y-114125000D01*
X86423796Y-114149504D01*
X86420196Y-114173773D01*
X86414235Y-114197571D01*
X86405970Y-114220671D01*
X86395480Y-114242849D01*
X86382867Y-114263893D01*
X86368253Y-114283598D01*
X86351777Y-114301777D01*
X86333598Y-114318253D01*
X86313893Y-114332867D01*
X86292849Y-114345480D01*
X86270671Y-114355970D01*
X86247571Y-114364235D01*
X86223773Y-114370196D01*
X86199504Y-114373796D01*
X86175000Y-114375000D01*
X84600000Y-114375000D01*
X84575496Y-114373796D01*
X84551227Y-114370196D01*
X84527429Y-114364235D01*
X84504329Y-114355970D01*
X84482151Y-114345480D01*
X84461107Y-114332867D01*
X84441402Y-114318253D01*
X84423223Y-114301777D01*
X84406747Y-114283598D01*
X84392133Y-114263893D01*
X84379520Y-114242849D01*
X84369030Y-114220671D01*
X84360765Y-114197571D01*
X84354804Y-114173773D01*
X84351204Y-114149504D01*
X84350000Y-114125000D01*
X84350000Y-112075000D01*
X84351204Y-112050496D01*
X84354804Y-112026227D01*
X84360765Y-112002429D01*
X84369030Y-111979329D01*
X84379520Y-111957151D01*
X84392133Y-111936107D01*
X84406747Y-111916402D01*
X84423223Y-111898223D01*
X84441402Y-111881747D01*
X84461107Y-111867133D01*
X84482151Y-111854520D01*
X84504329Y-111844030D01*
X84527429Y-111835765D01*
X84551227Y-111829804D01*
X84575496Y-111826204D01*
X84600000Y-111825000D01*
X86175000Y-111825000D01*
X86199504Y-111826204D01*
X86199504Y-111826204D01*
G37*
D11*
X85387500Y-113100000D03*
G04 #@! TD*
D10*
G04 #@! TO.C,C59*
G36*
X73924504Y-116726204D02*
X73948773Y-116729804D01*
X73972571Y-116735765D01*
X73995671Y-116744030D01*
X74017849Y-116754520D01*
X74038893Y-116767133D01*
X74058598Y-116781747D01*
X74076777Y-116798223D01*
X74093253Y-116816402D01*
X74107867Y-116836107D01*
X74120480Y-116857151D01*
X74130970Y-116879329D01*
X74139235Y-116902429D01*
X74145196Y-116926227D01*
X74148796Y-116950496D01*
X74150000Y-116975000D01*
X74150000Y-119025000D01*
X74148796Y-119049504D01*
X74145196Y-119073773D01*
X74139235Y-119097571D01*
X74130970Y-119120671D01*
X74120480Y-119142849D01*
X74107867Y-119163893D01*
X74093253Y-119183598D01*
X74076777Y-119201777D01*
X74058598Y-119218253D01*
X74038893Y-119232867D01*
X74017849Y-119245480D01*
X73995671Y-119255970D01*
X73972571Y-119264235D01*
X73948773Y-119270196D01*
X73924504Y-119273796D01*
X73900000Y-119275000D01*
X72325000Y-119275000D01*
X72300496Y-119273796D01*
X72276227Y-119270196D01*
X72252429Y-119264235D01*
X72229329Y-119255970D01*
X72207151Y-119245480D01*
X72186107Y-119232867D01*
X72166402Y-119218253D01*
X72148223Y-119201777D01*
X72131747Y-119183598D01*
X72117133Y-119163893D01*
X72104520Y-119142849D01*
X72094030Y-119120671D01*
X72085765Y-119097571D01*
X72079804Y-119073773D01*
X72076204Y-119049504D01*
X72075000Y-119025000D01*
X72075000Y-116975000D01*
X72076204Y-116950496D01*
X72079804Y-116926227D01*
X72085765Y-116902429D01*
X72094030Y-116879329D01*
X72104520Y-116857151D01*
X72117133Y-116836107D01*
X72131747Y-116816402D01*
X72148223Y-116798223D01*
X72166402Y-116781747D01*
X72186107Y-116767133D01*
X72207151Y-116754520D01*
X72229329Y-116744030D01*
X72252429Y-116735765D01*
X72276227Y-116729804D01*
X72300496Y-116726204D01*
X72325000Y-116725000D01*
X73900000Y-116725000D01*
X73924504Y-116726204D01*
X73924504Y-116726204D01*
G37*
D11*
X73112500Y-118000000D03*
D10*
G36*
X67699504Y-116726204D02*
X67723773Y-116729804D01*
X67747571Y-116735765D01*
X67770671Y-116744030D01*
X67792849Y-116754520D01*
X67813893Y-116767133D01*
X67833598Y-116781747D01*
X67851777Y-116798223D01*
X67868253Y-116816402D01*
X67882867Y-116836107D01*
X67895480Y-116857151D01*
X67905970Y-116879329D01*
X67914235Y-116902429D01*
X67920196Y-116926227D01*
X67923796Y-116950496D01*
X67925000Y-116975000D01*
X67925000Y-119025000D01*
X67923796Y-119049504D01*
X67920196Y-119073773D01*
X67914235Y-119097571D01*
X67905970Y-119120671D01*
X67895480Y-119142849D01*
X67882867Y-119163893D01*
X67868253Y-119183598D01*
X67851777Y-119201777D01*
X67833598Y-119218253D01*
X67813893Y-119232867D01*
X67792849Y-119245480D01*
X67770671Y-119255970D01*
X67747571Y-119264235D01*
X67723773Y-119270196D01*
X67699504Y-119273796D01*
X67675000Y-119275000D01*
X66100000Y-119275000D01*
X66075496Y-119273796D01*
X66051227Y-119270196D01*
X66027429Y-119264235D01*
X66004329Y-119255970D01*
X65982151Y-119245480D01*
X65961107Y-119232867D01*
X65941402Y-119218253D01*
X65923223Y-119201777D01*
X65906747Y-119183598D01*
X65892133Y-119163893D01*
X65879520Y-119142849D01*
X65869030Y-119120671D01*
X65860765Y-119097571D01*
X65854804Y-119073773D01*
X65851204Y-119049504D01*
X65850000Y-119025000D01*
X65850000Y-116975000D01*
X65851204Y-116950496D01*
X65854804Y-116926227D01*
X65860765Y-116902429D01*
X65869030Y-116879329D01*
X65879520Y-116857151D01*
X65892133Y-116836107D01*
X65906747Y-116816402D01*
X65923223Y-116798223D01*
X65941402Y-116781747D01*
X65961107Y-116767133D01*
X65982151Y-116754520D01*
X66004329Y-116744030D01*
X66027429Y-116735765D01*
X66051227Y-116729804D01*
X66075496Y-116726204D01*
X66100000Y-116725000D01*
X67675000Y-116725000D01*
X67699504Y-116726204D01*
X67699504Y-116726204D01*
G37*
D11*
X66887500Y-118000000D03*
G04 #@! TD*
D10*
G04 #@! TO.C,C63*
G36*
X67699504Y-111826204D02*
X67723773Y-111829804D01*
X67747571Y-111835765D01*
X67770671Y-111844030D01*
X67792849Y-111854520D01*
X67813893Y-111867133D01*
X67833598Y-111881747D01*
X67851777Y-111898223D01*
X67868253Y-111916402D01*
X67882867Y-111936107D01*
X67895480Y-111957151D01*
X67905970Y-111979329D01*
X67914235Y-112002429D01*
X67920196Y-112026227D01*
X67923796Y-112050496D01*
X67925000Y-112075000D01*
X67925000Y-114125000D01*
X67923796Y-114149504D01*
X67920196Y-114173773D01*
X67914235Y-114197571D01*
X67905970Y-114220671D01*
X67895480Y-114242849D01*
X67882867Y-114263893D01*
X67868253Y-114283598D01*
X67851777Y-114301777D01*
X67833598Y-114318253D01*
X67813893Y-114332867D01*
X67792849Y-114345480D01*
X67770671Y-114355970D01*
X67747571Y-114364235D01*
X67723773Y-114370196D01*
X67699504Y-114373796D01*
X67675000Y-114375000D01*
X66100000Y-114375000D01*
X66075496Y-114373796D01*
X66051227Y-114370196D01*
X66027429Y-114364235D01*
X66004329Y-114355970D01*
X65982151Y-114345480D01*
X65961107Y-114332867D01*
X65941402Y-114318253D01*
X65923223Y-114301777D01*
X65906747Y-114283598D01*
X65892133Y-114263893D01*
X65879520Y-114242849D01*
X65869030Y-114220671D01*
X65860765Y-114197571D01*
X65854804Y-114173773D01*
X65851204Y-114149504D01*
X65850000Y-114125000D01*
X65850000Y-112075000D01*
X65851204Y-112050496D01*
X65854804Y-112026227D01*
X65860765Y-112002429D01*
X65869030Y-111979329D01*
X65879520Y-111957151D01*
X65892133Y-111936107D01*
X65906747Y-111916402D01*
X65923223Y-111898223D01*
X65941402Y-111881747D01*
X65961107Y-111867133D01*
X65982151Y-111854520D01*
X66004329Y-111844030D01*
X66027429Y-111835765D01*
X66051227Y-111829804D01*
X66075496Y-111826204D01*
X66100000Y-111825000D01*
X67675000Y-111825000D01*
X67699504Y-111826204D01*
X67699504Y-111826204D01*
G37*
D11*
X66887500Y-113100000D03*
D10*
G36*
X73924504Y-111826204D02*
X73948773Y-111829804D01*
X73972571Y-111835765D01*
X73995671Y-111844030D01*
X74017849Y-111854520D01*
X74038893Y-111867133D01*
X74058598Y-111881747D01*
X74076777Y-111898223D01*
X74093253Y-111916402D01*
X74107867Y-111936107D01*
X74120480Y-111957151D01*
X74130970Y-111979329D01*
X74139235Y-112002429D01*
X74145196Y-112026227D01*
X74148796Y-112050496D01*
X74150000Y-112075000D01*
X74150000Y-114125000D01*
X74148796Y-114149504D01*
X74145196Y-114173773D01*
X74139235Y-114197571D01*
X74130970Y-114220671D01*
X74120480Y-114242849D01*
X74107867Y-114263893D01*
X74093253Y-114283598D01*
X74076777Y-114301777D01*
X74058598Y-114318253D01*
X74038893Y-114332867D01*
X74017849Y-114345480D01*
X73995671Y-114355970D01*
X73972571Y-114364235D01*
X73948773Y-114370196D01*
X73924504Y-114373796D01*
X73900000Y-114375000D01*
X72325000Y-114375000D01*
X72300496Y-114373796D01*
X72276227Y-114370196D01*
X72252429Y-114364235D01*
X72229329Y-114355970D01*
X72207151Y-114345480D01*
X72186107Y-114332867D01*
X72166402Y-114318253D01*
X72148223Y-114301777D01*
X72131747Y-114283598D01*
X72117133Y-114263893D01*
X72104520Y-114242849D01*
X72094030Y-114220671D01*
X72085765Y-114197571D01*
X72079804Y-114173773D01*
X72076204Y-114149504D01*
X72075000Y-114125000D01*
X72075000Y-112075000D01*
X72076204Y-112050496D01*
X72079804Y-112026227D01*
X72085765Y-112002429D01*
X72094030Y-111979329D01*
X72104520Y-111957151D01*
X72117133Y-111936107D01*
X72131747Y-111916402D01*
X72148223Y-111898223D01*
X72166402Y-111881747D01*
X72186107Y-111867133D01*
X72207151Y-111854520D01*
X72229329Y-111844030D01*
X72252429Y-111835765D01*
X72276227Y-111829804D01*
X72300496Y-111826204D01*
X72325000Y-111825000D01*
X73900000Y-111825000D01*
X73924504Y-111826204D01*
X73924504Y-111826204D01*
G37*
D11*
X73112500Y-113100000D03*
G04 #@! TD*
D10*
G04 #@! TO.C,C64*
G36*
X64977691Y-115876053D02*
X64998926Y-115879203D01*
X65019750Y-115884419D01*
X65039962Y-115891651D01*
X65059368Y-115900830D01*
X65077781Y-115911866D01*
X65095024Y-115924654D01*
X65110930Y-115939070D01*
X65125346Y-115954976D01*
X65138134Y-115972219D01*
X65149170Y-115990632D01*
X65158349Y-116010038D01*
X65165581Y-116030250D01*
X65170797Y-116051074D01*
X65173947Y-116072309D01*
X65175000Y-116093750D01*
X65175000Y-116531250D01*
X65173947Y-116552691D01*
X65170797Y-116573926D01*
X65165581Y-116594750D01*
X65158349Y-116614962D01*
X65149170Y-116634368D01*
X65138134Y-116652781D01*
X65125346Y-116670024D01*
X65110930Y-116685930D01*
X65095024Y-116700346D01*
X65077781Y-116713134D01*
X65059368Y-116724170D01*
X65039962Y-116733349D01*
X65019750Y-116740581D01*
X64998926Y-116745797D01*
X64977691Y-116748947D01*
X64956250Y-116750000D01*
X64443750Y-116750000D01*
X64422309Y-116748947D01*
X64401074Y-116745797D01*
X64380250Y-116740581D01*
X64360038Y-116733349D01*
X64340632Y-116724170D01*
X64322219Y-116713134D01*
X64304976Y-116700346D01*
X64289070Y-116685930D01*
X64274654Y-116670024D01*
X64261866Y-116652781D01*
X64250830Y-116634368D01*
X64241651Y-116614962D01*
X64234419Y-116594750D01*
X64229203Y-116573926D01*
X64226053Y-116552691D01*
X64225000Y-116531250D01*
X64225000Y-116093750D01*
X64226053Y-116072309D01*
X64229203Y-116051074D01*
X64234419Y-116030250D01*
X64241651Y-116010038D01*
X64250830Y-115990632D01*
X64261866Y-115972219D01*
X64274654Y-115954976D01*
X64289070Y-115939070D01*
X64304976Y-115924654D01*
X64322219Y-115911866D01*
X64340632Y-115900830D01*
X64360038Y-115891651D01*
X64380250Y-115884419D01*
X64401074Y-115879203D01*
X64422309Y-115876053D01*
X64443750Y-115875000D01*
X64956250Y-115875000D01*
X64977691Y-115876053D01*
X64977691Y-115876053D01*
G37*
D12*
X64700000Y-116312500D03*
D10*
G36*
X64977691Y-117451053D02*
X64998926Y-117454203D01*
X65019750Y-117459419D01*
X65039962Y-117466651D01*
X65059368Y-117475830D01*
X65077781Y-117486866D01*
X65095024Y-117499654D01*
X65110930Y-117514070D01*
X65125346Y-117529976D01*
X65138134Y-117547219D01*
X65149170Y-117565632D01*
X65158349Y-117585038D01*
X65165581Y-117605250D01*
X65170797Y-117626074D01*
X65173947Y-117647309D01*
X65175000Y-117668750D01*
X65175000Y-118106250D01*
X65173947Y-118127691D01*
X65170797Y-118148926D01*
X65165581Y-118169750D01*
X65158349Y-118189962D01*
X65149170Y-118209368D01*
X65138134Y-118227781D01*
X65125346Y-118245024D01*
X65110930Y-118260930D01*
X65095024Y-118275346D01*
X65077781Y-118288134D01*
X65059368Y-118299170D01*
X65039962Y-118308349D01*
X65019750Y-118315581D01*
X64998926Y-118320797D01*
X64977691Y-118323947D01*
X64956250Y-118325000D01*
X64443750Y-118325000D01*
X64422309Y-118323947D01*
X64401074Y-118320797D01*
X64380250Y-118315581D01*
X64360038Y-118308349D01*
X64340632Y-118299170D01*
X64322219Y-118288134D01*
X64304976Y-118275346D01*
X64289070Y-118260930D01*
X64274654Y-118245024D01*
X64261866Y-118227781D01*
X64250830Y-118209368D01*
X64241651Y-118189962D01*
X64234419Y-118169750D01*
X64229203Y-118148926D01*
X64226053Y-118127691D01*
X64225000Y-118106250D01*
X64225000Y-117668750D01*
X64226053Y-117647309D01*
X64229203Y-117626074D01*
X64234419Y-117605250D01*
X64241651Y-117585038D01*
X64250830Y-117565632D01*
X64261866Y-117547219D01*
X64274654Y-117529976D01*
X64289070Y-117514070D01*
X64304976Y-117499654D01*
X64322219Y-117486866D01*
X64340632Y-117475830D01*
X64360038Y-117466651D01*
X64380250Y-117459419D01*
X64401074Y-117454203D01*
X64422309Y-117451053D01*
X64443750Y-117450000D01*
X64956250Y-117450000D01*
X64977691Y-117451053D01*
X64977691Y-117451053D01*
G37*
D12*
X64700000Y-117887500D03*
G04 #@! TD*
D10*
G04 #@! TO.C,C65*
G36*
X64977691Y-112776053D02*
X64998926Y-112779203D01*
X65019750Y-112784419D01*
X65039962Y-112791651D01*
X65059368Y-112800830D01*
X65077781Y-112811866D01*
X65095024Y-112824654D01*
X65110930Y-112839070D01*
X65125346Y-112854976D01*
X65138134Y-112872219D01*
X65149170Y-112890632D01*
X65158349Y-112910038D01*
X65165581Y-112930250D01*
X65170797Y-112951074D01*
X65173947Y-112972309D01*
X65175000Y-112993750D01*
X65175000Y-113431250D01*
X65173947Y-113452691D01*
X65170797Y-113473926D01*
X65165581Y-113494750D01*
X65158349Y-113514962D01*
X65149170Y-113534368D01*
X65138134Y-113552781D01*
X65125346Y-113570024D01*
X65110930Y-113585930D01*
X65095024Y-113600346D01*
X65077781Y-113613134D01*
X65059368Y-113624170D01*
X65039962Y-113633349D01*
X65019750Y-113640581D01*
X64998926Y-113645797D01*
X64977691Y-113648947D01*
X64956250Y-113650000D01*
X64443750Y-113650000D01*
X64422309Y-113648947D01*
X64401074Y-113645797D01*
X64380250Y-113640581D01*
X64360038Y-113633349D01*
X64340632Y-113624170D01*
X64322219Y-113613134D01*
X64304976Y-113600346D01*
X64289070Y-113585930D01*
X64274654Y-113570024D01*
X64261866Y-113552781D01*
X64250830Y-113534368D01*
X64241651Y-113514962D01*
X64234419Y-113494750D01*
X64229203Y-113473926D01*
X64226053Y-113452691D01*
X64225000Y-113431250D01*
X64225000Y-112993750D01*
X64226053Y-112972309D01*
X64229203Y-112951074D01*
X64234419Y-112930250D01*
X64241651Y-112910038D01*
X64250830Y-112890632D01*
X64261866Y-112872219D01*
X64274654Y-112854976D01*
X64289070Y-112839070D01*
X64304976Y-112824654D01*
X64322219Y-112811866D01*
X64340632Y-112800830D01*
X64360038Y-112791651D01*
X64380250Y-112784419D01*
X64401074Y-112779203D01*
X64422309Y-112776053D01*
X64443750Y-112775000D01*
X64956250Y-112775000D01*
X64977691Y-112776053D01*
X64977691Y-112776053D01*
G37*
D12*
X64700000Y-113212500D03*
D10*
G36*
X64977691Y-114351053D02*
X64998926Y-114354203D01*
X65019750Y-114359419D01*
X65039962Y-114366651D01*
X65059368Y-114375830D01*
X65077781Y-114386866D01*
X65095024Y-114399654D01*
X65110930Y-114414070D01*
X65125346Y-114429976D01*
X65138134Y-114447219D01*
X65149170Y-114465632D01*
X65158349Y-114485038D01*
X65165581Y-114505250D01*
X65170797Y-114526074D01*
X65173947Y-114547309D01*
X65175000Y-114568750D01*
X65175000Y-115006250D01*
X65173947Y-115027691D01*
X65170797Y-115048926D01*
X65165581Y-115069750D01*
X65158349Y-115089962D01*
X65149170Y-115109368D01*
X65138134Y-115127781D01*
X65125346Y-115145024D01*
X65110930Y-115160930D01*
X65095024Y-115175346D01*
X65077781Y-115188134D01*
X65059368Y-115199170D01*
X65039962Y-115208349D01*
X65019750Y-115215581D01*
X64998926Y-115220797D01*
X64977691Y-115223947D01*
X64956250Y-115225000D01*
X64443750Y-115225000D01*
X64422309Y-115223947D01*
X64401074Y-115220797D01*
X64380250Y-115215581D01*
X64360038Y-115208349D01*
X64340632Y-115199170D01*
X64322219Y-115188134D01*
X64304976Y-115175346D01*
X64289070Y-115160930D01*
X64274654Y-115145024D01*
X64261866Y-115127781D01*
X64250830Y-115109368D01*
X64241651Y-115089962D01*
X64234419Y-115069750D01*
X64229203Y-115048926D01*
X64226053Y-115027691D01*
X64225000Y-115006250D01*
X64225000Y-114568750D01*
X64226053Y-114547309D01*
X64229203Y-114526074D01*
X64234419Y-114505250D01*
X64241651Y-114485038D01*
X64250830Y-114465632D01*
X64261866Y-114447219D01*
X64274654Y-114429976D01*
X64289070Y-114414070D01*
X64304976Y-114399654D01*
X64322219Y-114386866D01*
X64340632Y-114375830D01*
X64360038Y-114366651D01*
X64380250Y-114359419D01*
X64401074Y-114354203D01*
X64422309Y-114351053D01*
X64443750Y-114350000D01*
X64956250Y-114350000D01*
X64977691Y-114351053D01*
X64977691Y-114351053D01*
G37*
D12*
X64700000Y-114787500D03*
G04 #@! TD*
D10*
G04 #@! TO.C,C47*
G36*
X116149504Y-155406204D02*
X116173773Y-155409804D01*
X116197571Y-155415765D01*
X116220671Y-155424030D01*
X116242849Y-155434520D01*
X116263893Y-155447133D01*
X116283598Y-155461747D01*
X116301777Y-155478223D01*
X116318253Y-155496402D01*
X116332867Y-155516107D01*
X116345480Y-155537151D01*
X116355970Y-155559329D01*
X116364235Y-155582429D01*
X116370196Y-155606227D01*
X116373796Y-155630496D01*
X116375000Y-155655000D01*
X116375000Y-156405000D01*
X116373796Y-156429504D01*
X116370196Y-156453773D01*
X116364235Y-156477571D01*
X116355970Y-156500671D01*
X116345480Y-156522849D01*
X116332867Y-156543893D01*
X116318253Y-156563598D01*
X116301777Y-156581777D01*
X116283598Y-156598253D01*
X116263893Y-156612867D01*
X116242849Y-156625480D01*
X116220671Y-156635970D01*
X116197571Y-156644235D01*
X116173773Y-156650196D01*
X116149504Y-156653796D01*
X116125000Y-156655000D01*
X113975000Y-156655000D01*
X113950496Y-156653796D01*
X113926227Y-156650196D01*
X113902429Y-156644235D01*
X113879329Y-156635970D01*
X113857151Y-156625480D01*
X113836107Y-156612867D01*
X113816402Y-156598253D01*
X113798223Y-156581777D01*
X113781747Y-156563598D01*
X113767133Y-156543893D01*
X113754520Y-156522849D01*
X113744030Y-156500671D01*
X113735765Y-156477571D01*
X113729804Y-156453773D01*
X113726204Y-156429504D01*
X113725000Y-156405000D01*
X113725000Y-155655000D01*
X113726204Y-155630496D01*
X113729804Y-155606227D01*
X113735765Y-155582429D01*
X113744030Y-155559329D01*
X113754520Y-155537151D01*
X113767133Y-155516107D01*
X113781747Y-155496402D01*
X113798223Y-155478223D01*
X113816402Y-155461747D01*
X113836107Y-155447133D01*
X113857151Y-155434520D01*
X113879329Y-155424030D01*
X113902429Y-155415765D01*
X113926227Y-155409804D01*
X113950496Y-155406204D01*
X113975000Y-155405000D01*
X116125000Y-155405000D01*
X116149504Y-155406204D01*
X116149504Y-155406204D01*
G37*
D13*
X115050000Y-156030000D03*
D10*
G36*
X116149504Y-158206204D02*
X116173773Y-158209804D01*
X116197571Y-158215765D01*
X116220671Y-158224030D01*
X116242849Y-158234520D01*
X116263893Y-158247133D01*
X116283598Y-158261747D01*
X116301777Y-158278223D01*
X116318253Y-158296402D01*
X116332867Y-158316107D01*
X116345480Y-158337151D01*
X116355970Y-158359329D01*
X116364235Y-158382429D01*
X116370196Y-158406227D01*
X116373796Y-158430496D01*
X116375000Y-158455000D01*
X116375000Y-159205000D01*
X116373796Y-159229504D01*
X116370196Y-159253773D01*
X116364235Y-159277571D01*
X116355970Y-159300671D01*
X116345480Y-159322849D01*
X116332867Y-159343893D01*
X116318253Y-159363598D01*
X116301777Y-159381777D01*
X116283598Y-159398253D01*
X116263893Y-159412867D01*
X116242849Y-159425480D01*
X116220671Y-159435970D01*
X116197571Y-159444235D01*
X116173773Y-159450196D01*
X116149504Y-159453796D01*
X116125000Y-159455000D01*
X113975000Y-159455000D01*
X113950496Y-159453796D01*
X113926227Y-159450196D01*
X113902429Y-159444235D01*
X113879329Y-159435970D01*
X113857151Y-159425480D01*
X113836107Y-159412867D01*
X113816402Y-159398253D01*
X113798223Y-159381777D01*
X113781747Y-159363598D01*
X113767133Y-159343893D01*
X113754520Y-159322849D01*
X113744030Y-159300671D01*
X113735765Y-159277571D01*
X113729804Y-159253773D01*
X113726204Y-159229504D01*
X113725000Y-159205000D01*
X113725000Y-158455000D01*
X113726204Y-158430496D01*
X113729804Y-158406227D01*
X113735765Y-158382429D01*
X113744030Y-158359329D01*
X113754520Y-158337151D01*
X113767133Y-158316107D01*
X113781747Y-158296402D01*
X113798223Y-158278223D01*
X113816402Y-158261747D01*
X113836107Y-158247133D01*
X113857151Y-158234520D01*
X113879329Y-158224030D01*
X113902429Y-158215765D01*
X113926227Y-158209804D01*
X113950496Y-158206204D01*
X113975000Y-158205000D01*
X116125000Y-158205000D01*
X116149504Y-158206204D01*
X116149504Y-158206204D01*
G37*
D13*
X115050000Y-158830000D03*
G04 #@! TD*
D10*
G04 #@! TO.C,C53*
G36*
X91129504Y-155136204D02*
X91153773Y-155139804D01*
X91177571Y-155145765D01*
X91200671Y-155154030D01*
X91222849Y-155164520D01*
X91243893Y-155177133D01*
X91263598Y-155191747D01*
X91281777Y-155208223D01*
X91298253Y-155226402D01*
X91312867Y-155246107D01*
X91325480Y-155267151D01*
X91335970Y-155289329D01*
X91344235Y-155312429D01*
X91350196Y-155336227D01*
X91353796Y-155360496D01*
X91355000Y-155385000D01*
X91355000Y-157535000D01*
X91353796Y-157559504D01*
X91350196Y-157583773D01*
X91344235Y-157607571D01*
X91335970Y-157630671D01*
X91325480Y-157652849D01*
X91312867Y-157673893D01*
X91298253Y-157693598D01*
X91281777Y-157711777D01*
X91263598Y-157728253D01*
X91243893Y-157742867D01*
X91222849Y-157755480D01*
X91200671Y-157765970D01*
X91177571Y-157774235D01*
X91153773Y-157780196D01*
X91129504Y-157783796D01*
X91105000Y-157785000D01*
X90355000Y-157785000D01*
X90330496Y-157783796D01*
X90306227Y-157780196D01*
X90282429Y-157774235D01*
X90259329Y-157765970D01*
X90237151Y-157755480D01*
X90216107Y-157742867D01*
X90196402Y-157728253D01*
X90178223Y-157711777D01*
X90161747Y-157693598D01*
X90147133Y-157673893D01*
X90134520Y-157652849D01*
X90124030Y-157630671D01*
X90115765Y-157607571D01*
X90109804Y-157583773D01*
X90106204Y-157559504D01*
X90105000Y-157535000D01*
X90105000Y-155385000D01*
X90106204Y-155360496D01*
X90109804Y-155336227D01*
X90115765Y-155312429D01*
X90124030Y-155289329D01*
X90134520Y-155267151D01*
X90147133Y-155246107D01*
X90161747Y-155226402D01*
X90178223Y-155208223D01*
X90196402Y-155191747D01*
X90216107Y-155177133D01*
X90237151Y-155164520D01*
X90259329Y-155154030D01*
X90282429Y-155145765D01*
X90306227Y-155139804D01*
X90330496Y-155136204D01*
X90355000Y-155135000D01*
X91105000Y-155135000D01*
X91129504Y-155136204D01*
X91129504Y-155136204D01*
G37*
D13*
X90730000Y-156460000D03*
D10*
G36*
X88329504Y-155136204D02*
X88353773Y-155139804D01*
X88377571Y-155145765D01*
X88400671Y-155154030D01*
X88422849Y-155164520D01*
X88443893Y-155177133D01*
X88463598Y-155191747D01*
X88481777Y-155208223D01*
X88498253Y-155226402D01*
X88512867Y-155246107D01*
X88525480Y-155267151D01*
X88535970Y-155289329D01*
X88544235Y-155312429D01*
X88550196Y-155336227D01*
X88553796Y-155360496D01*
X88555000Y-155385000D01*
X88555000Y-157535000D01*
X88553796Y-157559504D01*
X88550196Y-157583773D01*
X88544235Y-157607571D01*
X88535970Y-157630671D01*
X88525480Y-157652849D01*
X88512867Y-157673893D01*
X88498253Y-157693598D01*
X88481777Y-157711777D01*
X88463598Y-157728253D01*
X88443893Y-157742867D01*
X88422849Y-157755480D01*
X88400671Y-157765970D01*
X88377571Y-157774235D01*
X88353773Y-157780196D01*
X88329504Y-157783796D01*
X88305000Y-157785000D01*
X87555000Y-157785000D01*
X87530496Y-157783796D01*
X87506227Y-157780196D01*
X87482429Y-157774235D01*
X87459329Y-157765970D01*
X87437151Y-157755480D01*
X87416107Y-157742867D01*
X87396402Y-157728253D01*
X87378223Y-157711777D01*
X87361747Y-157693598D01*
X87347133Y-157673893D01*
X87334520Y-157652849D01*
X87324030Y-157630671D01*
X87315765Y-157607571D01*
X87309804Y-157583773D01*
X87306204Y-157559504D01*
X87305000Y-157535000D01*
X87305000Y-155385000D01*
X87306204Y-155360496D01*
X87309804Y-155336227D01*
X87315765Y-155312429D01*
X87324030Y-155289329D01*
X87334520Y-155267151D01*
X87347133Y-155246107D01*
X87361747Y-155226402D01*
X87378223Y-155208223D01*
X87396402Y-155191747D01*
X87416107Y-155177133D01*
X87437151Y-155164520D01*
X87459329Y-155154030D01*
X87482429Y-155145765D01*
X87506227Y-155139804D01*
X87530496Y-155136204D01*
X87555000Y-155135000D01*
X88305000Y-155135000D01*
X88329504Y-155136204D01*
X88329504Y-155136204D01*
G37*
D13*
X87930000Y-156460000D03*
G04 #@! TD*
D10*
G04 #@! TO.C,C51*
G36*
X91119504Y-159356204D02*
X91143773Y-159359804D01*
X91167571Y-159365765D01*
X91190671Y-159374030D01*
X91212849Y-159384520D01*
X91233893Y-159397133D01*
X91253598Y-159411747D01*
X91271777Y-159428223D01*
X91288253Y-159446402D01*
X91302867Y-159466107D01*
X91315480Y-159487151D01*
X91325970Y-159509329D01*
X91334235Y-159532429D01*
X91340196Y-159556227D01*
X91343796Y-159580496D01*
X91345000Y-159605000D01*
X91345000Y-161755000D01*
X91343796Y-161779504D01*
X91340196Y-161803773D01*
X91334235Y-161827571D01*
X91325970Y-161850671D01*
X91315480Y-161872849D01*
X91302867Y-161893893D01*
X91288253Y-161913598D01*
X91271777Y-161931777D01*
X91253598Y-161948253D01*
X91233893Y-161962867D01*
X91212849Y-161975480D01*
X91190671Y-161985970D01*
X91167571Y-161994235D01*
X91143773Y-162000196D01*
X91119504Y-162003796D01*
X91095000Y-162005000D01*
X90345000Y-162005000D01*
X90320496Y-162003796D01*
X90296227Y-162000196D01*
X90272429Y-161994235D01*
X90249329Y-161985970D01*
X90227151Y-161975480D01*
X90206107Y-161962867D01*
X90186402Y-161948253D01*
X90168223Y-161931777D01*
X90151747Y-161913598D01*
X90137133Y-161893893D01*
X90124520Y-161872849D01*
X90114030Y-161850671D01*
X90105765Y-161827571D01*
X90099804Y-161803773D01*
X90096204Y-161779504D01*
X90095000Y-161755000D01*
X90095000Y-159605000D01*
X90096204Y-159580496D01*
X90099804Y-159556227D01*
X90105765Y-159532429D01*
X90114030Y-159509329D01*
X90124520Y-159487151D01*
X90137133Y-159466107D01*
X90151747Y-159446402D01*
X90168223Y-159428223D01*
X90186402Y-159411747D01*
X90206107Y-159397133D01*
X90227151Y-159384520D01*
X90249329Y-159374030D01*
X90272429Y-159365765D01*
X90296227Y-159359804D01*
X90320496Y-159356204D01*
X90345000Y-159355000D01*
X91095000Y-159355000D01*
X91119504Y-159356204D01*
X91119504Y-159356204D01*
G37*
D13*
X90720000Y-160680000D03*
D10*
G36*
X88319504Y-159356204D02*
X88343773Y-159359804D01*
X88367571Y-159365765D01*
X88390671Y-159374030D01*
X88412849Y-159384520D01*
X88433893Y-159397133D01*
X88453598Y-159411747D01*
X88471777Y-159428223D01*
X88488253Y-159446402D01*
X88502867Y-159466107D01*
X88515480Y-159487151D01*
X88525970Y-159509329D01*
X88534235Y-159532429D01*
X88540196Y-159556227D01*
X88543796Y-159580496D01*
X88545000Y-159605000D01*
X88545000Y-161755000D01*
X88543796Y-161779504D01*
X88540196Y-161803773D01*
X88534235Y-161827571D01*
X88525970Y-161850671D01*
X88515480Y-161872849D01*
X88502867Y-161893893D01*
X88488253Y-161913598D01*
X88471777Y-161931777D01*
X88453598Y-161948253D01*
X88433893Y-161962867D01*
X88412849Y-161975480D01*
X88390671Y-161985970D01*
X88367571Y-161994235D01*
X88343773Y-162000196D01*
X88319504Y-162003796D01*
X88295000Y-162005000D01*
X87545000Y-162005000D01*
X87520496Y-162003796D01*
X87496227Y-162000196D01*
X87472429Y-161994235D01*
X87449329Y-161985970D01*
X87427151Y-161975480D01*
X87406107Y-161962867D01*
X87386402Y-161948253D01*
X87368223Y-161931777D01*
X87351747Y-161913598D01*
X87337133Y-161893893D01*
X87324520Y-161872849D01*
X87314030Y-161850671D01*
X87305765Y-161827571D01*
X87299804Y-161803773D01*
X87296204Y-161779504D01*
X87295000Y-161755000D01*
X87295000Y-159605000D01*
X87296204Y-159580496D01*
X87299804Y-159556227D01*
X87305765Y-159532429D01*
X87314030Y-159509329D01*
X87324520Y-159487151D01*
X87337133Y-159466107D01*
X87351747Y-159446402D01*
X87368223Y-159428223D01*
X87386402Y-159411747D01*
X87406107Y-159397133D01*
X87427151Y-159384520D01*
X87449329Y-159374030D01*
X87472429Y-159365765D01*
X87496227Y-159359804D01*
X87520496Y-159356204D01*
X87545000Y-159355000D01*
X88295000Y-159355000D01*
X88319504Y-159356204D01*
X88319504Y-159356204D01*
G37*
D13*
X87920000Y-160680000D03*
G04 #@! TD*
D10*
G04 #@! TO.C,C49*
G36*
X91109504Y-163586204D02*
X91133773Y-163589804D01*
X91157571Y-163595765D01*
X91180671Y-163604030D01*
X91202849Y-163614520D01*
X91223893Y-163627133D01*
X91243598Y-163641747D01*
X91261777Y-163658223D01*
X91278253Y-163676402D01*
X91292867Y-163696107D01*
X91305480Y-163717151D01*
X91315970Y-163739329D01*
X91324235Y-163762429D01*
X91330196Y-163786227D01*
X91333796Y-163810496D01*
X91335000Y-163835000D01*
X91335000Y-165985000D01*
X91333796Y-166009504D01*
X91330196Y-166033773D01*
X91324235Y-166057571D01*
X91315970Y-166080671D01*
X91305480Y-166102849D01*
X91292867Y-166123893D01*
X91278253Y-166143598D01*
X91261777Y-166161777D01*
X91243598Y-166178253D01*
X91223893Y-166192867D01*
X91202849Y-166205480D01*
X91180671Y-166215970D01*
X91157571Y-166224235D01*
X91133773Y-166230196D01*
X91109504Y-166233796D01*
X91085000Y-166235000D01*
X90335000Y-166235000D01*
X90310496Y-166233796D01*
X90286227Y-166230196D01*
X90262429Y-166224235D01*
X90239329Y-166215970D01*
X90217151Y-166205480D01*
X90196107Y-166192867D01*
X90176402Y-166178253D01*
X90158223Y-166161777D01*
X90141747Y-166143598D01*
X90127133Y-166123893D01*
X90114520Y-166102849D01*
X90104030Y-166080671D01*
X90095765Y-166057571D01*
X90089804Y-166033773D01*
X90086204Y-166009504D01*
X90085000Y-165985000D01*
X90085000Y-163835000D01*
X90086204Y-163810496D01*
X90089804Y-163786227D01*
X90095765Y-163762429D01*
X90104030Y-163739329D01*
X90114520Y-163717151D01*
X90127133Y-163696107D01*
X90141747Y-163676402D01*
X90158223Y-163658223D01*
X90176402Y-163641747D01*
X90196107Y-163627133D01*
X90217151Y-163614520D01*
X90239329Y-163604030D01*
X90262429Y-163595765D01*
X90286227Y-163589804D01*
X90310496Y-163586204D01*
X90335000Y-163585000D01*
X91085000Y-163585000D01*
X91109504Y-163586204D01*
X91109504Y-163586204D01*
G37*
D13*
X90710000Y-164910000D03*
D10*
G36*
X88309504Y-163586204D02*
X88333773Y-163589804D01*
X88357571Y-163595765D01*
X88380671Y-163604030D01*
X88402849Y-163614520D01*
X88423893Y-163627133D01*
X88443598Y-163641747D01*
X88461777Y-163658223D01*
X88478253Y-163676402D01*
X88492867Y-163696107D01*
X88505480Y-163717151D01*
X88515970Y-163739329D01*
X88524235Y-163762429D01*
X88530196Y-163786227D01*
X88533796Y-163810496D01*
X88535000Y-163835000D01*
X88535000Y-165985000D01*
X88533796Y-166009504D01*
X88530196Y-166033773D01*
X88524235Y-166057571D01*
X88515970Y-166080671D01*
X88505480Y-166102849D01*
X88492867Y-166123893D01*
X88478253Y-166143598D01*
X88461777Y-166161777D01*
X88443598Y-166178253D01*
X88423893Y-166192867D01*
X88402849Y-166205480D01*
X88380671Y-166215970D01*
X88357571Y-166224235D01*
X88333773Y-166230196D01*
X88309504Y-166233796D01*
X88285000Y-166235000D01*
X87535000Y-166235000D01*
X87510496Y-166233796D01*
X87486227Y-166230196D01*
X87462429Y-166224235D01*
X87439329Y-166215970D01*
X87417151Y-166205480D01*
X87396107Y-166192867D01*
X87376402Y-166178253D01*
X87358223Y-166161777D01*
X87341747Y-166143598D01*
X87327133Y-166123893D01*
X87314520Y-166102849D01*
X87304030Y-166080671D01*
X87295765Y-166057571D01*
X87289804Y-166033773D01*
X87286204Y-166009504D01*
X87285000Y-165985000D01*
X87285000Y-163835000D01*
X87286204Y-163810496D01*
X87289804Y-163786227D01*
X87295765Y-163762429D01*
X87304030Y-163739329D01*
X87314520Y-163717151D01*
X87327133Y-163696107D01*
X87341747Y-163676402D01*
X87358223Y-163658223D01*
X87376402Y-163641747D01*
X87396107Y-163627133D01*
X87417151Y-163614520D01*
X87439329Y-163604030D01*
X87462429Y-163595765D01*
X87486227Y-163589804D01*
X87510496Y-163586204D01*
X87535000Y-163585000D01*
X88285000Y-163585000D01*
X88309504Y-163586204D01*
X88309504Y-163586204D01*
G37*
D13*
X87910000Y-164910000D03*
G04 #@! TD*
D10*
G04 #@! TO.C,C45*
G36*
X112019504Y-155396204D02*
X112043773Y-155399804D01*
X112067571Y-155405765D01*
X112090671Y-155414030D01*
X112112849Y-155424520D01*
X112133893Y-155437133D01*
X112153598Y-155451747D01*
X112171777Y-155468223D01*
X112188253Y-155486402D01*
X112202867Y-155506107D01*
X112215480Y-155527151D01*
X112225970Y-155549329D01*
X112234235Y-155572429D01*
X112240196Y-155596227D01*
X112243796Y-155620496D01*
X112245000Y-155645000D01*
X112245000Y-156395000D01*
X112243796Y-156419504D01*
X112240196Y-156443773D01*
X112234235Y-156467571D01*
X112225970Y-156490671D01*
X112215480Y-156512849D01*
X112202867Y-156533893D01*
X112188253Y-156553598D01*
X112171777Y-156571777D01*
X112153598Y-156588253D01*
X112133893Y-156602867D01*
X112112849Y-156615480D01*
X112090671Y-156625970D01*
X112067571Y-156634235D01*
X112043773Y-156640196D01*
X112019504Y-156643796D01*
X111995000Y-156645000D01*
X109845000Y-156645000D01*
X109820496Y-156643796D01*
X109796227Y-156640196D01*
X109772429Y-156634235D01*
X109749329Y-156625970D01*
X109727151Y-156615480D01*
X109706107Y-156602867D01*
X109686402Y-156588253D01*
X109668223Y-156571777D01*
X109651747Y-156553598D01*
X109637133Y-156533893D01*
X109624520Y-156512849D01*
X109614030Y-156490671D01*
X109605765Y-156467571D01*
X109599804Y-156443773D01*
X109596204Y-156419504D01*
X109595000Y-156395000D01*
X109595000Y-155645000D01*
X109596204Y-155620496D01*
X109599804Y-155596227D01*
X109605765Y-155572429D01*
X109614030Y-155549329D01*
X109624520Y-155527151D01*
X109637133Y-155506107D01*
X109651747Y-155486402D01*
X109668223Y-155468223D01*
X109686402Y-155451747D01*
X109706107Y-155437133D01*
X109727151Y-155424520D01*
X109749329Y-155414030D01*
X109772429Y-155405765D01*
X109796227Y-155399804D01*
X109820496Y-155396204D01*
X109845000Y-155395000D01*
X111995000Y-155395000D01*
X112019504Y-155396204D01*
X112019504Y-155396204D01*
G37*
D13*
X110920000Y-156020000D03*
D10*
G36*
X112019504Y-158196204D02*
X112043773Y-158199804D01*
X112067571Y-158205765D01*
X112090671Y-158214030D01*
X112112849Y-158224520D01*
X112133893Y-158237133D01*
X112153598Y-158251747D01*
X112171777Y-158268223D01*
X112188253Y-158286402D01*
X112202867Y-158306107D01*
X112215480Y-158327151D01*
X112225970Y-158349329D01*
X112234235Y-158372429D01*
X112240196Y-158396227D01*
X112243796Y-158420496D01*
X112245000Y-158445000D01*
X112245000Y-159195000D01*
X112243796Y-159219504D01*
X112240196Y-159243773D01*
X112234235Y-159267571D01*
X112225970Y-159290671D01*
X112215480Y-159312849D01*
X112202867Y-159333893D01*
X112188253Y-159353598D01*
X112171777Y-159371777D01*
X112153598Y-159388253D01*
X112133893Y-159402867D01*
X112112849Y-159415480D01*
X112090671Y-159425970D01*
X112067571Y-159434235D01*
X112043773Y-159440196D01*
X112019504Y-159443796D01*
X111995000Y-159445000D01*
X109845000Y-159445000D01*
X109820496Y-159443796D01*
X109796227Y-159440196D01*
X109772429Y-159434235D01*
X109749329Y-159425970D01*
X109727151Y-159415480D01*
X109706107Y-159402867D01*
X109686402Y-159388253D01*
X109668223Y-159371777D01*
X109651747Y-159353598D01*
X109637133Y-159333893D01*
X109624520Y-159312849D01*
X109614030Y-159290671D01*
X109605765Y-159267571D01*
X109599804Y-159243773D01*
X109596204Y-159219504D01*
X109595000Y-159195000D01*
X109595000Y-158445000D01*
X109596204Y-158420496D01*
X109599804Y-158396227D01*
X109605765Y-158372429D01*
X109614030Y-158349329D01*
X109624520Y-158327151D01*
X109637133Y-158306107D01*
X109651747Y-158286402D01*
X109668223Y-158268223D01*
X109686402Y-158251747D01*
X109706107Y-158237133D01*
X109727151Y-158224520D01*
X109749329Y-158214030D01*
X109772429Y-158205765D01*
X109796227Y-158199804D01*
X109820496Y-158196204D01*
X109845000Y-158195000D01*
X111995000Y-158195000D01*
X112019504Y-158196204D01*
X112019504Y-158196204D01*
G37*
D13*
X110920000Y-158820000D03*
G04 #@! TD*
D10*
G04 #@! TO.C,C37*
G36*
X107879504Y-155406204D02*
X107903773Y-155409804D01*
X107927571Y-155415765D01*
X107950671Y-155424030D01*
X107972849Y-155434520D01*
X107993893Y-155447133D01*
X108013598Y-155461747D01*
X108031777Y-155478223D01*
X108048253Y-155496402D01*
X108062867Y-155516107D01*
X108075480Y-155537151D01*
X108085970Y-155559329D01*
X108094235Y-155582429D01*
X108100196Y-155606227D01*
X108103796Y-155630496D01*
X108105000Y-155655000D01*
X108105000Y-156405000D01*
X108103796Y-156429504D01*
X108100196Y-156453773D01*
X108094235Y-156477571D01*
X108085970Y-156500671D01*
X108075480Y-156522849D01*
X108062867Y-156543893D01*
X108048253Y-156563598D01*
X108031777Y-156581777D01*
X108013598Y-156598253D01*
X107993893Y-156612867D01*
X107972849Y-156625480D01*
X107950671Y-156635970D01*
X107927571Y-156644235D01*
X107903773Y-156650196D01*
X107879504Y-156653796D01*
X107855000Y-156655000D01*
X105705000Y-156655000D01*
X105680496Y-156653796D01*
X105656227Y-156650196D01*
X105632429Y-156644235D01*
X105609329Y-156635970D01*
X105587151Y-156625480D01*
X105566107Y-156612867D01*
X105546402Y-156598253D01*
X105528223Y-156581777D01*
X105511747Y-156563598D01*
X105497133Y-156543893D01*
X105484520Y-156522849D01*
X105474030Y-156500671D01*
X105465765Y-156477571D01*
X105459804Y-156453773D01*
X105456204Y-156429504D01*
X105455000Y-156405000D01*
X105455000Y-155655000D01*
X105456204Y-155630496D01*
X105459804Y-155606227D01*
X105465765Y-155582429D01*
X105474030Y-155559329D01*
X105484520Y-155537151D01*
X105497133Y-155516107D01*
X105511747Y-155496402D01*
X105528223Y-155478223D01*
X105546402Y-155461747D01*
X105566107Y-155447133D01*
X105587151Y-155434520D01*
X105609329Y-155424030D01*
X105632429Y-155415765D01*
X105656227Y-155409804D01*
X105680496Y-155406204D01*
X105705000Y-155405000D01*
X107855000Y-155405000D01*
X107879504Y-155406204D01*
X107879504Y-155406204D01*
G37*
D13*
X106780000Y-156030000D03*
D10*
G36*
X107879504Y-158206204D02*
X107903773Y-158209804D01*
X107927571Y-158215765D01*
X107950671Y-158224030D01*
X107972849Y-158234520D01*
X107993893Y-158247133D01*
X108013598Y-158261747D01*
X108031777Y-158278223D01*
X108048253Y-158296402D01*
X108062867Y-158316107D01*
X108075480Y-158337151D01*
X108085970Y-158359329D01*
X108094235Y-158382429D01*
X108100196Y-158406227D01*
X108103796Y-158430496D01*
X108105000Y-158455000D01*
X108105000Y-159205000D01*
X108103796Y-159229504D01*
X108100196Y-159253773D01*
X108094235Y-159277571D01*
X108085970Y-159300671D01*
X108075480Y-159322849D01*
X108062867Y-159343893D01*
X108048253Y-159363598D01*
X108031777Y-159381777D01*
X108013598Y-159398253D01*
X107993893Y-159412867D01*
X107972849Y-159425480D01*
X107950671Y-159435970D01*
X107927571Y-159444235D01*
X107903773Y-159450196D01*
X107879504Y-159453796D01*
X107855000Y-159455000D01*
X105705000Y-159455000D01*
X105680496Y-159453796D01*
X105656227Y-159450196D01*
X105632429Y-159444235D01*
X105609329Y-159435970D01*
X105587151Y-159425480D01*
X105566107Y-159412867D01*
X105546402Y-159398253D01*
X105528223Y-159381777D01*
X105511747Y-159363598D01*
X105497133Y-159343893D01*
X105484520Y-159322849D01*
X105474030Y-159300671D01*
X105465765Y-159277571D01*
X105459804Y-159253773D01*
X105456204Y-159229504D01*
X105455000Y-159205000D01*
X105455000Y-158455000D01*
X105456204Y-158430496D01*
X105459804Y-158406227D01*
X105465765Y-158382429D01*
X105474030Y-158359329D01*
X105484520Y-158337151D01*
X105497133Y-158316107D01*
X105511747Y-158296402D01*
X105528223Y-158278223D01*
X105546402Y-158261747D01*
X105566107Y-158247133D01*
X105587151Y-158234520D01*
X105609329Y-158224030D01*
X105632429Y-158215765D01*
X105656227Y-158209804D01*
X105680496Y-158206204D01*
X105705000Y-158205000D01*
X107855000Y-158205000D01*
X107879504Y-158206204D01*
X107879504Y-158206204D01*
G37*
D13*
X106780000Y-158830000D03*
G04 #@! TD*
D10*
G04 #@! TO.C,C29*
G36*
X122098017Y-104904815D02*
X122195090Y-104919215D01*
X122290285Y-104943060D01*
X122382683Y-104976120D01*
X122471397Y-105018079D01*
X122555570Y-105068530D01*
X122634393Y-105126990D01*
X122707107Y-105192893D01*
X122773010Y-105265607D01*
X122831470Y-105344430D01*
X122881921Y-105428603D01*
X122923880Y-105517317D01*
X122956940Y-105609715D01*
X122980785Y-105704910D01*
X122995185Y-105801983D01*
X123000000Y-105900000D01*
X123000000Y-115900000D01*
X122995185Y-115998017D01*
X122980785Y-116095090D01*
X122956940Y-116190285D01*
X122923880Y-116282683D01*
X122881921Y-116371397D01*
X122831470Y-116455570D01*
X122773010Y-116534393D01*
X122707107Y-116607107D01*
X122634393Y-116673010D01*
X122555570Y-116731470D01*
X122471397Y-116781921D01*
X122382683Y-116823880D01*
X122290285Y-116856940D01*
X122195090Y-116880785D01*
X122098017Y-116895185D01*
X122000000Y-116900000D01*
X120000000Y-116900000D01*
X119901983Y-116895185D01*
X119804910Y-116880785D01*
X119709715Y-116856940D01*
X119617317Y-116823880D01*
X119528603Y-116781921D01*
X119444430Y-116731470D01*
X119365607Y-116673010D01*
X119292893Y-116607107D01*
X119226990Y-116534393D01*
X119168530Y-116455570D01*
X119118079Y-116371397D01*
X119076120Y-116282683D01*
X119043060Y-116190285D01*
X119019215Y-116095090D01*
X119004815Y-115998017D01*
X119000000Y-115900000D01*
X119000000Y-105900000D01*
X119004815Y-105801983D01*
X119019215Y-105704910D01*
X119043060Y-105609715D01*
X119076120Y-105517317D01*
X119118079Y-105428603D01*
X119168530Y-105344430D01*
X119226990Y-105265607D01*
X119292893Y-105192893D01*
X119365607Y-105126990D01*
X119444430Y-105068530D01*
X119528603Y-105018079D01*
X119617317Y-104976120D01*
X119709715Y-104943060D01*
X119804910Y-104919215D01*
X119901983Y-104904815D01*
X120000000Y-104900000D01*
X122000000Y-104900000D01*
X122098017Y-104904815D01*
X122098017Y-104904815D01*
G37*
D14*
X121000000Y-110900000D03*
D10*
G36*
X104098017Y-104904815D02*
X104195090Y-104919215D01*
X104290285Y-104943060D01*
X104382683Y-104976120D01*
X104471397Y-105018079D01*
X104555570Y-105068530D01*
X104634393Y-105126990D01*
X104707107Y-105192893D01*
X104773010Y-105265607D01*
X104831470Y-105344430D01*
X104881921Y-105428603D01*
X104923880Y-105517317D01*
X104956940Y-105609715D01*
X104980785Y-105704910D01*
X104995185Y-105801983D01*
X105000000Y-105900000D01*
X105000000Y-115900000D01*
X104995185Y-115998017D01*
X104980785Y-116095090D01*
X104956940Y-116190285D01*
X104923880Y-116282683D01*
X104881921Y-116371397D01*
X104831470Y-116455570D01*
X104773010Y-116534393D01*
X104707107Y-116607107D01*
X104634393Y-116673010D01*
X104555570Y-116731470D01*
X104471397Y-116781921D01*
X104382683Y-116823880D01*
X104290285Y-116856940D01*
X104195090Y-116880785D01*
X104098017Y-116895185D01*
X104000000Y-116900000D01*
X102000000Y-116900000D01*
X101901983Y-116895185D01*
X101804910Y-116880785D01*
X101709715Y-116856940D01*
X101617317Y-116823880D01*
X101528603Y-116781921D01*
X101444430Y-116731470D01*
X101365607Y-116673010D01*
X101292893Y-116607107D01*
X101226990Y-116534393D01*
X101168530Y-116455570D01*
X101118079Y-116371397D01*
X101076120Y-116282683D01*
X101043060Y-116190285D01*
X101019215Y-116095090D01*
X101004815Y-115998017D01*
X101000000Y-115900000D01*
X101000000Y-105900000D01*
X101004815Y-105801983D01*
X101019215Y-105704910D01*
X101043060Y-105609715D01*
X101076120Y-105517317D01*
X101118079Y-105428603D01*
X101168530Y-105344430D01*
X101226990Y-105265607D01*
X101292893Y-105192893D01*
X101365607Y-105126990D01*
X101444430Y-105068530D01*
X101528603Y-105018079D01*
X101617317Y-104976120D01*
X101709715Y-104943060D01*
X101804910Y-104919215D01*
X101901983Y-104904815D01*
X102000000Y-104900000D01*
X104000000Y-104900000D01*
X104098017Y-104904815D01*
X104098017Y-104904815D01*
G37*
D14*
X103000000Y-110900000D03*
G04 #@! TD*
D10*
G04 #@! TO.C,C42*
G36*
X107199504Y-150826204D02*
X107223773Y-150829804D01*
X107247571Y-150835765D01*
X107270671Y-150844030D01*
X107292849Y-150854520D01*
X107313893Y-150867133D01*
X107333598Y-150881747D01*
X107351777Y-150898223D01*
X107368253Y-150916402D01*
X107382867Y-150936107D01*
X107395480Y-150957151D01*
X107405970Y-150979329D01*
X107414235Y-151002429D01*
X107420196Y-151026227D01*
X107423796Y-151050496D01*
X107425000Y-151075000D01*
X107425000Y-153125000D01*
X107423796Y-153149504D01*
X107420196Y-153173773D01*
X107414235Y-153197571D01*
X107405970Y-153220671D01*
X107395480Y-153242849D01*
X107382867Y-153263893D01*
X107368253Y-153283598D01*
X107351777Y-153301777D01*
X107333598Y-153318253D01*
X107313893Y-153332867D01*
X107292849Y-153345480D01*
X107270671Y-153355970D01*
X107247571Y-153364235D01*
X107223773Y-153370196D01*
X107199504Y-153373796D01*
X107175000Y-153375000D01*
X105600000Y-153375000D01*
X105575496Y-153373796D01*
X105551227Y-153370196D01*
X105527429Y-153364235D01*
X105504329Y-153355970D01*
X105482151Y-153345480D01*
X105461107Y-153332867D01*
X105441402Y-153318253D01*
X105423223Y-153301777D01*
X105406747Y-153283598D01*
X105392133Y-153263893D01*
X105379520Y-153242849D01*
X105369030Y-153220671D01*
X105360765Y-153197571D01*
X105354804Y-153173773D01*
X105351204Y-153149504D01*
X105350000Y-153125000D01*
X105350000Y-151075000D01*
X105351204Y-151050496D01*
X105354804Y-151026227D01*
X105360765Y-151002429D01*
X105369030Y-150979329D01*
X105379520Y-150957151D01*
X105392133Y-150936107D01*
X105406747Y-150916402D01*
X105423223Y-150898223D01*
X105441402Y-150881747D01*
X105461107Y-150867133D01*
X105482151Y-150854520D01*
X105504329Y-150844030D01*
X105527429Y-150835765D01*
X105551227Y-150829804D01*
X105575496Y-150826204D01*
X105600000Y-150825000D01*
X107175000Y-150825000D01*
X107199504Y-150826204D01*
X107199504Y-150826204D01*
G37*
D11*
X106387500Y-152100000D03*
D10*
G36*
X113424504Y-150826204D02*
X113448773Y-150829804D01*
X113472571Y-150835765D01*
X113495671Y-150844030D01*
X113517849Y-150854520D01*
X113538893Y-150867133D01*
X113558598Y-150881747D01*
X113576777Y-150898223D01*
X113593253Y-150916402D01*
X113607867Y-150936107D01*
X113620480Y-150957151D01*
X113630970Y-150979329D01*
X113639235Y-151002429D01*
X113645196Y-151026227D01*
X113648796Y-151050496D01*
X113650000Y-151075000D01*
X113650000Y-153125000D01*
X113648796Y-153149504D01*
X113645196Y-153173773D01*
X113639235Y-153197571D01*
X113630970Y-153220671D01*
X113620480Y-153242849D01*
X113607867Y-153263893D01*
X113593253Y-153283598D01*
X113576777Y-153301777D01*
X113558598Y-153318253D01*
X113538893Y-153332867D01*
X113517849Y-153345480D01*
X113495671Y-153355970D01*
X113472571Y-153364235D01*
X113448773Y-153370196D01*
X113424504Y-153373796D01*
X113400000Y-153375000D01*
X111825000Y-153375000D01*
X111800496Y-153373796D01*
X111776227Y-153370196D01*
X111752429Y-153364235D01*
X111729329Y-153355970D01*
X111707151Y-153345480D01*
X111686107Y-153332867D01*
X111666402Y-153318253D01*
X111648223Y-153301777D01*
X111631747Y-153283598D01*
X111617133Y-153263893D01*
X111604520Y-153242849D01*
X111594030Y-153220671D01*
X111585765Y-153197571D01*
X111579804Y-153173773D01*
X111576204Y-153149504D01*
X111575000Y-153125000D01*
X111575000Y-151075000D01*
X111576204Y-151050496D01*
X111579804Y-151026227D01*
X111585765Y-151002429D01*
X111594030Y-150979329D01*
X111604520Y-150957151D01*
X111617133Y-150936107D01*
X111631747Y-150916402D01*
X111648223Y-150898223D01*
X111666402Y-150881747D01*
X111686107Y-150867133D01*
X111707151Y-150854520D01*
X111729329Y-150844030D01*
X111752429Y-150835765D01*
X111776227Y-150829804D01*
X111800496Y-150826204D01*
X111825000Y-150825000D01*
X113400000Y-150825000D01*
X113424504Y-150826204D01*
X113424504Y-150826204D01*
G37*
D11*
X112612500Y-152100000D03*
G04 #@! TD*
D10*
G04 #@! TO.C,C39*
G36*
X107199504Y-145926204D02*
X107223773Y-145929804D01*
X107247571Y-145935765D01*
X107270671Y-145944030D01*
X107292849Y-145954520D01*
X107313893Y-145967133D01*
X107333598Y-145981747D01*
X107351777Y-145998223D01*
X107368253Y-146016402D01*
X107382867Y-146036107D01*
X107395480Y-146057151D01*
X107405970Y-146079329D01*
X107414235Y-146102429D01*
X107420196Y-146126227D01*
X107423796Y-146150496D01*
X107425000Y-146175000D01*
X107425000Y-148225000D01*
X107423796Y-148249504D01*
X107420196Y-148273773D01*
X107414235Y-148297571D01*
X107405970Y-148320671D01*
X107395480Y-148342849D01*
X107382867Y-148363893D01*
X107368253Y-148383598D01*
X107351777Y-148401777D01*
X107333598Y-148418253D01*
X107313893Y-148432867D01*
X107292849Y-148445480D01*
X107270671Y-148455970D01*
X107247571Y-148464235D01*
X107223773Y-148470196D01*
X107199504Y-148473796D01*
X107175000Y-148475000D01*
X105600000Y-148475000D01*
X105575496Y-148473796D01*
X105551227Y-148470196D01*
X105527429Y-148464235D01*
X105504329Y-148455970D01*
X105482151Y-148445480D01*
X105461107Y-148432867D01*
X105441402Y-148418253D01*
X105423223Y-148401777D01*
X105406747Y-148383598D01*
X105392133Y-148363893D01*
X105379520Y-148342849D01*
X105369030Y-148320671D01*
X105360765Y-148297571D01*
X105354804Y-148273773D01*
X105351204Y-148249504D01*
X105350000Y-148225000D01*
X105350000Y-146175000D01*
X105351204Y-146150496D01*
X105354804Y-146126227D01*
X105360765Y-146102429D01*
X105369030Y-146079329D01*
X105379520Y-146057151D01*
X105392133Y-146036107D01*
X105406747Y-146016402D01*
X105423223Y-145998223D01*
X105441402Y-145981747D01*
X105461107Y-145967133D01*
X105482151Y-145954520D01*
X105504329Y-145944030D01*
X105527429Y-145935765D01*
X105551227Y-145929804D01*
X105575496Y-145926204D01*
X105600000Y-145925000D01*
X107175000Y-145925000D01*
X107199504Y-145926204D01*
X107199504Y-145926204D01*
G37*
D11*
X106387500Y-147200000D03*
D10*
G36*
X113424504Y-145926204D02*
X113448773Y-145929804D01*
X113472571Y-145935765D01*
X113495671Y-145944030D01*
X113517849Y-145954520D01*
X113538893Y-145967133D01*
X113558598Y-145981747D01*
X113576777Y-145998223D01*
X113593253Y-146016402D01*
X113607867Y-146036107D01*
X113620480Y-146057151D01*
X113630970Y-146079329D01*
X113639235Y-146102429D01*
X113645196Y-146126227D01*
X113648796Y-146150496D01*
X113650000Y-146175000D01*
X113650000Y-148225000D01*
X113648796Y-148249504D01*
X113645196Y-148273773D01*
X113639235Y-148297571D01*
X113630970Y-148320671D01*
X113620480Y-148342849D01*
X113607867Y-148363893D01*
X113593253Y-148383598D01*
X113576777Y-148401777D01*
X113558598Y-148418253D01*
X113538893Y-148432867D01*
X113517849Y-148445480D01*
X113495671Y-148455970D01*
X113472571Y-148464235D01*
X113448773Y-148470196D01*
X113424504Y-148473796D01*
X113400000Y-148475000D01*
X111825000Y-148475000D01*
X111800496Y-148473796D01*
X111776227Y-148470196D01*
X111752429Y-148464235D01*
X111729329Y-148455970D01*
X111707151Y-148445480D01*
X111686107Y-148432867D01*
X111666402Y-148418253D01*
X111648223Y-148401777D01*
X111631747Y-148383598D01*
X111617133Y-148363893D01*
X111604520Y-148342849D01*
X111594030Y-148320671D01*
X111585765Y-148297571D01*
X111579804Y-148273773D01*
X111576204Y-148249504D01*
X111575000Y-148225000D01*
X111575000Y-146175000D01*
X111576204Y-146150496D01*
X111579804Y-146126227D01*
X111585765Y-146102429D01*
X111594030Y-146079329D01*
X111604520Y-146057151D01*
X111617133Y-146036107D01*
X111631747Y-146016402D01*
X111648223Y-145998223D01*
X111666402Y-145981747D01*
X111686107Y-145967133D01*
X111707151Y-145954520D01*
X111729329Y-145944030D01*
X111752429Y-145935765D01*
X111776227Y-145929804D01*
X111800496Y-145926204D01*
X111825000Y-145925000D01*
X113400000Y-145925000D01*
X113424504Y-145926204D01*
X113424504Y-145926204D01*
G37*
D11*
X112612500Y-147200000D03*
G04 #@! TD*
D10*
G04 #@! TO.C,C28*
G36*
X111924504Y-133526204D02*
X111948773Y-133529804D01*
X111972571Y-133535765D01*
X111995671Y-133544030D01*
X112017849Y-133554520D01*
X112038893Y-133567133D01*
X112058598Y-133581747D01*
X112076777Y-133598223D01*
X112093253Y-133616402D01*
X112107867Y-133636107D01*
X112120480Y-133657151D01*
X112130970Y-133679329D01*
X112139235Y-133702429D01*
X112145196Y-133726227D01*
X112148796Y-133750496D01*
X112150000Y-133775000D01*
X112150000Y-135825000D01*
X112148796Y-135849504D01*
X112145196Y-135873773D01*
X112139235Y-135897571D01*
X112130970Y-135920671D01*
X112120480Y-135942849D01*
X112107867Y-135963893D01*
X112093253Y-135983598D01*
X112076777Y-136001777D01*
X112058598Y-136018253D01*
X112038893Y-136032867D01*
X112017849Y-136045480D01*
X111995671Y-136055970D01*
X111972571Y-136064235D01*
X111948773Y-136070196D01*
X111924504Y-136073796D01*
X111900000Y-136075000D01*
X110325000Y-136075000D01*
X110300496Y-136073796D01*
X110276227Y-136070196D01*
X110252429Y-136064235D01*
X110229329Y-136055970D01*
X110207151Y-136045480D01*
X110186107Y-136032867D01*
X110166402Y-136018253D01*
X110148223Y-136001777D01*
X110131747Y-135983598D01*
X110117133Y-135963893D01*
X110104520Y-135942849D01*
X110094030Y-135920671D01*
X110085765Y-135897571D01*
X110079804Y-135873773D01*
X110076204Y-135849504D01*
X110075000Y-135825000D01*
X110075000Y-133775000D01*
X110076204Y-133750496D01*
X110079804Y-133726227D01*
X110085765Y-133702429D01*
X110094030Y-133679329D01*
X110104520Y-133657151D01*
X110117133Y-133636107D01*
X110131747Y-133616402D01*
X110148223Y-133598223D01*
X110166402Y-133581747D01*
X110186107Y-133567133D01*
X110207151Y-133554520D01*
X110229329Y-133544030D01*
X110252429Y-133535765D01*
X110276227Y-133529804D01*
X110300496Y-133526204D01*
X110325000Y-133525000D01*
X111900000Y-133525000D01*
X111924504Y-133526204D01*
X111924504Y-133526204D01*
G37*
D11*
X111112500Y-134800000D03*
D10*
G36*
X105699504Y-133526204D02*
X105723773Y-133529804D01*
X105747571Y-133535765D01*
X105770671Y-133544030D01*
X105792849Y-133554520D01*
X105813893Y-133567133D01*
X105833598Y-133581747D01*
X105851777Y-133598223D01*
X105868253Y-133616402D01*
X105882867Y-133636107D01*
X105895480Y-133657151D01*
X105905970Y-133679329D01*
X105914235Y-133702429D01*
X105920196Y-133726227D01*
X105923796Y-133750496D01*
X105925000Y-133775000D01*
X105925000Y-135825000D01*
X105923796Y-135849504D01*
X105920196Y-135873773D01*
X105914235Y-135897571D01*
X105905970Y-135920671D01*
X105895480Y-135942849D01*
X105882867Y-135963893D01*
X105868253Y-135983598D01*
X105851777Y-136001777D01*
X105833598Y-136018253D01*
X105813893Y-136032867D01*
X105792849Y-136045480D01*
X105770671Y-136055970D01*
X105747571Y-136064235D01*
X105723773Y-136070196D01*
X105699504Y-136073796D01*
X105675000Y-136075000D01*
X104100000Y-136075000D01*
X104075496Y-136073796D01*
X104051227Y-136070196D01*
X104027429Y-136064235D01*
X104004329Y-136055970D01*
X103982151Y-136045480D01*
X103961107Y-136032867D01*
X103941402Y-136018253D01*
X103923223Y-136001777D01*
X103906747Y-135983598D01*
X103892133Y-135963893D01*
X103879520Y-135942849D01*
X103869030Y-135920671D01*
X103860765Y-135897571D01*
X103854804Y-135873773D01*
X103851204Y-135849504D01*
X103850000Y-135825000D01*
X103850000Y-133775000D01*
X103851204Y-133750496D01*
X103854804Y-133726227D01*
X103860765Y-133702429D01*
X103869030Y-133679329D01*
X103879520Y-133657151D01*
X103892133Y-133636107D01*
X103906747Y-133616402D01*
X103923223Y-133598223D01*
X103941402Y-133581747D01*
X103961107Y-133567133D01*
X103982151Y-133554520D01*
X104004329Y-133544030D01*
X104027429Y-133535765D01*
X104051227Y-133529804D01*
X104075496Y-133526204D01*
X104100000Y-133525000D01*
X105675000Y-133525000D01*
X105699504Y-133526204D01*
X105699504Y-133526204D01*
G37*
D11*
X104887500Y-134800000D03*
G04 #@! TD*
D10*
G04 #@! TO.C,C25*
G36*
X111924504Y-138426204D02*
X111948773Y-138429804D01*
X111972571Y-138435765D01*
X111995671Y-138444030D01*
X112017849Y-138454520D01*
X112038893Y-138467133D01*
X112058598Y-138481747D01*
X112076777Y-138498223D01*
X112093253Y-138516402D01*
X112107867Y-138536107D01*
X112120480Y-138557151D01*
X112130970Y-138579329D01*
X112139235Y-138602429D01*
X112145196Y-138626227D01*
X112148796Y-138650496D01*
X112150000Y-138675000D01*
X112150000Y-140725000D01*
X112148796Y-140749504D01*
X112145196Y-140773773D01*
X112139235Y-140797571D01*
X112130970Y-140820671D01*
X112120480Y-140842849D01*
X112107867Y-140863893D01*
X112093253Y-140883598D01*
X112076777Y-140901777D01*
X112058598Y-140918253D01*
X112038893Y-140932867D01*
X112017849Y-140945480D01*
X111995671Y-140955970D01*
X111972571Y-140964235D01*
X111948773Y-140970196D01*
X111924504Y-140973796D01*
X111900000Y-140975000D01*
X110325000Y-140975000D01*
X110300496Y-140973796D01*
X110276227Y-140970196D01*
X110252429Y-140964235D01*
X110229329Y-140955970D01*
X110207151Y-140945480D01*
X110186107Y-140932867D01*
X110166402Y-140918253D01*
X110148223Y-140901777D01*
X110131747Y-140883598D01*
X110117133Y-140863893D01*
X110104520Y-140842849D01*
X110094030Y-140820671D01*
X110085765Y-140797571D01*
X110079804Y-140773773D01*
X110076204Y-140749504D01*
X110075000Y-140725000D01*
X110075000Y-138675000D01*
X110076204Y-138650496D01*
X110079804Y-138626227D01*
X110085765Y-138602429D01*
X110094030Y-138579329D01*
X110104520Y-138557151D01*
X110117133Y-138536107D01*
X110131747Y-138516402D01*
X110148223Y-138498223D01*
X110166402Y-138481747D01*
X110186107Y-138467133D01*
X110207151Y-138454520D01*
X110229329Y-138444030D01*
X110252429Y-138435765D01*
X110276227Y-138429804D01*
X110300496Y-138426204D01*
X110325000Y-138425000D01*
X111900000Y-138425000D01*
X111924504Y-138426204D01*
X111924504Y-138426204D01*
G37*
D11*
X111112500Y-139700000D03*
D10*
G36*
X105699504Y-138426204D02*
X105723773Y-138429804D01*
X105747571Y-138435765D01*
X105770671Y-138444030D01*
X105792849Y-138454520D01*
X105813893Y-138467133D01*
X105833598Y-138481747D01*
X105851777Y-138498223D01*
X105868253Y-138516402D01*
X105882867Y-138536107D01*
X105895480Y-138557151D01*
X105905970Y-138579329D01*
X105914235Y-138602429D01*
X105920196Y-138626227D01*
X105923796Y-138650496D01*
X105925000Y-138675000D01*
X105925000Y-140725000D01*
X105923796Y-140749504D01*
X105920196Y-140773773D01*
X105914235Y-140797571D01*
X105905970Y-140820671D01*
X105895480Y-140842849D01*
X105882867Y-140863893D01*
X105868253Y-140883598D01*
X105851777Y-140901777D01*
X105833598Y-140918253D01*
X105813893Y-140932867D01*
X105792849Y-140945480D01*
X105770671Y-140955970D01*
X105747571Y-140964235D01*
X105723773Y-140970196D01*
X105699504Y-140973796D01*
X105675000Y-140975000D01*
X104100000Y-140975000D01*
X104075496Y-140973796D01*
X104051227Y-140970196D01*
X104027429Y-140964235D01*
X104004329Y-140955970D01*
X103982151Y-140945480D01*
X103961107Y-140932867D01*
X103941402Y-140918253D01*
X103923223Y-140901777D01*
X103906747Y-140883598D01*
X103892133Y-140863893D01*
X103879520Y-140842849D01*
X103869030Y-140820671D01*
X103860765Y-140797571D01*
X103854804Y-140773773D01*
X103851204Y-140749504D01*
X103850000Y-140725000D01*
X103850000Y-138675000D01*
X103851204Y-138650496D01*
X103854804Y-138626227D01*
X103860765Y-138602429D01*
X103869030Y-138579329D01*
X103879520Y-138557151D01*
X103892133Y-138536107D01*
X103906747Y-138516402D01*
X103923223Y-138498223D01*
X103941402Y-138481747D01*
X103961107Y-138467133D01*
X103982151Y-138454520D01*
X104004329Y-138444030D01*
X104027429Y-138435765D01*
X104051227Y-138429804D01*
X104075496Y-138426204D01*
X104100000Y-138425000D01*
X105675000Y-138425000D01*
X105699504Y-138426204D01*
X105699504Y-138426204D01*
G37*
D11*
X104887500Y-139700000D03*
G04 #@! TD*
D10*
G04 #@! TO.C,C19*
G36*
X108099504Y-123226204D02*
X108123773Y-123229804D01*
X108147571Y-123235765D01*
X108170671Y-123244030D01*
X108192849Y-123254520D01*
X108213893Y-123267133D01*
X108233598Y-123281747D01*
X108251777Y-123298223D01*
X108268253Y-123316402D01*
X108282867Y-123336107D01*
X108295480Y-123357151D01*
X108305970Y-123379329D01*
X108314235Y-123402429D01*
X108320196Y-123426227D01*
X108323796Y-123450496D01*
X108325000Y-123475000D01*
X108325000Y-125525000D01*
X108323796Y-125549504D01*
X108320196Y-125573773D01*
X108314235Y-125597571D01*
X108305970Y-125620671D01*
X108295480Y-125642849D01*
X108282867Y-125663893D01*
X108268253Y-125683598D01*
X108251777Y-125701777D01*
X108233598Y-125718253D01*
X108213893Y-125732867D01*
X108192849Y-125745480D01*
X108170671Y-125755970D01*
X108147571Y-125764235D01*
X108123773Y-125770196D01*
X108099504Y-125773796D01*
X108075000Y-125775000D01*
X106500000Y-125775000D01*
X106475496Y-125773796D01*
X106451227Y-125770196D01*
X106427429Y-125764235D01*
X106404329Y-125755970D01*
X106382151Y-125745480D01*
X106361107Y-125732867D01*
X106341402Y-125718253D01*
X106323223Y-125701777D01*
X106306747Y-125683598D01*
X106292133Y-125663893D01*
X106279520Y-125642849D01*
X106269030Y-125620671D01*
X106260765Y-125597571D01*
X106254804Y-125573773D01*
X106251204Y-125549504D01*
X106250000Y-125525000D01*
X106250000Y-123475000D01*
X106251204Y-123450496D01*
X106254804Y-123426227D01*
X106260765Y-123402429D01*
X106269030Y-123379329D01*
X106279520Y-123357151D01*
X106292133Y-123336107D01*
X106306747Y-123316402D01*
X106323223Y-123298223D01*
X106341402Y-123281747D01*
X106361107Y-123267133D01*
X106382151Y-123254520D01*
X106404329Y-123244030D01*
X106427429Y-123235765D01*
X106451227Y-123229804D01*
X106475496Y-123226204D01*
X106500000Y-123225000D01*
X108075000Y-123225000D01*
X108099504Y-123226204D01*
X108099504Y-123226204D01*
G37*
D11*
X107287500Y-124500000D03*
D10*
G36*
X114324504Y-123226204D02*
X114348773Y-123229804D01*
X114372571Y-123235765D01*
X114395671Y-123244030D01*
X114417849Y-123254520D01*
X114438893Y-123267133D01*
X114458598Y-123281747D01*
X114476777Y-123298223D01*
X114493253Y-123316402D01*
X114507867Y-123336107D01*
X114520480Y-123357151D01*
X114530970Y-123379329D01*
X114539235Y-123402429D01*
X114545196Y-123426227D01*
X114548796Y-123450496D01*
X114550000Y-123475000D01*
X114550000Y-125525000D01*
X114548796Y-125549504D01*
X114545196Y-125573773D01*
X114539235Y-125597571D01*
X114530970Y-125620671D01*
X114520480Y-125642849D01*
X114507867Y-125663893D01*
X114493253Y-125683598D01*
X114476777Y-125701777D01*
X114458598Y-125718253D01*
X114438893Y-125732867D01*
X114417849Y-125745480D01*
X114395671Y-125755970D01*
X114372571Y-125764235D01*
X114348773Y-125770196D01*
X114324504Y-125773796D01*
X114300000Y-125775000D01*
X112725000Y-125775000D01*
X112700496Y-125773796D01*
X112676227Y-125770196D01*
X112652429Y-125764235D01*
X112629329Y-125755970D01*
X112607151Y-125745480D01*
X112586107Y-125732867D01*
X112566402Y-125718253D01*
X112548223Y-125701777D01*
X112531747Y-125683598D01*
X112517133Y-125663893D01*
X112504520Y-125642849D01*
X112494030Y-125620671D01*
X112485765Y-125597571D01*
X112479804Y-125573773D01*
X112476204Y-125549504D01*
X112475000Y-125525000D01*
X112475000Y-123475000D01*
X112476204Y-123450496D01*
X112479804Y-123426227D01*
X112485765Y-123402429D01*
X112494030Y-123379329D01*
X112504520Y-123357151D01*
X112517133Y-123336107D01*
X112531747Y-123316402D01*
X112548223Y-123298223D01*
X112566402Y-123281747D01*
X112586107Y-123267133D01*
X112607151Y-123254520D01*
X112629329Y-123244030D01*
X112652429Y-123235765D01*
X112676227Y-123229804D01*
X112700496Y-123226204D01*
X112725000Y-123225000D01*
X114300000Y-123225000D01*
X114324504Y-123226204D01*
X114324504Y-123226204D01*
G37*
D11*
X113512500Y-124500000D03*
G04 #@! TD*
D10*
G04 #@! TO.C,C18*
G36*
X108099504Y-128226204D02*
X108123773Y-128229804D01*
X108147571Y-128235765D01*
X108170671Y-128244030D01*
X108192849Y-128254520D01*
X108213893Y-128267133D01*
X108233598Y-128281747D01*
X108251777Y-128298223D01*
X108268253Y-128316402D01*
X108282867Y-128336107D01*
X108295480Y-128357151D01*
X108305970Y-128379329D01*
X108314235Y-128402429D01*
X108320196Y-128426227D01*
X108323796Y-128450496D01*
X108325000Y-128475000D01*
X108325000Y-130525000D01*
X108323796Y-130549504D01*
X108320196Y-130573773D01*
X108314235Y-130597571D01*
X108305970Y-130620671D01*
X108295480Y-130642849D01*
X108282867Y-130663893D01*
X108268253Y-130683598D01*
X108251777Y-130701777D01*
X108233598Y-130718253D01*
X108213893Y-130732867D01*
X108192849Y-130745480D01*
X108170671Y-130755970D01*
X108147571Y-130764235D01*
X108123773Y-130770196D01*
X108099504Y-130773796D01*
X108075000Y-130775000D01*
X106500000Y-130775000D01*
X106475496Y-130773796D01*
X106451227Y-130770196D01*
X106427429Y-130764235D01*
X106404329Y-130755970D01*
X106382151Y-130745480D01*
X106361107Y-130732867D01*
X106341402Y-130718253D01*
X106323223Y-130701777D01*
X106306747Y-130683598D01*
X106292133Y-130663893D01*
X106279520Y-130642849D01*
X106269030Y-130620671D01*
X106260765Y-130597571D01*
X106254804Y-130573773D01*
X106251204Y-130549504D01*
X106250000Y-130525000D01*
X106250000Y-128475000D01*
X106251204Y-128450496D01*
X106254804Y-128426227D01*
X106260765Y-128402429D01*
X106269030Y-128379329D01*
X106279520Y-128357151D01*
X106292133Y-128336107D01*
X106306747Y-128316402D01*
X106323223Y-128298223D01*
X106341402Y-128281747D01*
X106361107Y-128267133D01*
X106382151Y-128254520D01*
X106404329Y-128244030D01*
X106427429Y-128235765D01*
X106451227Y-128229804D01*
X106475496Y-128226204D01*
X106500000Y-128225000D01*
X108075000Y-128225000D01*
X108099504Y-128226204D01*
X108099504Y-128226204D01*
G37*
D11*
X107287500Y-129500000D03*
D10*
G36*
X114324504Y-128226204D02*
X114348773Y-128229804D01*
X114372571Y-128235765D01*
X114395671Y-128244030D01*
X114417849Y-128254520D01*
X114438893Y-128267133D01*
X114458598Y-128281747D01*
X114476777Y-128298223D01*
X114493253Y-128316402D01*
X114507867Y-128336107D01*
X114520480Y-128357151D01*
X114530970Y-128379329D01*
X114539235Y-128402429D01*
X114545196Y-128426227D01*
X114548796Y-128450496D01*
X114550000Y-128475000D01*
X114550000Y-130525000D01*
X114548796Y-130549504D01*
X114545196Y-130573773D01*
X114539235Y-130597571D01*
X114530970Y-130620671D01*
X114520480Y-130642849D01*
X114507867Y-130663893D01*
X114493253Y-130683598D01*
X114476777Y-130701777D01*
X114458598Y-130718253D01*
X114438893Y-130732867D01*
X114417849Y-130745480D01*
X114395671Y-130755970D01*
X114372571Y-130764235D01*
X114348773Y-130770196D01*
X114324504Y-130773796D01*
X114300000Y-130775000D01*
X112725000Y-130775000D01*
X112700496Y-130773796D01*
X112676227Y-130770196D01*
X112652429Y-130764235D01*
X112629329Y-130755970D01*
X112607151Y-130745480D01*
X112586107Y-130732867D01*
X112566402Y-130718253D01*
X112548223Y-130701777D01*
X112531747Y-130683598D01*
X112517133Y-130663893D01*
X112504520Y-130642849D01*
X112494030Y-130620671D01*
X112485765Y-130597571D01*
X112479804Y-130573773D01*
X112476204Y-130549504D01*
X112475000Y-130525000D01*
X112475000Y-128475000D01*
X112476204Y-128450496D01*
X112479804Y-128426227D01*
X112485765Y-128402429D01*
X112494030Y-128379329D01*
X112504520Y-128357151D01*
X112517133Y-128336107D01*
X112531747Y-128316402D01*
X112548223Y-128298223D01*
X112566402Y-128281747D01*
X112586107Y-128267133D01*
X112607151Y-128254520D01*
X112629329Y-128244030D01*
X112652429Y-128235765D01*
X112676227Y-128229804D01*
X112700496Y-128226204D01*
X112725000Y-128225000D01*
X114300000Y-128225000D01*
X114324504Y-128226204D01*
X114324504Y-128226204D01*
G37*
D11*
X113512500Y-129500000D03*
G04 #@! TD*
D10*
G04 #@! TO.C,C16*
G36*
X64977691Y-102851053D02*
X64998926Y-102854203D01*
X65019750Y-102859419D01*
X65039962Y-102866651D01*
X65059368Y-102875830D01*
X65077781Y-102886866D01*
X65095024Y-102899654D01*
X65110930Y-102914070D01*
X65125346Y-102929976D01*
X65138134Y-102947219D01*
X65149170Y-102965632D01*
X65158349Y-102985038D01*
X65165581Y-103005250D01*
X65170797Y-103026074D01*
X65173947Y-103047309D01*
X65175000Y-103068750D01*
X65175000Y-103506250D01*
X65173947Y-103527691D01*
X65170797Y-103548926D01*
X65165581Y-103569750D01*
X65158349Y-103589962D01*
X65149170Y-103609368D01*
X65138134Y-103627781D01*
X65125346Y-103645024D01*
X65110930Y-103660930D01*
X65095024Y-103675346D01*
X65077781Y-103688134D01*
X65059368Y-103699170D01*
X65039962Y-103708349D01*
X65019750Y-103715581D01*
X64998926Y-103720797D01*
X64977691Y-103723947D01*
X64956250Y-103725000D01*
X64443750Y-103725000D01*
X64422309Y-103723947D01*
X64401074Y-103720797D01*
X64380250Y-103715581D01*
X64360038Y-103708349D01*
X64340632Y-103699170D01*
X64322219Y-103688134D01*
X64304976Y-103675346D01*
X64289070Y-103660930D01*
X64274654Y-103645024D01*
X64261866Y-103627781D01*
X64250830Y-103609368D01*
X64241651Y-103589962D01*
X64234419Y-103569750D01*
X64229203Y-103548926D01*
X64226053Y-103527691D01*
X64225000Y-103506250D01*
X64225000Y-103068750D01*
X64226053Y-103047309D01*
X64229203Y-103026074D01*
X64234419Y-103005250D01*
X64241651Y-102985038D01*
X64250830Y-102965632D01*
X64261866Y-102947219D01*
X64274654Y-102929976D01*
X64289070Y-102914070D01*
X64304976Y-102899654D01*
X64322219Y-102886866D01*
X64340632Y-102875830D01*
X64360038Y-102866651D01*
X64380250Y-102859419D01*
X64401074Y-102854203D01*
X64422309Y-102851053D01*
X64443750Y-102850000D01*
X64956250Y-102850000D01*
X64977691Y-102851053D01*
X64977691Y-102851053D01*
G37*
D12*
X64700000Y-103287500D03*
D10*
G36*
X64977691Y-101276053D02*
X64998926Y-101279203D01*
X65019750Y-101284419D01*
X65039962Y-101291651D01*
X65059368Y-101300830D01*
X65077781Y-101311866D01*
X65095024Y-101324654D01*
X65110930Y-101339070D01*
X65125346Y-101354976D01*
X65138134Y-101372219D01*
X65149170Y-101390632D01*
X65158349Y-101410038D01*
X65165581Y-101430250D01*
X65170797Y-101451074D01*
X65173947Y-101472309D01*
X65175000Y-101493750D01*
X65175000Y-101931250D01*
X65173947Y-101952691D01*
X65170797Y-101973926D01*
X65165581Y-101994750D01*
X65158349Y-102014962D01*
X65149170Y-102034368D01*
X65138134Y-102052781D01*
X65125346Y-102070024D01*
X65110930Y-102085930D01*
X65095024Y-102100346D01*
X65077781Y-102113134D01*
X65059368Y-102124170D01*
X65039962Y-102133349D01*
X65019750Y-102140581D01*
X64998926Y-102145797D01*
X64977691Y-102148947D01*
X64956250Y-102150000D01*
X64443750Y-102150000D01*
X64422309Y-102148947D01*
X64401074Y-102145797D01*
X64380250Y-102140581D01*
X64360038Y-102133349D01*
X64340632Y-102124170D01*
X64322219Y-102113134D01*
X64304976Y-102100346D01*
X64289070Y-102085930D01*
X64274654Y-102070024D01*
X64261866Y-102052781D01*
X64250830Y-102034368D01*
X64241651Y-102014962D01*
X64234419Y-101994750D01*
X64229203Y-101973926D01*
X64226053Y-101952691D01*
X64225000Y-101931250D01*
X64225000Y-101493750D01*
X64226053Y-101472309D01*
X64229203Y-101451074D01*
X64234419Y-101430250D01*
X64241651Y-101410038D01*
X64250830Y-101390632D01*
X64261866Y-101372219D01*
X64274654Y-101354976D01*
X64289070Y-101339070D01*
X64304976Y-101324654D01*
X64322219Y-101311866D01*
X64340632Y-101300830D01*
X64360038Y-101291651D01*
X64380250Y-101284419D01*
X64401074Y-101279203D01*
X64422309Y-101276053D01*
X64443750Y-101275000D01*
X64956250Y-101275000D01*
X64977691Y-101276053D01*
X64977691Y-101276053D01*
G37*
D12*
X64700000Y-101712500D03*
G04 #@! TD*
D10*
G04 #@! TO.C,C15*
G36*
X64977691Y-105951053D02*
X64998926Y-105954203D01*
X65019750Y-105959419D01*
X65039962Y-105966651D01*
X65059368Y-105975830D01*
X65077781Y-105986866D01*
X65095024Y-105999654D01*
X65110930Y-106014070D01*
X65125346Y-106029976D01*
X65138134Y-106047219D01*
X65149170Y-106065632D01*
X65158349Y-106085038D01*
X65165581Y-106105250D01*
X65170797Y-106126074D01*
X65173947Y-106147309D01*
X65175000Y-106168750D01*
X65175000Y-106606250D01*
X65173947Y-106627691D01*
X65170797Y-106648926D01*
X65165581Y-106669750D01*
X65158349Y-106689962D01*
X65149170Y-106709368D01*
X65138134Y-106727781D01*
X65125346Y-106745024D01*
X65110930Y-106760930D01*
X65095024Y-106775346D01*
X65077781Y-106788134D01*
X65059368Y-106799170D01*
X65039962Y-106808349D01*
X65019750Y-106815581D01*
X64998926Y-106820797D01*
X64977691Y-106823947D01*
X64956250Y-106825000D01*
X64443750Y-106825000D01*
X64422309Y-106823947D01*
X64401074Y-106820797D01*
X64380250Y-106815581D01*
X64360038Y-106808349D01*
X64340632Y-106799170D01*
X64322219Y-106788134D01*
X64304976Y-106775346D01*
X64289070Y-106760930D01*
X64274654Y-106745024D01*
X64261866Y-106727781D01*
X64250830Y-106709368D01*
X64241651Y-106689962D01*
X64234419Y-106669750D01*
X64229203Y-106648926D01*
X64226053Y-106627691D01*
X64225000Y-106606250D01*
X64225000Y-106168750D01*
X64226053Y-106147309D01*
X64229203Y-106126074D01*
X64234419Y-106105250D01*
X64241651Y-106085038D01*
X64250830Y-106065632D01*
X64261866Y-106047219D01*
X64274654Y-106029976D01*
X64289070Y-106014070D01*
X64304976Y-105999654D01*
X64322219Y-105986866D01*
X64340632Y-105975830D01*
X64360038Y-105966651D01*
X64380250Y-105959419D01*
X64401074Y-105954203D01*
X64422309Y-105951053D01*
X64443750Y-105950000D01*
X64956250Y-105950000D01*
X64977691Y-105951053D01*
X64977691Y-105951053D01*
G37*
D12*
X64700000Y-106387500D03*
D10*
G36*
X64977691Y-104376053D02*
X64998926Y-104379203D01*
X65019750Y-104384419D01*
X65039962Y-104391651D01*
X65059368Y-104400830D01*
X65077781Y-104411866D01*
X65095024Y-104424654D01*
X65110930Y-104439070D01*
X65125346Y-104454976D01*
X65138134Y-104472219D01*
X65149170Y-104490632D01*
X65158349Y-104510038D01*
X65165581Y-104530250D01*
X65170797Y-104551074D01*
X65173947Y-104572309D01*
X65175000Y-104593750D01*
X65175000Y-105031250D01*
X65173947Y-105052691D01*
X65170797Y-105073926D01*
X65165581Y-105094750D01*
X65158349Y-105114962D01*
X65149170Y-105134368D01*
X65138134Y-105152781D01*
X65125346Y-105170024D01*
X65110930Y-105185930D01*
X65095024Y-105200346D01*
X65077781Y-105213134D01*
X65059368Y-105224170D01*
X65039962Y-105233349D01*
X65019750Y-105240581D01*
X64998926Y-105245797D01*
X64977691Y-105248947D01*
X64956250Y-105250000D01*
X64443750Y-105250000D01*
X64422309Y-105248947D01*
X64401074Y-105245797D01*
X64380250Y-105240581D01*
X64360038Y-105233349D01*
X64340632Y-105224170D01*
X64322219Y-105213134D01*
X64304976Y-105200346D01*
X64289070Y-105185930D01*
X64274654Y-105170024D01*
X64261866Y-105152781D01*
X64250830Y-105134368D01*
X64241651Y-105114962D01*
X64234419Y-105094750D01*
X64229203Y-105073926D01*
X64226053Y-105052691D01*
X64225000Y-105031250D01*
X64225000Y-104593750D01*
X64226053Y-104572309D01*
X64229203Y-104551074D01*
X64234419Y-104530250D01*
X64241651Y-104510038D01*
X64250830Y-104490632D01*
X64261866Y-104472219D01*
X64274654Y-104454976D01*
X64289070Y-104439070D01*
X64304976Y-104424654D01*
X64322219Y-104411866D01*
X64340632Y-104400830D01*
X64360038Y-104391651D01*
X64380250Y-104384419D01*
X64401074Y-104379203D01*
X64422309Y-104376053D01*
X64443750Y-104375000D01*
X64956250Y-104375000D01*
X64977691Y-104376053D01*
X64977691Y-104376053D01*
G37*
D12*
X64700000Y-104812500D03*
G04 #@! TD*
D10*
G04 #@! TO.C,C3*
G36*
X73924504Y-100326204D02*
X73948773Y-100329804D01*
X73972571Y-100335765D01*
X73995671Y-100344030D01*
X74017849Y-100354520D01*
X74038893Y-100367133D01*
X74058598Y-100381747D01*
X74076777Y-100398223D01*
X74093253Y-100416402D01*
X74107867Y-100436107D01*
X74120480Y-100457151D01*
X74130970Y-100479329D01*
X74139235Y-100502429D01*
X74145196Y-100526227D01*
X74148796Y-100550496D01*
X74150000Y-100575000D01*
X74150000Y-102625000D01*
X74148796Y-102649504D01*
X74145196Y-102673773D01*
X74139235Y-102697571D01*
X74130970Y-102720671D01*
X74120480Y-102742849D01*
X74107867Y-102763893D01*
X74093253Y-102783598D01*
X74076777Y-102801777D01*
X74058598Y-102818253D01*
X74038893Y-102832867D01*
X74017849Y-102845480D01*
X73995671Y-102855970D01*
X73972571Y-102864235D01*
X73948773Y-102870196D01*
X73924504Y-102873796D01*
X73900000Y-102875000D01*
X72325000Y-102875000D01*
X72300496Y-102873796D01*
X72276227Y-102870196D01*
X72252429Y-102864235D01*
X72229329Y-102855970D01*
X72207151Y-102845480D01*
X72186107Y-102832867D01*
X72166402Y-102818253D01*
X72148223Y-102801777D01*
X72131747Y-102783598D01*
X72117133Y-102763893D01*
X72104520Y-102742849D01*
X72094030Y-102720671D01*
X72085765Y-102697571D01*
X72079804Y-102673773D01*
X72076204Y-102649504D01*
X72075000Y-102625000D01*
X72075000Y-100575000D01*
X72076204Y-100550496D01*
X72079804Y-100526227D01*
X72085765Y-100502429D01*
X72094030Y-100479329D01*
X72104520Y-100457151D01*
X72117133Y-100436107D01*
X72131747Y-100416402D01*
X72148223Y-100398223D01*
X72166402Y-100381747D01*
X72186107Y-100367133D01*
X72207151Y-100354520D01*
X72229329Y-100344030D01*
X72252429Y-100335765D01*
X72276227Y-100329804D01*
X72300496Y-100326204D01*
X72325000Y-100325000D01*
X73900000Y-100325000D01*
X73924504Y-100326204D01*
X73924504Y-100326204D01*
G37*
D11*
X73112500Y-101600000D03*
D10*
G36*
X67699504Y-100326204D02*
X67723773Y-100329804D01*
X67747571Y-100335765D01*
X67770671Y-100344030D01*
X67792849Y-100354520D01*
X67813893Y-100367133D01*
X67833598Y-100381747D01*
X67851777Y-100398223D01*
X67868253Y-100416402D01*
X67882867Y-100436107D01*
X67895480Y-100457151D01*
X67905970Y-100479329D01*
X67914235Y-100502429D01*
X67920196Y-100526227D01*
X67923796Y-100550496D01*
X67925000Y-100575000D01*
X67925000Y-102625000D01*
X67923796Y-102649504D01*
X67920196Y-102673773D01*
X67914235Y-102697571D01*
X67905970Y-102720671D01*
X67895480Y-102742849D01*
X67882867Y-102763893D01*
X67868253Y-102783598D01*
X67851777Y-102801777D01*
X67833598Y-102818253D01*
X67813893Y-102832867D01*
X67792849Y-102845480D01*
X67770671Y-102855970D01*
X67747571Y-102864235D01*
X67723773Y-102870196D01*
X67699504Y-102873796D01*
X67675000Y-102875000D01*
X66100000Y-102875000D01*
X66075496Y-102873796D01*
X66051227Y-102870196D01*
X66027429Y-102864235D01*
X66004329Y-102855970D01*
X65982151Y-102845480D01*
X65961107Y-102832867D01*
X65941402Y-102818253D01*
X65923223Y-102801777D01*
X65906747Y-102783598D01*
X65892133Y-102763893D01*
X65879520Y-102742849D01*
X65869030Y-102720671D01*
X65860765Y-102697571D01*
X65854804Y-102673773D01*
X65851204Y-102649504D01*
X65850000Y-102625000D01*
X65850000Y-100575000D01*
X65851204Y-100550496D01*
X65854804Y-100526227D01*
X65860765Y-100502429D01*
X65869030Y-100479329D01*
X65879520Y-100457151D01*
X65892133Y-100436107D01*
X65906747Y-100416402D01*
X65923223Y-100398223D01*
X65941402Y-100381747D01*
X65961107Y-100367133D01*
X65982151Y-100354520D01*
X66004329Y-100344030D01*
X66027429Y-100335765D01*
X66051227Y-100329804D01*
X66075496Y-100326204D01*
X66100000Y-100325000D01*
X67675000Y-100325000D01*
X67699504Y-100326204D01*
X67699504Y-100326204D01*
G37*
D11*
X66887500Y-101600000D03*
G04 #@! TD*
D10*
G04 #@! TO.C,C1*
G36*
X67699504Y-105226204D02*
X67723773Y-105229804D01*
X67747571Y-105235765D01*
X67770671Y-105244030D01*
X67792849Y-105254520D01*
X67813893Y-105267133D01*
X67833598Y-105281747D01*
X67851777Y-105298223D01*
X67868253Y-105316402D01*
X67882867Y-105336107D01*
X67895480Y-105357151D01*
X67905970Y-105379329D01*
X67914235Y-105402429D01*
X67920196Y-105426227D01*
X67923796Y-105450496D01*
X67925000Y-105475000D01*
X67925000Y-107525000D01*
X67923796Y-107549504D01*
X67920196Y-107573773D01*
X67914235Y-107597571D01*
X67905970Y-107620671D01*
X67895480Y-107642849D01*
X67882867Y-107663893D01*
X67868253Y-107683598D01*
X67851777Y-107701777D01*
X67833598Y-107718253D01*
X67813893Y-107732867D01*
X67792849Y-107745480D01*
X67770671Y-107755970D01*
X67747571Y-107764235D01*
X67723773Y-107770196D01*
X67699504Y-107773796D01*
X67675000Y-107775000D01*
X66100000Y-107775000D01*
X66075496Y-107773796D01*
X66051227Y-107770196D01*
X66027429Y-107764235D01*
X66004329Y-107755970D01*
X65982151Y-107745480D01*
X65961107Y-107732867D01*
X65941402Y-107718253D01*
X65923223Y-107701777D01*
X65906747Y-107683598D01*
X65892133Y-107663893D01*
X65879520Y-107642849D01*
X65869030Y-107620671D01*
X65860765Y-107597571D01*
X65854804Y-107573773D01*
X65851204Y-107549504D01*
X65850000Y-107525000D01*
X65850000Y-105475000D01*
X65851204Y-105450496D01*
X65854804Y-105426227D01*
X65860765Y-105402429D01*
X65869030Y-105379329D01*
X65879520Y-105357151D01*
X65892133Y-105336107D01*
X65906747Y-105316402D01*
X65923223Y-105298223D01*
X65941402Y-105281747D01*
X65961107Y-105267133D01*
X65982151Y-105254520D01*
X66004329Y-105244030D01*
X66027429Y-105235765D01*
X66051227Y-105229804D01*
X66075496Y-105226204D01*
X66100000Y-105225000D01*
X67675000Y-105225000D01*
X67699504Y-105226204D01*
X67699504Y-105226204D01*
G37*
D11*
X66887500Y-106500000D03*
D10*
G36*
X73924504Y-105226204D02*
X73948773Y-105229804D01*
X73972571Y-105235765D01*
X73995671Y-105244030D01*
X74017849Y-105254520D01*
X74038893Y-105267133D01*
X74058598Y-105281747D01*
X74076777Y-105298223D01*
X74093253Y-105316402D01*
X74107867Y-105336107D01*
X74120480Y-105357151D01*
X74130970Y-105379329D01*
X74139235Y-105402429D01*
X74145196Y-105426227D01*
X74148796Y-105450496D01*
X74150000Y-105475000D01*
X74150000Y-107525000D01*
X74148796Y-107549504D01*
X74145196Y-107573773D01*
X74139235Y-107597571D01*
X74130970Y-107620671D01*
X74120480Y-107642849D01*
X74107867Y-107663893D01*
X74093253Y-107683598D01*
X74076777Y-107701777D01*
X74058598Y-107718253D01*
X74038893Y-107732867D01*
X74017849Y-107745480D01*
X73995671Y-107755970D01*
X73972571Y-107764235D01*
X73948773Y-107770196D01*
X73924504Y-107773796D01*
X73900000Y-107775000D01*
X72325000Y-107775000D01*
X72300496Y-107773796D01*
X72276227Y-107770196D01*
X72252429Y-107764235D01*
X72229329Y-107755970D01*
X72207151Y-107745480D01*
X72186107Y-107732867D01*
X72166402Y-107718253D01*
X72148223Y-107701777D01*
X72131747Y-107683598D01*
X72117133Y-107663893D01*
X72104520Y-107642849D01*
X72094030Y-107620671D01*
X72085765Y-107597571D01*
X72079804Y-107573773D01*
X72076204Y-107549504D01*
X72075000Y-107525000D01*
X72075000Y-105475000D01*
X72076204Y-105450496D01*
X72079804Y-105426227D01*
X72085765Y-105402429D01*
X72094030Y-105379329D01*
X72104520Y-105357151D01*
X72117133Y-105336107D01*
X72131747Y-105316402D01*
X72148223Y-105298223D01*
X72166402Y-105281747D01*
X72186107Y-105267133D01*
X72207151Y-105254520D01*
X72229329Y-105244030D01*
X72252429Y-105235765D01*
X72276227Y-105229804D01*
X72300496Y-105226204D01*
X72325000Y-105225000D01*
X73900000Y-105225000D01*
X73924504Y-105226204D01*
X73924504Y-105226204D01*
G37*
D11*
X73112500Y-106500000D03*
G04 #@! TD*
D10*
G04 #@! TO.C,C14*
G36*
X86199504Y-100326204D02*
X86223773Y-100329804D01*
X86247571Y-100335765D01*
X86270671Y-100344030D01*
X86292849Y-100354520D01*
X86313893Y-100367133D01*
X86333598Y-100381747D01*
X86351777Y-100398223D01*
X86368253Y-100416402D01*
X86382867Y-100436107D01*
X86395480Y-100457151D01*
X86405970Y-100479329D01*
X86414235Y-100502429D01*
X86420196Y-100526227D01*
X86423796Y-100550496D01*
X86425000Y-100575000D01*
X86425000Y-102625000D01*
X86423796Y-102649504D01*
X86420196Y-102673773D01*
X86414235Y-102697571D01*
X86405970Y-102720671D01*
X86395480Y-102742849D01*
X86382867Y-102763893D01*
X86368253Y-102783598D01*
X86351777Y-102801777D01*
X86333598Y-102818253D01*
X86313893Y-102832867D01*
X86292849Y-102845480D01*
X86270671Y-102855970D01*
X86247571Y-102864235D01*
X86223773Y-102870196D01*
X86199504Y-102873796D01*
X86175000Y-102875000D01*
X84600000Y-102875000D01*
X84575496Y-102873796D01*
X84551227Y-102870196D01*
X84527429Y-102864235D01*
X84504329Y-102855970D01*
X84482151Y-102845480D01*
X84461107Y-102832867D01*
X84441402Y-102818253D01*
X84423223Y-102801777D01*
X84406747Y-102783598D01*
X84392133Y-102763893D01*
X84379520Y-102742849D01*
X84369030Y-102720671D01*
X84360765Y-102697571D01*
X84354804Y-102673773D01*
X84351204Y-102649504D01*
X84350000Y-102625000D01*
X84350000Y-100575000D01*
X84351204Y-100550496D01*
X84354804Y-100526227D01*
X84360765Y-100502429D01*
X84369030Y-100479329D01*
X84379520Y-100457151D01*
X84392133Y-100436107D01*
X84406747Y-100416402D01*
X84423223Y-100398223D01*
X84441402Y-100381747D01*
X84461107Y-100367133D01*
X84482151Y-100354520D01*
X84504329Y-100344030D01*
X84527429Y-100335765D01*
X84551227Y-100329804D01*
X84575496Y-100326204D01*
X84600000Y-100325000D01*
X86175000Y-100325000D01*
X86199504Y-100326204D01*
X86199504Y-100326204D01*
G37*
D11*
X85387500Y-101600000D03*
D10*
G36*
X92424504Y-100326204D02*
X92448773Y-100329804D01*
X92472571Y-100335765D01*
X92495671Y-100344030D01*
X92517849Y-100354520D01*
X92538893Y-100367133D01*
X92558598Y-100381747D01*
X92576777Y-100398223D01*
X92593253Y-100416402D01*
X92607867Y-100436107D01*
X92620480Y-100457151D01*
X92630970Y-100479329D01*
X92639235Y-100502429D01*
X92645196Y-100526227D01*
X92648796Y-100550496D01*
X92650000Y-100575000D01*
X92650000Y-102625000D01*
X92648796Y-102649504D01*
X92645196Y-102673773D01*
X92639235Y-102697571D01*
X92630970Y-102720671D01*
X92620480Y-102742849D01*
X92607867Y-102763893D01*
X92593253Y-102783598D01*
X92576777Y-102801777D01*
X92558598Y-102818253D01*
X92538893Y-102832867D01*
X92517849Y-102845480D01*
X92495671Y-102855970D01*
X92472571Y-102864235D01*
X92448773Y-102870196D01*
X92424504Y-102873796D01*
X92400000Y-102875000D01*
X90825000Y-102875000D01*
X90800496Y-102873796D01*
X90776227Y-102870196D01*
X90752429Y-102864235D01*
X90729329Y-102855970D01*
X90707151Y-102845480D01*
X90686107Y-102832867D01*
X90666402Y-102818253D01*
X90648223Y-102801777D01*
X90631747Y-102783598D01*
X90617133Y-102763893D01*
X90604520Y-102742849D01*
X90594030Y-102720671D01*
X90585765Y-102697571D01*
X90579804Y-102673773D01*
X90576204Y-102649504D01*
X90575000Y-102625000D01*
X90575000Y-100575000D01*
X90576204Y-100550496D01*
X90579804Y-100526227D01*
X90585765Y-100502429D01*
X90594030Y-100479329D01*
X90604520Y-100457151D01*
X90617133Y-100436107D01*
X90631747Y-100416402D01*
X90648223Y-100398223D01*
X90666402Y-100381747D01*
X90686107Y-100367133D01*
X90707151Y-100354520D01*
X90729329Y-100344030D01*
X90752429Y-100335765D01*
X90776227Y-100329804D01*
X90800496Y-100326204D01*
X90825000Y-100325000D01*
X92400000Y-100325000D01*
X92424504Y-100326204D01*
X92424504Y-100326204D01*
G37*
D11*
X91612500Y-101600000D03*
G04 #@! TD*
D10*
G04 #@! TO.C,C11*
G36*
X79777691Y-104651053D02*
X79798926Y-104654203D01*
X79819750Y-104659419D01*
X79839962Y-104666651D01*
X79859368Y-104675830D01*
X79877781Y-104686866D01*
X79895024Y-104699654D01*
X79910930Y-104714070D01*
X79925346Y-104729976D01*
X79938134Y-104747219D01*
X79949170Y-104765632D01*
X79958349Y-104785038D01*
X79965581Y-104805250D01*
X79970797Y-104826074D01*
X79973947Y-104847309D01*
X79975000Y-104868750D01*
X79975000Y-105306250D01*
X79973947Y-105327691D01*
X79970797Y-105348926D01*
X79965581Y-105369750D01*
X79958349Y-105389962D01*
X79949170Y-105409368D01*
X79938134Y-105427781D01*
X79925346Y-105445024D01*
X79910930Y-105460930D01*
X79895024Y-105475346D01*
X79877781Y-105488134D01*
X79859368Y-105499170D01*
X79839962Y-105508349D01*
X79819750Y-105515581D01*
X79798926Y-105520797D01*
X79777691Y-105523947D01*
X79756250Y-105525000D01*
X79243750Y-105525000D01*
X79222309Y-105523947D01*
X79201074Y-105520797D01*
X79180250Y-105515581D01*
X79160038Y-105508349D01*
X79140632Y-105499170D01*
X79122219Y-105488134D01*
X79104976Y-105475346D01*
X79089070Y-105460930D01*
X79074654Y-105445024D01*
X79061866Y-105427781D01*
X79050830Y-105409368D01*
X79041651Y-105389962D01*
X79034419Y-105369750D01*
X79029203Y-105348926D01*
X79026053Y-105327691D01*
X79025000Y-105306250D01*
X79025000Y-104868750D01*
X79026053Y-104847309D01*
X79029203Y-104826074D01*
X79034419Y-104805250D01*
X79041651Y-104785038D01*
X79050830Y-104765632D01*
X79061866Y-104747219D01*
X79074654Y-104729976D01*
X79089070Y-104714070D01*
X79104976Y-104699654D01*
X79122219Y-104686866D01*
X79140632Y-104675830D01*
X79160038Y-104666651D01*
X79180250Y-104659419D01*
X79201074Y-104654203D01*
X79222309Y-104651053D01*
X79243750Y-104650000D01*
X79756250Y-104650000D01*
X79777691Y-104651053D01*
X79777691Y-104651053D01*
G37*
D12*
X79500000Y-105087500D03*
D10*
G36*
X79777691Y-103076053D02*
X79798926Y-103079203D01*
X79819750Y-103084419D01*
X79839962Y-103091651D01*
X79859368Y-103100830D01*
X79877781Y-103111866D01*
X79895024Y-103124654D01*
X79910930Y-103139070D01*
X79925346Y-103154976D01*
X79938134Y-103172219D01*
X79949170Y-103190632D01*
X79958349Y-103210038D01*
X79965581Y-103230250D01*
X79970797Y-103251074D01*
X79973947Y-103272309D01*
X79975000Y-103293750D01*
X79975000Y-103731250D01*
X79973947Y-103752691D01*
X79970797Y-103773926D01*
X79965581Y-103794750D01*
X79958349Y-103814962D01*
X79949170Y-103834368D01*
X79938134Y-103852781D01*
X79925346Y-103870024D01*
X79910930Y-103885930D01*
X79895024Y-103900346D01*
X79877781Y-103913134D01*
X79859368Y-103924170D01*
X79839962Y-103933349D01*
X79819750Y-103940581D01*
X79798926Y-103945797D01*
X79777691Y-103948947D01*
X79756250Y-103950000D01*
X79243750Y-103950000D01*
X79222309Y-103948947D01*
X79201074Y-103945797D01*
X79180250Y-103940581D01*
X79160038Y-103933349D01*
X79140632Y-103924170D01*
X79122219Y-103913134D01*
X79104976Y-103900346D01*
X79089070Y-103885930D01*
X79074654Y-103870024D01*
X79061866Y-103852781D01*
X79050830Y-103834368D01*
X79041651Y-103814962D01*
X79034419Y-103794750D01*
X79029203Y-103773926D01*
X79026053Y-103752691D01*
X79025000Y-103731250D01*
X79025000Y-103293750D01*
X79026053Y-103272309D01*
X79029203Y-103251074D01*
X79034419Y-103230250D01*
X79041651Y-103210038D01*
X79050830Y-103190632D01*
X79061866Y-103172219D01*
X79074654Y-103154976D01*
X79089070Y-103139070D01*
X79104976Y-103124654D01*
X79122219Y-103111866D01*
X79140632Y-103100830D01*
X79160038Y-103091651D01*
X79180250Y-103084419D01*
X79201074Y-103079203D01*
X79222309Y-103076053D01*
X79243750Y-103075000D01*
X79756250Y-103075000D01*
X79777691Y-103076053D01*
X79777691Y-103076053D01*
G37*
D12*
X79500000Y-103512500D03*
G04 #@! TD*
D10*
G04 #@! TO.C,C10*
G36*
X79777691Y-101451053D02*
X79798926Y-101454203D01*
X79819750Y-101459419D01*
X79839962Y-101466651D01*
X79859368Y-101475830D01*
X79877781Y-101486866D01*
X79895024Y-101499654D01*
X79910930Y-101514070D01*
X79925346Y-101529976D01*
X79938134Y-101547219D01*
X79949170Y-101565632D01*
X79958349Y-101585038D01*
X79965581Y-101605250D01*
X79970797Y-101626074D01*
X79973947Y-101647309D01*
X79975000Y-101668750D01*
X79975000Y-102106250D01*
X79973947Y-102127691D01*
X79970797Y-102148926D01*
X79965581Y-102169750D01*
X79958349Y-102189962D01*
X79949170Y-102209368D01*
X79938134Y-102227781D01*
X79925346Y-102245024D01*
X79910930Y-102260930D01*
X79895024Y-102275346D01*
X79877781Y-102288134D01*
X79859368Y-102299170D01*
X79839962Y-102308349D01*
X79819750Y-102315581D01*
X79798926Y-102320797D01*
X79777691Y-102323947D01*
X79756250Y-102325000D01*
X79243750Y-102325000D01*
X79222309Y-102323947D01*
X79201074Y-102320797D01*
X79180250Y-102315581D01*
X79160038Y-102308349D01*
X79140632Y-102299170D01*
X79122219Y-102288134D01*
X79104976Y-102275346D01*
X79089070Y-102260930D01*
X79074654Y-102245024D01*
X79061866Y-102227781D01*
X79050830Y-102209368D01*
X79041651Y-102189962D01*
X79034419Y-102169750D01*
X79029203Y-102148926D01*
X79026053Y-102127691D01*
X79025000Y-102106250D01*
X79025000Y-101668750D01*
X79026053Y-101647309D01*
X79029203Y-101626074D01*
X79034419Y-101605250D01*
X79041651Y-101585038D01*
X79050830Y-101565632D01*
X79061866Y-101547219D01*
X79074654Y-101529976D01*
X79089070Y-101514070D01*
X79104976Y-101499654D01*
X79122219Y-101486866D01*
X79140632Y-101475830D01*
X79160038Y-101466651D01*
X79180250Y-101459419D01*
X79201074Y-101454203D01*
X79222309Y-101451053D01*
X79243750Y-101450000D01*
X79756250Y-101450000D01*
X79777691Y-101451053D01*
X79777691Y-101451053D01*
G37*
D12*
X79500000Y-101887500D03*
D10*
G36*
X79777691Y-99876053D02*
X79798926Y-99879203D01*
X79819750Y-99884419D01*
X79839962Y-99891651D01*
X79859368Y-99900830D01*
X79877781Y-99911866D01*
X79895024Y-99924654D01*
X79910930Y-99939070D01*
X79925346Y-99954976D01*
X79938134Y-99972219D01*
X79949170Y-99990632D01*
X79958349Y-100010038D01*
X79965581Y-100030250D01*
X79970797Y-100051074D01*
X79973947Y-100072309D01*
X79975000Y-100093750D01*
X79975000Y-100531250D01*
X79973947Y-100552691D01*
X79970797Y-100573926D01*
X79965581Y-100594750D01*
X79958349Y-100614962D01*
X79949170Y-100634368D01*
X79938134Y-100652781D01*
X79925346Y-100670024D01*
X79910930Y-100685930D01*
X79895024Y-100700346D01*
X79877781Y-100713134D01*
X79859368Y-100724170D01*
X79839962Y-100733349D01*
X79819750Y-100740581D01*
X79798926Y-100745797D01*
X79777691Y-100748947D01*
X79756250Y-100750000D01*
X79243750Y-100750000D01*
X79222309Y-100748947D01*
X79201074Y-100745797D01*
X79180250Y-100740581D01*
X79160038Y-100733349D01*
X79140632Y-100724170D01*
X79122219Y-100713134D01*
X79104976Y-100700346D01*
X79089070Y-100685930D01*
X79074654Y-100670024D01*
X79061866Y-100652781D01*
X79050830Y-100634368D01*
X79041651Y-100614962D01*
X79034419Y-100594750D01*
X79029203Y-100573926D01*
X79026053Y-100552691D01*
X79025000Y-100531250D01*
X79025000Y-100093750D01*
X79026053Y-100072309D01*
X79029203Y-100051074D01*
X79034419Y-100030250D01*
X79041651Y-100010038D01*
X79050830Y-99990632D01*
X79061866Y-99972219D01*
X79074654Y-99954976D01*
X79089070Y-99939070D01*
X79104976Y-99924654D01*
X79122219Y-99911866D01*
X79140632Y-99900830D01*
X79160038Y-99891651D01*
X79180250Y-99884419D01*
X79201074Y-99879203D01*
X79222309Y-99876053D01*
X79243750Y-99875000D01*
X79756250Y-99875000D01*
X79777691Y-99876053D01*
X79777691Y-99876053D01*
G37*
D12*
X79500000Y-100312500D03*
G04 #@! TD*
M02*
