M48
;DRILL file {KiCad 6.0.0-rc1-unknown-589e1f6~66~ubuntu18.04.1} date nie, 4 lis 2018, 22:43:30
;FORMAT={-:-/ absolute / inch / decimal}
FMAT,2
INCH
T1C0.0157
T2C0.0197
T3C0.0354
T4C0.0394
T5C0.0433
T6C0.0500
T7C0.0600
T8C0.1378
%
G90
G05
M72
T1
X1.126Y-6.1142
X1.1811Y-5.3543
X1.1811Y-5.3937
X1.1811Y-5.4331
X1.1811Y-5.4724
X1.1811Y-5.5118
X1.1811Y-5.5512
X1.1811Y-5.5906
X1.1811Y-5.6299
X1.2087Y-6.188
X1.2205Y-5.3543
X1.2205Y-5.3937
X1.2205Y-5.4331
X1.2205Y-5.4724
X1.2205Y-5.5118
X1.2205Y-5.5512
X1.2205Y-5.5906
X1.2205Y-5.6299
X1.2598Y-5.3543
X1.2598Y-5.3937
X1.2598Y-5.4331
X1.2598Y-5.4724
X1.2598Y-5.5118
X1.2598Y-5.5512
X1.2598Y-5.5906
X1.2598Y-5.6299
X1.4606Y-3.7087
X1.4606Y-3.8622
X1.5276Y-3.7874
X1.6929Y-5.8268
X1.7717Y-5.2953
X1.7717Y-5.8268
X2.2165Y-5.9685
X2.252Y-4.8976
X2.252Y-5.3307
X2.2598Y-4.4409
X2.4803Y-4.0
X2.4803Y-4.0551
X2.4803Y-4.1417
X2.4803Y-4.2008
X2.4803Y-4.9016
X2.4803Y-4.9606
X2.4803Y-5.0394
X2.4803Y-5.0984
X2.4803Y-5.3543
X2.4803Y-5.4134
X2.4803Y-5.4921
X2.4803Y-5.5512
X2.4882Y-4.4528
X2.4882Y-4.5118
X2.4882Y-4.5906
X2.4882Y-4.6496
X2.5472Y-3.9252
X2.5472Y-4.378
X2.5472Y-4.8307
X2.5472Y-5.2835
X2.5472Y-4.252
X2.5472Y-4.7047
X2.5472Y-5.1575
X2.5472Y-5.6102
X2.6142Y-5.8346
X2.7598Y-3.9252
X2.7598Y-4.378
X2.7598Y-4.8307
X2.7598Y-5.2835
X2.7953Y-5.6378
X2.8386Y-3.9252
X2.8386Y-4.378
X2.8386Y-4.8307
X2.8504Y-5.6378
X2.8976Y-5.6378
X2.9016Y-4.0906
X2.9016Y-4.5433
X2.9016Y-4.9961
X2.9016Y-5.4488
X2.9134Y-3.9252
X2.9134Y-4.378
X2.9134Y-4.8307
X2.9449Y-5.6378
X2.9488Y-4.1378
X2.9488Y-4.5906
X2.9488Y-5.0433
X2.9488Y-5.4961
X3.0827Y-4.0118
X3.0827Y-4.0748
X3.0827Y-4.4646
X3.0827Y-4.5276
X3.0827Y-4.9173
X3.0827Y-4.9803
X3.0827Y-5.3701
X3.0827Y-5.4331
X3.0866Y-4.1378
X3.0866Y-4.5906
X3.0866Y-5.0433
X3.0866Y-5.4961
X3.1772Y-3.9488
X3.1772Y-4.4016
X3.1772Y-4.8543
X3.1772Y-5.3071
X3.3622Y-4.0945
X3.3622Y-4.5472
X3.3622Y-5.0
X3.3622Y-5.4528
X3.4616Y-6.2413
X3.4616Y-6.4079
X3.5719Y-6.076
X3.5719Y-6.2425
X3.5719Y-6.4102
X3.6063Y-4.0945
X3.6063Y-4.5472
X3.6063Y-5.0
X3.6063Y-5.4528
X3.9488Y-5.5039
X3.9567Y-5.6693
X4.063Y-5.1969
X4.063Y-5.7323
X4.063Y-5.7717
X4.0669Y-5.6142
X4.0906Y-5.1575
X4.0951Y-5.3858
X4.1102Y-5.2047
X4.1102Y-5.9803
X4.1119Y-5.9384
X4.1929Y-5.5394
X4.2306Y-5.2064
X4.252Y-6.0472
X4.2831Y-6.2528
X4.2835Y-5.5827
X4.2846Y-6.1425
X4.2953Y-5.4961
X4.2953Y-5.5394
X4.2992Y-5.6299
X4.3071Y-5.3701
X4.311Y-5.8268
X4.311Y-5.8819
X4.311Y-5.9449
X4.311Y-6.0079
X4.311Y-6.063
X4.315Y-4.9016
X4.315Y-4.9449
X4.315Y-4.9921
X4.315Y-5.0866
X4.3307Y-5.1575
X4.3346Y-4.7953
X4.3504Y-5.9449
X4.3504Y-5.9843
X4.3701Y-4.9449
X4.3701Y-4.9921
X4.3701Y-5.2008
X4.374Y-4.9016
X4.4449Y-3.7874
X4.4484Y-6.1425
X4.4488Y-6.2528
X4.4685Y-4.748
X4.5197Y-5.8228
X4.5197Y-5.6575
X4.5197Y-5.6575
X4.5197Y-5.6575
X4.5236Y-3.7087
X4.5236Y-3.8701
X4.5276Y-5.9213
X4.5276Y-5.9843
X4.5276Y-6.0394
X4.5433Y-5.0276
X4.5787Y-5.7126
X4.5827Y-5.0276
X4.6063Y-5.1496
X4.6114Y-6.1425
X4.6114Y-6.2528
X4.6299Y-4.3228
X4.6299Y-4.3622
X4.6299Y-4.4094
X4.6693Y-5.0236
X4.6772Y-5.1496
X4.748Y-5.0236
X4.748Y-5.1496
X4.8661Y-6.0866
T2
X4.1299Y-5.1142
X1.0856Y-6.4488
X1.1159Y-6.3757
X1.1159Y-6.5219
X1.189Y-6.3455
X1.189Y-6.5522
X1.2621Y-6.3757
X1.2621Y-6.5219
X1.2923Y-6.4488
X4.6919Y-6.4488
X4.7222Y-6.3757
X4.7222Y-6.5219
X4.7953Y-6.3455
X4.7953Y-6.5522
X4.8684Y-6.3757
X4.8684Y-6.5219
X4.8986Y-6.4488
X1.0856Y-3.7874
X1.1159Y-3.7143
X1.1159Y-3.8605
X1.189Y-3.6841
X1.189Y-3.8907
X1.2621Y-3.7143
X1.2621Y-3.8605
X1.2923Y-3.7874
X2.2835Y-5.8898
X3.248Y-4.2165
X2.0551Y-3.9528
X2.9764Y-4.6693
X2.3228Y-3.9528
X4.6919Y-3.7874
X4.7222Y-3.7143
X4.7222Y-3.8605
X4.7953Y-3.6841
X4.7953Y-3.8907
X4.8684Y-3.7143
X4.8684Y-3.8605
X4.8986Y-3.7874
X2.9764Y-5.5748
X3.248Y-5.5748
X4.3701Y-5.6457
X2.0866Y-6.2205
X3.248Y-5.122
X2.4606Y-5.9685
X2.9764Y-4.2165
X3.248Y-4.6693
X2.9764Y-5.122
X2.2362Y-6.2323
X2.5748Y-6.2323
X4.0276Y-4.8465
X4.4803Y-5.2717
T3
X2.3307Y-6.1339
X2.3307Y-6.2323
X2.3307Y-6.3307
X2.4606Y-6.1339
X2.4606Y-6.2323
X2.4606Y-6.3307
T4
X2.2283Y-6.4961
X2.3283Y-6.4961
X2.4283Y-6.4961
X2.5283Y-6.4961
X1.4606Y-5.4118
X1.4606Y-5.5118
X1.4606Y-5.6118
X1.4606Y-5.7118
X1.5606Y-5.4118
X1.5606Y-5.5118
X1.5606Y-5.6118
X1.5606Y-5.7118
X1.1992Y-5.1732
X1.2992Y-5.1732
T5
X1.872Y-3.8717
X1.872Y-4.0717
X1.872Y-4.2717
X1.872Y-4.4717
X1.872Y-4.6717
X1.872Y-4.8717
X1.872Y-5.0717
X1.872Y-5.2717
X1.872Y-5.4717
X1.872Y-5.6717
X1.9661Y-3.7776
X1.9661Y-5.7657
X2.1661Y-3.7776
X2.1661Y-5.7657
X2.3661Y-3.7776
X2.3661Y-5.7657
X2.5661Y-3.7776
X2.5661Y-5.7657
X2.7661Y-3.7776
X2.7661Y-5.7657
X2.9661Y-3.7776
X2.9661Y-5.7657
X3.1661Y-3.7776
X3.1661Y-5.7657
X3.3661Y-3.7776
X3.3661Y-5.7657
X3.5661Y-3.7776
X3.5661Y-5.7657
X3.7661Y-3.7776
X3.7661Y-5.7657
X3.8602Y-3.8717
X3.8602Y-4.0717
X3.8602Y-4.2717
X3.8602Y-4.4717
X3.8602Y-4.6717
X3.8602Y-4.8717
X3.8602Y-5.0717
X3.8602Y-5.2717
X3.8602Y-5.4717
X3.8602Y-5.6717
T6
X3.1693Y-6.3386
X1.2992Y-4.7638
X3.9134Y-6.3465
X1.2992Y-4.2126
T7
X3.0443Y-6.2136
X3.0443Y-6.4636
X3.2943Y-6.2136
X3.2943Y-6.4636
X1.1742Y-4.6388
X1.1742Y-4.8888
X1.4242Y-4.6388
X1.4242Y-4.8888
X3.7884Y-6.2215
X3.7884Y-6.4715
X4.0384Y-6.2215
X4.0384Y-6.4715
X1.1742Y-4.0876
X1.1742Y-4.3376
X1.4242Y-4.0876
X1.4242Y-4.3376
T8
X1.189Y-6.4488
X4.7953Y-6.4488
X1.189Y-3.7874
X4.7953Y-3.7874
T0
M30
