G04 #@! TF.GenerationSoftware,KiCad,Pcbnew,6.0.0-rc1-unknown-589e1f6~66~ubuntu18.04.1*
G04 #@! TF.CreationDate,2018-11-04T22:43:28+01:00*
G04 #@! TF.ProjectId,Ntester,4e746573-7465-4722-9e6b-696361645f70,rev?*
G04 #@! TF.SameCoordinates,Original*
G04 #@! TF.FileFunction,Legend,Bot*
G04 #@! TF.FilePolarity,Positive*
%FSLAX46Y46*%
G04 Gerber Fmt 4.6, Leading zero omitted, Abs format (unit mm)*
G04 Created by KiCad (PCBNEW 6.0.0-rc1-unknown-589e1f6~66~ubuntu18.04.1) date nie, 4 lis 2018, 22:43:28*
%MOMM*%
%LPD*%
G01*
G04 APERTURE LIST*
%ADD10C,0.120000*%
%ADD11C,0.150000*%
G04 APERTURE END LIST*
D10*
G04 #@! TO.C,C85*
X73650000Y-138360000D02*
X65590000Y-138360000D01*
X65590000Y-138360000D02*
X65590000Y-133840000D01*
X65590000Y-133840000D02*
X73650000Y-133840000D01*
G04 #@! TO.C,C81*
X66350000Y-138740000D02*
X74410000Y-138740000D01*
X74410000Y-138740000D02*
X74410000Y-143260000D01*
X74410000Y-143260000D02*
X66350000Y-143260000D01*
G04 #@! TO.C,C86*
X64190000Y-139937221D02*
X64190000Y-140262779D01*
X65210000Y-139937221D02*
X65210000Y-140262779D01*
G04 #@! TO.C,C82*
X84850000Y-133840000D02*
X92910000Y-133840000D01*
X92910000Y-133840000D02*
X92910000Y-138360000D01*
X92910000Y-138360000D02*
X84850000Y-138360000D01*
G04 #@! TO.C,C87*
X64190000Y-136837221D02*
X64190000Y-137162779D01*
X65210000Y-136837221D02*
X65210000Y-137162779D01*
G04 #@! TO.C,C78*
X78990000Y-135337221D02*
X78990000Y-135662779D01*
X80010000Y-135337221D02*
X80010000Y-135662779D01*
G04 #@! TO.C,C80*
X78990000Y-138837221D02*
X78990000Y-139162779D01*
X80010000Y-138837221D02*
X80010000Y-139162779D01*
G04 #@! TO.C,C75*
X65210000Y-128437221D02*
X65210000Y-128762779D01*
X64190000Y-128437221D02*
X64190000Y-128762779D01*
G04 #@! TO.C,C70*
X74410000Y-131760000D02*
X66350000Y-131760000D01*
X74410000Y-127240000D02*
X74410000Y-131760000D01*
X66350000Y-127240000D02*
X74410000Y-127240000D01*
G04 #@! TO.C,C74*
X65590000Y-122340000D02*
X73650000Y-122340000D01*
X65590000Y-126860000D02*
X65590000Y-122340000D01*
X73650000Y-126860000D02*
X65590000Y-126860000D01*
G04 #@! TO.C,C76*
X65210000Y-125337221D02*
X65210000Y-125662779D01*
X64190000Y-125337221D02*
X64190000Y-125662779D01*
G04 #@! TO.C,C71*
X92910000Y-126860000D02*
X84850000Y-126860000D01*
X92910000Y-122340000D02*
X92910000Y-126860000D01*
X84850000Y-122340000D02*
X92910000Y-122340000D01*
G04 #@! TO.C,C69*
X80010000Y-127337221D02*
X80010000Y-127662779D01*
X78990000Y-127337221D02*
X78990000Y-127662779D01*
G04 #@! TO.C,C67*
X80010000Y-123837221D02*
X80010000Y-124162779D01*
X78990000Y-123837221D02*
X78990000Y-124162779D01*
G04 #@! TO.C,C56*
X78990000Y-112437221D02*
X78990000Y-112762779D01*
X80010000Y-112437221D02*
X80010000Y-112762779D01*
G04 #@! TO.C,C58*
X78990000Y-115637221D02*
X78990000Y-115962779D01*
X80010000Y-115637221D02*
X80010000Y-115962779D01*
G04 #@! TO.C,C62*
X84850000Y-110840000D02*
X92910000Y-110840000D01*
X92910000Y-110840000D02*
X92910000Y-115360000D01*
X92910000Y-115360000D02*
X84850000Y-115360000D01*
G04 #@! TO.C,C59*
X66350000Y-115740000D02*
X74410000Y-115740000D01*
X74410000Y-115740000D02*
X74410000Y-120260000D01*
X74410000Y-120260000D02*
X66350000Y-120260000D01*
G04 #@! TO.C,C63*
X73650000Y-115360000D02*
X65590000Y-115360000D01*
X65590000Y-115360000D02*
X65590000Y-110840000D01*
X65590000Y-110840000D02*
X73650000Y-110840000D01*
G04 #@! TO.C,C64*
X64190000Y-116937221D02*
X64190000Y-117262779D01*
X65210000Y-116937221D02*
X65210000Y-117262779D01*
G04 #@! TO.C,C65*
X64190000Y-113837221D02*
X64190000Y-114162779D01*
X65210000Y-113837221D02*
X65210000Y-114162779D01*
G04 #@! TO.C,C47*
X113690000Y-158032064D02*
X113690000Y-156827936D01*
X116410000Y-158032064D02*
X116410000Y-156827936D01*
G04 #@! TO.C,C53*
X88727936Y-155100000D02*
X89932064Y-155100000D01*
X88727936Y-157820000D02*
X89932064Y-157820000D01*
G04 #@! TO.C,C51*
X88717936Y-159320000D02*
X89922064Y-159320000D01*
X88717936Y-162040000D02*
X89922064Y-162040000D01*
G04 #@! TO.C,C49*
X88707936Y-163550000D02*
X89912064Y-163550000D01*
X88707936Y-166270000D02*
X89912064Y-166270000D01*
G04 #@! TO.C,C45*
X109560000Y-158022064D02*
X109560000Y-156817936D01*
X112280000Y-158022064D02*
X112280000Y-156817936D01*
G04 #@! TO.C,C37*
X105420000Y-158032064D02*
X105420000Y-156827936D01*
X108140000Y-158032064D02*
X108140000Y-156827936D01*
G04 #@! TO.C,C29*
X123400000Y-119300000D02*
X123400000Y-102500000D01*
X100600000Y-119300000D02*
X123400000Y-119300000D01*
X100600000Y-102500000D02*
X100600000Y-119300000D01*
X123400000Y-102500000D02*
X100600000Y-102500000D01*
G04 #@! TO.C,C42*
X113910000Y-154360000D02*
X105850000Y-154360000D01*
X113910000Y-149840000D02*
X113910000Y-154360000D01*
X105850000Y-149840000D02*
X113910000Y-149840000D01*
G04 #@! TO.C,C39*
X113910000Y-149460000D02*
X105850000Y-149460000D01*
X113910000Y-144940000D02*
X113910000Y-149460000D01*
X105850000Y-144940000D02*
X113910000Y-144940000D01*
G04 #@! TO.C,C28*
X103590000Y-132540000D02*
X111650000Y-132540000D01*
X103590000Y-137060000D02*
X103590000Y-132540000D01*
X111650000Y-137060000D02*
X103590000Y-137060000D01*
G04 #@! TO.C,C25*
X103590000Y-137440000D02*
X111650000Y-137440000D01*
X103590000Y-141960000D02*
X103590000Y-137440000D01*
X111650000Y-141960000D02*
X103590000Y-141960000D01*
G04 #@! TO.C,C19*
X114810000Y-126760000D02*
X106750000Y-126760000D01*
X114810000Y-122240000D02*
X114810000Y-126760000D01*
X106750000Y-122240000D02*
X114810000Y-122240000D01*
G04 #@! TO.C,C18*
X114810000Y-131760000D02*
X106750000Y-131760000D01*
X114810000Y-127240000D02*
X114810000Y-131760000D01*
X106750000Y-127240000D02*
X114810000Y-127240000D01*
G04 #@! TO.C,C16*
X65210000Y-102337221D02*
X65210000Y-102662779D01*
X64190000Y-102337221D02*
X64190000Y-102662779D01*
G04 #@! TO.C,C15*
X65210000Y-105437221D02*
X65210000Y-105762779D01*
X64190000Y-105437221D02*
X64190000Y-105762779D01*
G04 #@! TO.C,C3*
X65590000Y-99340000D02*
X73650000Y-99340000D01*
X65590000Y-103860000D02*
X65590000Y-99340000D01*
X73650000Y-103860000D02*
X65590000Y-103860000D01*
G04 #@! TO.C,C1*
X74410000Y-108760000D02*
X66350000Y-108760000D01*
X74410000Y-104240000D02*
X74410000Y-108760000D01*
X66350000Y-104240000D02*
X74410000Y-104240000D01*
G04 #@! TO.C,C14*
X92910000Y-103860000D02*
X84850000Y-103860000D01*
X92910000Y-99340000D02*
X92910000Y-103860000D01*
X84850000Y-99340000D02*
X92910000Y-99340000D01*
G04 #@! TO.C,C11*
X80010000Y-104137221D02*
X80010000Y-104462779D01*
X78990000Y-104137221D02*
X78990000Y-104462779D01*
G04 #@! TO.C,C10*
X80010000Y-100937221D02*
X80010000Y-101262779D01*
X78990000Y-100937221D02*
X78990000Y-101262779D01*
G04 #@! TO.C,C85*
D11*
X71142857Y-141357142D02*
X71190476Y-141404761D01*
X71333333Y-141452380D01*
X71428571Y-141452380D01*
X71571428Y-141404761D01*
X71666666Y-141309523D01*
X71714285Y-141214285D01*
X71761904Y-141023809D01*
X71761904Y-140880952D01*
X71714285Y-140690476D01*
X71666666Y-140595238D01*
X71571428Y-140500000D01*
X71428571Y-140452380D01*
X71333333Y-140452380D01*
X71190476Y-140500000D01*
X71142857Y-140547619D01*
X70571428Y-140880952D02*
X70666666Y-140833333D01*
X70714285Y-140785714D01*
X70761904Y-140690476D01*
X70761904Y-140642857D01*
X70714285Y-140547619D01*
X70666666Y-140500000D01*
X70571428Y-140452380D01*
X70380952Y-140452380D01*
X70285714Y-140500000D01*
X70238095Y-140547619D01*
X70190476Y-140642857D01*
X70190476Y-140690476D01*
X70238095Y-140785714D01*
X70285714Y-140833333D01*
X70380952Y-140880952D01*
X70571428Y-140880952D01*
X70666666Y-140928571D01*
X70714285Y-140976190D01*
X70761904Y-141071428D01*
X70761904Y-141261904D01*
X70714285Y-141357142D01*
X70666666Y-141404761D01*
X70571428Y-141452380D01*
X70380952Y-141452380D01*
X70285714Y-141404761D01*
X70238095Y-141357142D01*
X70190476Y-141261904D01*
X70190476Y-141071428D01*
X70238095Y-140976190D01*
X70285714Y-140928571D01*
X70380952Y-140880952D01*
X69285714Y-140452380D02*
X69761904Y-140452380D01*
X69809523Y-140928571D01*
X69761904Y-140880952D01*
X69666666Y-140833333D01*
X69428571Y-140833333D01*
X69333333Y-140880952D01*
X69285714Y-140928571D01*
X69238095Y-141023809D01*
X69238095Y-141261904D01*
X69285714Y-141357142D01*
X69333333Y-141404761D01*
X69428571Y-141452380D01*
X69666666Y-141452380D01*
X69761904Y-141404761D01*
X69809523Y-141357142D01*
G04 #@! TO.C,C81*
X71142857Y-136357142D02*
X71190476Y-136404761D01*
X71333333Y-136452380D01*
X71428571Y-136452380D01*
X71571428Y-136404761D01*
X71666666Y-136309523D01*
X71714285Y-136214285D01*
X71761904Y-136023809D01*
X71761904Y-135880952D01*
X71714285Y-135690476D01*
X71666666Y-135595238D01*
X71571428Y-135500000D01*
X71428571Y-135452380D01*
X71333333Y-135452380D01*
X71190476Y-135500000D01*
X71142857Y-135547619D01*
X70571428Y-135880952D02*
X70666666Y-135833333D01*
X70714285Y-135785714D01*
X70761904Y-135690476D01*
X70761904Y-135642857D01*
X70714285Y-135547619D01*
X70666666Y-135500000D01*
X70571428Y-135452380D01*
X70380952Y-135452380D01*
X70285714Y-135500000D01*
X70238095Y-135547619D01*
X70190476Y-135642857D01*
X70190476Y-135690476D01*
X70238095Y-135785714D01*
X70285714Y-135833333D01*
X70380952Y-135880952D01*
X70571428Y-135880952D01*
X70666666Y-135928571D01*
X70714285Y-135976190D01*
X70761904Y-136071428D01*
X70761904Y-136261904D01*
X70714285Y-136357142D01*
X70666666Y-136404761D01*
X70571428Y-136452380D01*
X70380952Y-136452380D01*
X70285714Y-136404761D01*
X70238095Y-136357142D01*
X70190476Y-136261904D01*
X70190476Y-136071428D01*
X70238095Y-135976190D01*
X70285714Y-135928571D01*
X70380952Y-135880952D01*
X69238095Y-136452380D02*
X69809523Y-136452380D01*
X69523809Y-136452380D02*
X69523809Y-135452380D01*
X69619047Y-135595238D01*
X69714285Y-135690476D01*
X69809523Y-135738095D01*
G04 #@! TO.C,C86*
X63627142Y-139457142D02*
X63674761Y-139409523D01*
X63722380Y-139266666D01*
X63722380Y-139171428D01*
X63674761Y-139028571D01*
X63579523Y-138933333D01*
X63484285Y-138885714D01*
X63293809Y-138838095D01*
X63150952Y-138838095D01*
X62960476Y-138885714D01*
X62865238Y-138933333D01*
X62770000Y-139028571D01*
X62722380Y-139171428D01*
X62722380Y-139266666D01*
X62770000Y-139409523D01*
X62817619Y-139457142D01*
X63150952Y-140028571D02*
X63103333Y-139933333D01*
X63055714Y-139885714D01*
X62960476Y-139838095D01*
X62912857Y-139838095D01*
X62817619Y-139885714D01*
X62770000Y-139933333D01*
X62722380Y-140028571D01*
X62722380Y-140219047D01*
X62770000Y-140314285D01*
X62817619Y-140361904D01*
X62912857Y-140409523D01*
X62960476Y-140409523D01*
X63055714Y-140361904D01*
X63103333Y-140314285D01*
X63150952Y-140219047D01*
X63150952Y-140028571D01*
X63198571Y-139933333D01*
X63246190Y-139885714D01*
X63341428Y-139838095D01*
X63531904Y-139838095D01*
X63627142Y-139885714D01*
X63674761Y-139933333D01*
X63722380Y-140028571D01*
X63722380Y-140219047D01*
X63674761Y-140314285D01*
X63627142Y-140361904D01*
X63531904Y-140409523D01*
X63341428Y-140409523D01*
X63246190Y-140361904D01*
X63198571Y-140314285D01*
X63150952Y-140219047D01*
X62722380Y-141266666D02*
X62722380Y-141076190D01*
X62770000Y-140980952D01*
X62817619Y-140933333D01*
X62960476Y-140838095D01*
X63150952Y-140790476D01*
X63531904Y-140790476D01*
X63627142Y-140838095D01*
X63674761Y-140885714D01*
X63722380Y-140980952D01*
X63722380Y-141171428D01*
X63674761Y-141266666D01*
X63627142Y-141314285D01*
X63531904Y-141361904D01*
X63293809Y-141361904D01*
X63198571Y-141314285D01*
X63150952Y-141266666D01*
X63103333Y-141171428D01*
X63103333Y-140980952D01*
X63150952Y-140885714D01*
X63198571Y-140838095D01*
X63293809Y-140790476D01*
G04 #@! TO.C,C82*
X89142857Y-136357142D02*
X89190476Y-136404761D01*
X89333333Y-136452380D01*
X89428571Y-136452380D01*
X89571428Y-136404761D01*
X89666666Y-136309523D01*
X89714285Y-136214285D01*
X89761904Y-136023809D01*
X89761904Y-135880952D01*
X89714285Y-135690476D01*
X89666666Y-135595238D01*
X89571428Y-135500000D01*
X89428571Y-135452380D01*
X89333333Y-135452380D01*
X89190476Y-135500000D01*
X89142857Y-135547619D01*
X88571428Y-135880952D02*
X88666666Y-135833333D01*
X88714285Y-135785714D01*
X88761904Y-135690476D01*
X88761904Y-135642857D01*
X88714285Y-135547619D01*
X88666666Y-135500000D01*
X88571428Y-135452380D01*
X88380952Y-135452380D01*
X88285714Y-135500000D01*
X88238095Y-135547619D01*
X88190476Y-135642857D01*
X88190476Y-135690476D01*
X88238095Y-135785714D01*
X88285714Y-135833333D01*
X88380952Y-135880952D01*
X88571428Y-135880952D01*
X88666666Y-135928571D01*
X88714285Y-135976190D01*
X88761904Y-136071428D01*
X88761904Y-136261904D01*
X88714285Y-136357142D01*
X88666666Y-136404761D01*
X88571428Y-136452380D01*
X88380952Y-136452380D01*
X88285714Y-136404761D01*
X88238095Y-136357142D01*
X88190476Y-136261904D01*
X88190476Y-136071428D01*
X88238095Y-135976190D01*
X88285714Y-135928571D01*
X88380952Y-135880952D01*
X87809523Y-135547619D02*
X87761904Y-135500000D01*
X87666666Y-135452380D01*
X87428571Y-135452380D01*
X87333333Y-135500000D01*
X87285714Y-135547619D01*
X87238095Y-135642857D01*
X87238095Y-135738095D01*
X87285714Y-135880952D01*
X87857142Y-136452380D01*
X87238095Y-136452380D01*
G04 #@! TO.C,C87*
X63627142Y-136357142D02*
X63674761Y-136309523D01*
X63722380Y-136166666D01*
X63722380Y-136071428D01*
X63674761Y-135928571D01*
X63579523Y-135833333D01*
X63484285Y-135785714D01*
X63293809Y-135738095D01*
X63150952Y-135738095D01*
X62960476Y-135785714D01*
X62865238Y-135833333D01*
X62770000Y-135928571D01*
X62722380Y-136071428D01*
X62722380Y-136166666D01*
X62770000Y-136309523D01*
X62817619Y-136357142D01*
X63150952Y-136928571D02*
X63103333Y-136833333D01*
X63055714Y-136785714D01*
X62960476Y-136738095D01*
X62912857Y-136738095D01*
X62817619Y-136785714D01*
X62770000Y-136833333D01*
X62722380Y-136928571D01*
X62722380Y-137119047D01*
X62770000Y-137214285D01*
X62817619Y-137261904D01*
X62912857Y-137309523D01*
X62960476Y-137309523D01*
X63055714Y-137261904D01*
X63103333Y-137214285D01*
X63150952Y-137119047D01*
X63150952Y-136928571D01*
X63198571Y-136833333D01*
X63246190Y-136785714D01*
X63341428Y-136738095D01*
X63531904Y-136738095D01*
X63627142Y-136785714D01*
X63674761Y-136833333D01*
X63722380Y-136928571D01*
X63722380Y-137119047D01*
X63674761Y-137214285D01*
X63627142Y-137261904D01*
X63531904Y-137309523D01*
X63341428Y-137309523D01*
X63246190Y-137261904D01*
X63198571Y-137214285D01*
X63150952Y-137119047D01*
X62722380Y-137642857D02*
X62722380Y-138309523D01*
X63722380Y-137880952D01*
G04 #@! TO.C,C78*
X78427142Y-134857142D02*
X78474761Y-134809523D01*
X78522380Y-134666666D01*
X78522380Y-134571428D01*
X78474761Y-134428571D01*
X78379523Y-134333333D01*
X78284285Y-134285714D01*
X78093809Y-134238095D01*
X77950952Y-134238095D01*
X77760476Y-134285714D01*
X77665238Y-134333333D01*
X77570000Y-134428571D01*
X77522380Y-134571428D01*
X77522380Y-134666666D01*
X77570000Y-134809523D01*
X77617619Y-134857142D01*
X77522380Y-135190476D02*
X77522380Y-135857142D01*
X78522380Y-135428571D01*
X77950952Y-136380952D02*
X77903333Y-136285714D01*
X77855714Y-136238095D01*
X77760476Y-136190476D01*
X77712857Y-136190476D01*
X77617619Y-136238095D01*
X77570000Y-136285714D01*
X77522380Y-136380952D01*
X77522380Y-136571428D01*
X77570000Y-136666666D01*
X77617619Y-136714285D01*
X77712857Y-136761904D01*
X77760476Y-136761904D01*
X77855714Y-136714285D01*
X77903333Y-136666666D01*
X77950952Y-136571428D01*
X77950952Y-136380952D01*
X77998571Y-136285714D01*
X78046190Y-136238095D01*
X78141428Y-136190476D01*
X78331904Y-136190476D01*
X78427142Y-136238095D01*
X78474761Y-136285714D01*
X78522380Y-136380952D01*
X78522380Y-136571428D01*
X78474761Y-136666666D01*
X78427142Y-136714285D01*
X78331904Y-136761904D01*
X78141428Y-136761904D01*
X78046190Y-136714285D01*
X77998571Y-136666666D01*
X77950952Y-136571428D01*
G04 #@! TO.C,C80*
X78427142Y-138357142D02*
X78474761Y-138309523D01*
X78522380Y-138166666D01*
X78522380Y-138071428D01*
X78474761Y-137928571D01*
X78379523Y-137833333D01*
X78284285Y-137785714D01*
X78093809Y-137738095D01*
X77950952Y-137738095D01*
X77760476Y-137785714D01*
X77665238Y-137833333D01*
X77570000Y-137928571D01*
X77522380Y-138071428D01*
X77522380Y-138166666D01*
X77570000Y-138309523D01*
X77617619Y-138357142D01*
X77950952Y-138928571D02*
X77903333Y-138833333D01*
X77855714Y-138785714D01*
X77760476Y-138738095D01*
X77712857Y-138738095D01*
X77617619Y-138785714D01*
X77570000Y-138833333D01*
X77522380Y-138928571D01*
X77522380Y-139119047D01*
X77570000Y-139214285D01*
X77617619Y-139261904D01*
X77712857Y-139309523D01*
X77760476Y-139309523D01*
X77855714Y-139261904D01*
X77903333Y-139214285D01*
X77950952Y-139119047D01*
X77950952Y-138928571D01*
X77998571Y-138833333D01*
X78046190Y-138785714D01*
X78141428Y-138738095D01*
X78331904Y-138738095D01*
X78427142Y-138785714D01*
X78474761Y-138833333D01*
X78522380Y-138928571D01*
X78522380Y-139119047D01*
X78474761Y-139214285D01*
X78427142Y-139261904D01*
X78331904Y-139309523D01*
X78141428Y-139309523D01*
X78046190Y-139261904D01*
X77998571Y-139214285D01*
X77950952Y-139119047D01*
X77522380Y-139928571D02*
X77522380Y-140023809D01*
X77570000Y-140119047D01*
X77617619Y-140166666D01*
X77712857Y-140214285D01*
X77903333Y-140261904D01*
X78141428Y-140261904D01*
X78331904Y-140214285D01*
X78427142Y-140166666D01*
X78474761Y-140119047D01*
X78522380Y-140023809D01*
X78522380Y-139928571D01*
X78474761Y-139833333D01*
X78427142Y-139785714D01*
X78331904Y-139738095D01*
X78141428Y-139690476D01*
X77903333Y-139690476D01*
X77712857Y-139738095D01*
X77617619Y-139785714D01*
X77570000Y-139833333D01*
X77522380Y-139928571D01*
G04 #@! TO.C,C75*
X63627142Y-127957142D02*
X63674761Y-127909523D01*
X63722380Y-127766666D01*
X63722380Y-127671428D01*
X63674761Y-127528571D01*
X63579523Y-127433333D01*
X63484285Y-127385714D01*
X63293809Y-127338095D01*
X63150952Y-127338095D01*
X62960476Y-127385714D01*
X62865238Y-127433333D01*
X62770000Y-127528571D01*
X62722380Y-127671428D01*
X62722380Y-127766666D01*
X62770000Y-127909523D01*
X62817619Y-127957142D01*
X62722380Y-128290476D02*
X62722380Y-128957142D01*
X63722380Y-128528571D01*
X62722380Y-129814285D02*
X62722380Y-129338095D01*
X63198571Y-129290476D01*
X63150952Y-129338095D01*
X63103333Y-129433333D01*
X63103333Y-129671428D01*
X63150952Y-129766666D01*
X63198571Y-129814285D01*
X63293809Y-129861904D01*
X63531904Y-129861904D01*
X63627142Y-129814285D01*
X63674761Y-129766666D01*
X63722380Y-129671428D01*
X63722380Y-129433333D01*
X63674761Y-129338095D01*
X63627142Y-129290476D01*
G04 #@! TO.C,C70*
X71142857Y-124857142D02*
X71190476Y-124904761D01*
X71333333Y-124952380D01*
X71428571Y-124952380D01*
X71571428Y-124904761D01*
X71666666Y-124809523D01*
X71714285Y-124714285D01*
X71761904Y-124523809D01*
X71761904Y-124380952D01*
X71714285Y-124190476D01*
X71666666Y-124095238D01*
X71571428Y-124000000D01*
X71428571Y-123952380D01*
X71333333Y-123952380D01*
X71190476Y-124000000D01*
X71142857Y-124047619D01*
X70809523Y-123952380D02*
X70142857Y-123952380D01*
X70571428Y-124952380D01*
X69571428Y-123952380D02*
X69476190Y-123952380D01*
X69380952Y-124000000D01*
X69333333Y-124047619D01*
X69285714Y-124142857D01*
X69238095Y-124333333D01*
X69238095Y-124571428D01*
X69285714Y-124761904D01*
X69333333Y-124857142D01*
X69380952Y-124904761D01*
X69476190Y-124952380D01*
X69571428Y-124952380D01*
X69666666Y-124904761D01*
X69714285Y-124857142D01*
X69761904Y-124761904D01*
X69809523Y-124571428D01*
X69809523Y-124333333D01*
X69761904Y-124142857D01*
X69714285Y-124047619D01*
X69666666Y-124000000D01*
X69571428Y-123952380D01*
G04 #@! TO.C,C74*
X71142857Y-129857142D02*
X71190476Y-129904761D01*
X71333333Y-129952380D01*
X71428571Y-129952380D01*
X71571428Y-129904761D01*
X71666666Y-129809523D01*
X71714285Y-129714285D01*
X71761904Y-129523809D01*
X71761904Y-129380952D01*
X71714285Y-129190476D01*
X71666666Y-129095238D01*
X71571428Y-129000000D01*
X71428571Y-128952380D01*
X71333333Y-128952380D01*
X71190476Y-129000000D01*
X71142857Y-129047619D01*
X70809523Y-128952380D02*
X70142857Y-128952380D01*
X70571428Y-129952380D01*
X69333333Y-129285714D02*
X69333333Y-129952380D01*
X69571428Y-128904761D02*
X69809523Y-129619047D01*
X69190476Y-129619047D01*
G04 #@! TO.C,C76*
X63627142Y-124857142D02*
X63674761Y-124809523D01*
X63722380Y-124666666D01*
X63722380Y-124571428D01*
X63674761Y-124428571D01*
X63579523Y-124333333D01*
X63484285Y-124285714D01*
X63293809Y-124238095D01*
X63150952Y-124238095D01*
X62960476Y-124285714D01*
X62865238Y-124333333D01*
X62770000Y-124428571D01*
X62722380Y-124571428D01*
X62722380Y-124666666D01*
X62770000Y-124809523D01*
X62817619Y-124857142D01*
X62722380Y-125190476D02*
X62722380Y-125857142D01*
X63722380Y-125428571D01*
X62722380Y-126666666D02*
X62722380Y-126476190D01*
X62770000Y-126380952D01*
X62817619Y-126333333D01*
X62960476Y-126238095D01*
X63150952Y-126190476D01*
X63531904Y-126190476D01*
X63627142Y-126238095D01*
X63674761Y-126285714D01*
X63722380Y-126380952D01*
X63722380Y-126571428D01*
X63674761Y-126666666D01*
X63627142Y-126714285D01*
X63531904Y-126761904D01*
X63293809Y-126761904D01*
X63198571Y-126714285D01*
X63150952Y-126666666D01*
X63103333Y-126571428D01*
X63103333Y-126380952D01*
X63150952Y-126285714D01*
X63198571Y-126238095D01*
X63293809Y-126190476D01*
G04 #@! TO.C,C71*
X89142857Y-124857142D02*
X89190476Y-124904761D01*
X89333333Y-124952380D01*
X89428571Y-124952380D01*
X89571428Y-124904761D01*
X89666666Y-124809523D01*
X89714285Y-124714285D01*
X89761904Y-124523809D01*
X89761904Y-124380952D01*
X89714285Y-124190476D01*
X89666666Y-124095238D01*
X89571428Y-124000000D01*
X89428571Y-123952380D01*
X89333333Y-123952380D01*
X89190476Y-124000000D01*
X89142857Y-124047619D01*
X88809523Y-123952380D02*
X88142857Y-123952380D01*
X88571428Y-124952380D01*
X87238095Y-124952380D02*
X87809523Y-124952380D01*
X87523809Y-124952380D02*
X87523809Y-123952380D01*
X87619047Y-124095238D01*
X87714285Y-124190476D01*
X87809523Y-124238095D01*
G04 #@! TO.C,C69*
X78427142Y-126857142D02*
X78474761Y-126809523D01*
X78522380Y-126666666D01*
X78522380Y-126571428D01*
X78474761Y-126428571D01*
X78379523Y-126333333D01*
X78284285Y-126285714D01*
X78093809Y-126238095D01*
X77950952Y-126238095D01*
X77760476Y-126285714D01*
X77665238Y-126333333D01*
X77570000Y-126428571D01*
X77522380Y-126571428D01*
X77522380Y-126666666D01*
X77570000Y-126809523D01*
X77617619Y-126857142D01*
X77522380Y-127714285D02*
X77522380Y-127523809D01*
X77570000Y-127428571D01*
X77617619Y-127380952D01*
X77760476Y-127285714D01*
X77950952Y-127238095D01*
X78331904Y-127238095D01*
X78427142Y-127285714D01*
X78474761Y-127333333D01*
X78522380Y-127428571D01*
X78522380Y-127619047D01*
X78474761Y-127714285D01*
X78427142Y-127761904D01*
X78331904Y-127809523D01*
X78093809Y-127809523D01*
X77998571Y-127761904D01*
X77950952Y-127714285D01*
X77903333Y-127619047D01*
X77903333Y-127428571D01*
X77950952Y-127333333D01*
X77998571Y-127285714D01*
X78093809Y-127238095D01*
X78522380Y-128285714D02*
X78522380Y-128476190D01*
X78474761Y-128571428D01*
X78427142Y-128619047D01*
X78284285Y-128714285D01*
X78093809Y-128761904D01*
X77712857Y-128761904D01*
X77617619Y-128714285D01*
X77570000Y-128666666D01*
X77522380Y-128571428D01*
X77522380Y-128380952D01*
X77570000Y-128285714D01*
X77617619Y-128238095D01*
X77712857Y-128190476D01*
X77950952Y-128190476D01*
X78046190Y-128238095D01*
X78093809Y-128285714D01*
X78141428Y-128380952D01*
X78141428Y-128571428D01*
X78093809Y-128666666D01*
X78046190Y-128714285D01*
X77950952Y-128761904D01*
G04 #@! TO.C,C67*
X78427142Y-123357142D02*
X78474761Y-123309523D01*
X78522380Y-123166666D01*
X78522380Y-123071428D01*
X78474761Y-122928571D01*
X78379523Y-122833333D01*
X78284285Y-122785714D01*
X78093809Y-122738095D01*
X77950952Y-122738095D01*
X77760476Y-122785714D01*
X77665238Y-122833333D01*
X77570000Y-122928571D01*
X77522380Y-123071428D01*
X77522380Y-123166666D01*
X77570000Y-123309523D01*
X77617619Y-123357142D01*
X77522380Y-124214285D02*
X77522380Y-124023809D01*
X77570000Y-123928571D01*
X77617619Y-123880952D01*
X77760476Y-123785714D01*
X77950952Y-123738095D01*
X78331904Y-123738095D01*
X78427142Y-123785714D01*
X78474761Y-123833333D01*
X78522380Y-123928571D01*
X78522380Y-124119047D01*
X78474761Y-124214285D01*
X78427142Y-124261904D01*
X78331904Y-124309523D01*
X78093809Y-124309523D01*
X77998571Y-124261904D01*
X77950952Y-124214285D01*
X77903333Y-124119047D01*
X77903333Y-123928571D01*
X77950952Y-123833333D01*
X77998571Y-123785714D01*
X78093809Y-123738095D01*
X77522380Y-124642857D02*
X77522380Y-125309523D01*
X78522380Y-124880952D01*
G04 #@! TO.C,C56*
X78427142Y-111957142D02*
X78474761Y-111909523D01*
X78522380Y-111766666D01*
X78522380Y-111671428D01*
X78474761Y-111528571D01*
X78379523Y-111433333D01*
X78284285Y-111385714D01*
X78093809Y-111338095D01*
X77950952Y-111338095D01*
X77760476Y-111385714D01*
X77665238Y-111433333D01*
X77570000Y-111528571D01*
X77522380Y-111671428D01*
X77522380Y-111766666D01*
X77570000Y-111909523D01*
X77617619Y-111957142D01*
X77522380Y-112861904D02*
X77522380Y-112385714D01*
X77998571Y-112338095D01*
X77950952Y-112385714D01*
X77903333Y-112480952D01*
X77903333Y-112719047D01*
X77950952Y-112814285D01*
X77998571Y-112861904D01*
X78093809Y-112909523D01*
X78331904Y-112909523D01*
X78427142Y-112861904D01*
X78474761Y-112814285D01*
X78522380Y-112719047D01*
X78522380Y-112480952D01*
X78474761Y-112385714D01*
X78427142Y-112338095D01*
X77522380Y-113766666D02*
X77522380Y-113576190D01*
X77570000Y-113480952D01*
X77617619Y-113433333D01*
X77760476Y-113338095D01*
X77950952Y-113290476D01*
X78331904Y-113290476D01*
X78427142Y-113338095D01*
X78474761Y-113385714D01*
X78522380Y-113480952D01*
X78522380Y-113671428D01*
X78474761Y-113766666D01*
X78427142Y-113814285D01*
X78331904Y-113861904D01*
X78093809Y-113861904D01*
X77998571Y-113814285D01*
X77950952Y-113766666D01*
X77903333Y-113671428D01*
X77903333Y-113480952D01*
X77950952Y-113385714D01*
X77998571Y-113338095D01*
X78093809Y-113290476D01*
G04 #@! TO.C,C58*
X78427142Y-115157142D02*
X78474761Y-115109523D01*
X78522380Y-114966666D01*
X78522380Y-114871428D01*
X78474761Y-114728571D01*
X78379523Y-114633333D01*
X78284285Y-114585714D01*
X78093809Y-114538095D01*
X77950952Y-114538095D01*
X77760476Y-114585714D01*
X77665238Y-114633333D01*
X77570000Y-114728571D01*
X77522380Y-114871428D01*
X77522380Y-114966666D01*
X77570000Y-115109523D01*
X77617619Y-115157142D01*
X77522380Y-116061904D02*
X77522380Y-115585714D01*
X77998571Y-115538095D01*
X77950952Y-115585714D01*
X77903333Y-115680952D01*
X77903333Y-115919047D01*
X77950952Y-116014285D01*
X77998571Y-116061904D01*
X78093809Y-116109523D01*
X78331904Y-116109523D01*
X78427142Y-116061904D01*
X78474761Y-116014285D01*
X78522380Y-115919047D01*
X78522380Y-115680952D01*
X78474761Y-115585714D01*
X78427142Y-115538095D01*
X77950952Y-116680952D02*
X77903333Y-116585714D01*
X77855714Y-116538095D01*
X77760476Y-116490476D01*
X77712857Y-116490476D01*
X77617619Y-116538095D01*
X77570000Y-116585714D01*
X77522380Y-116680952D01*
X77522380Y-116871428D01*
X77570000Y-116966666D01*
X77617619Y-117014285D01*
X77712857Y-117061904D01*
X77760476Y-117061904D01*
X77855714Y-117014285D01*
X77903333Y-116966666D01*
X77950952Y-116871428D01*
X77950952Y-116680952D01*
X77998571Y-116585714D01*
X78046190Y-116538095D01*
X78141428Y-116490476D01*
X78331904Y-116490476D01*
X78427142Y-116538095D01*
X78474761Y-116585714D01*
X78522380Y-116680952D01*
X78522380Y-116871428D01*
X78474761Y-116966666D01*
X78427142Y-117014285D01*
X78331904Y-117061904D01*
X78141428Y-117061904D01*
X78046190Y-117014285D01*
X77998571Y-116966666D01*
X77950952Y-116871428D01*
G04 #@! TO.C,C62*
X89142857Y-113357142D02*
X89190476Y-113404761D01*
X89333333Y-113452380D01*
X89428571Y-113452380D01*
X89571428Y-113404761D01*
X89666666Y-113309523D01*
X89714285Y-113214285D01*
X89761904Y-113023809D01*
X89761904Y-112880952D01*
X89714285Y-112690476D01*
X89666666Y-112595238D01*
X89571428Y-112500000D01*
X89428571Y-112452380D01*
X89333333Y-112452380D01*
X89190476Y-112500000D01*
X89142857Y-112547619D01*
X88285714Y-112452380D02*
X88476190Y-112452380D01*
X88571428Y-112500000D01*
X88619047Y-112547619D01*
X88714285Y-112690476D01*
X88761904Y-112880952D01*
X88761904Y-113261904D01*
X88714285Y-113357142D01*
X88666666Y-113404761D01*
X88571428Y-113452380D01*
X88380952Y-113452380D01*
X88285714Y-113404761D01*
X88238095Y-113357142D01*
X88190476Y-113261904D01*
X88190476Y-113023809D01*
X88238095Y-112928571D01*
X88285714Y-112880952D01*
X88380952Y-112833333D01*
X88571428Y-112833333D01*
X88666666Y-112880952D01*
X88714285Y-112928571D01*
X88761904Y-113023809D01*
X87809523Y-112547619D02*
X87761904Y-112500000D01*
X87666666Y-112452380D01*
X87428571Y-112452380D01*
X87333333Y-112500000D01*
X87285714Y-112547619D01*
X87238095Y-112642857D01*
X87238095Y-112738095D01*
X87285714Y-112880952D01*
X87857142Y-113452380D01*
X87238095Y-113452380D01*
G04 #@! TO.C,C59*
X71142857Y-113357142D02*
X71190476Y-113404761D01*
X71333333Y-113452380D01*
X71428571Y-113452380D01*
X71571428Y-113404761D01*
X71666666Y-113309523D01*
X71714285Y-113214285D01*
X71761904Y-113023809D01*
X71761904Y-112880952D01*
X71714285Y-112690476D01*
X71666666Y-112595238D01*
X71571428Y-112500000D01*
X71428571Y-112452380D01*
X71333333Y-112452380D01*
X71190476Y-112500000D01*
X71142857Y-112547619D01*
X70238095Y-112452380D02*
X70714285Y-112452380D01*
X70761904Y-112928571D01*
X70714285Y-112880952D01*
X70619047Y-112833333D01*
X70380952Y-112833333D01*
X70285714Y-112880952D01*
X70238095Y-112928571D01*
X70190476Y-113023809D01*
X70190476Y-113261904D01*
X70238095Y-113357142D01*
X70285714Y-113404761D01*
X70380952Y-113452380D01*
X70619047Y-113452380D01*
X70714285Y-113404761D01*
X70761904Y-113357142D01*
X69714285Y-113452380D02*
X69523809Y-113452380D01*
X69428571Y-113404761D01*
X69380952Y-113357142D01*
X69285714Y-113214285D01*
X69238095Y-113023809D01*
X69238095Y-112642857D01*
X69285714Y-112547619D01*
X69333333Y-112500000D01*
X69428571Y-112452380D01*
X69619047Y-112452380D01*
X69714285Y-112500000D01*
X69761904Y-112547619D01*
X69809523Y-112642857D01*
X69809523Y-112880952D01*
X69761904Y-112976190D01*
X69714285Y-113023809D01*
X69619047Y-113071428D01*
X69428571Y-113071428D01*
X69333333Y-113023809D01*
X69285714Y-112976190D01*
X69238095Y-112880952D01*
G04 #@! TO.C,C63*
X71142857Y-118357142D02*
X71190476Y-118404761D01*
X71333333Y-118452380D01*
X71428571Y-118452380D01*
X71571428Y-118404761D01*
X71666666Y-118309523D01*
X71714285Y-118214285D01*
X71761904Y-118023809D01*
X71761904Y-117880952D01*
X71714285Y-117690476D01*
X71666666Y-117595238D01*
X71571428Y-117500000D01*
X71428571Y-117452380D01*
X71333333Y-117452380D01*
X71190476Y-117500000D01*
X71142857Y-117547619D01*
X70285714Y-117452380D02*
X70476190Y-117452380D01*
X70571428Y-117500000D01*
X70619047Y-117547619D01*
X70714285Y-117690476D01*
X70761904Y-117880952D01*
X70761904Y-118261904D01*
X70714285Y-118357142D01*
X70666666Y-118404761D01*
X70571428Y-118452380D01*
X70380952Y-118452380D01*
X70285714Y-118404761D01*
X70238095Y-118357142D01*
X70190476Y-118261904D01*
X70190476Y-118023809D01*
X70238095Y-117928571D01*
X70285714Y-117880952D01*
X70380952Y-117833333D01*
X70571428Y-117833333D01*
X70666666Y-117880952D01*
X70714285Y-117928571D01*
X70761904Y-118023809D01*
X69857142Y-117452380D02*
X69238095Y-117452380D01*
X69571428Y-117833333D01*
X69428571Y-117833333D01*
X69333333Y-117880952D01*
X69285714Y-117928571D01*
X69238095Y-118023809D01*
X69238095Y-118261904D01*
X69285714Y-118357142D01*
X69333333Y-118404761D01*
X69428571Y-118452380D01*
X69714285Y-118452380D01*
X69809523Y-118404761D01*
X69857142Y-118357142D01*
G04 #@! TO.C,C64*
X63627142Y-116457142D02*
X63674761Y-116409523D01*
X63722380Y-116266666D01*
X63722380Y-116171428D01*
X63674761Y-116028571D01*
X63579523Y-115933333D01*
X63484285Y-115885714D01*
X63293809Y-115838095D01*
X63150952Y-115838095D01*
X62960476Y-115885714D01*
X62865238Y-115933333D01*
X62770000Y-116028571D01*
X62722380Y-116171428D01*
X62722380Y-116266666D01*
X62770000Y-116409523D01*
X62817619Y-116457142D01*
X62722380Y-117314285D02*
X62722380Y-117123809D01*
X62770000Y-117028571D01*
X62817619Y-116980952D01*
X62960476Y-116885714D01*
X63150952Y-116838095D01*
X63531904Y-116838095D01*
X63627142Y-116885714D01*
X63674761Y-116933333D01*
X63722380Y-117028571D01*
X63722380Y-117219047D01*
X63674761Y-117314285D01*
X63627142Y-117361904D01*
X63531904Y-117409523D01*
X63293809Y-117409523D01*
X63198571Y-117361904D01*
X63150952Y-117314285D01*
X63103333Y-117219047D01*
X63103333Y-117028571D01*
X63150952Y-116933333D01*
X63198571Y-116885714D01*
X63293809Y-116838095D01*
X63055714Y-118266666D02*
X63722380Y-118266666D01*
X62674761Y-118028571D02*
X63389047Y-117790476D01*
X63389047Y-118409523D01*
G04 #@! TO.C,C65*
X63627142Y-113357142D02*
X63674761Y-113309523D01*
X63722380Y-113166666D01*
X63722380Y-113071428D01*
X63674761Y-112928571D01*
X63579523Y-112833333D01*
X63484285Y-112785714D01*
X63293809Y-112738095D01*
X63150952Y-112738095D01*
X62960476Y-112785714D01*
X62865238Y-112833333D01*
X62770000Y-112928571D01*
X62722380Y-113071428D01*
X62722380Y-113166666D01*
X62770000Y-113309523D01*
X62817619Y-113357142D01*
X62722380Y-114214285D02*
X62722380Y-114023809D01*
X62770000Y-113928571D01*
X62817619Y-113880952D01*
X62960476Y-113785714D01*
X63150952Y-113738095D01*
X63531904Y-113738095D01*
X63627142Y-113785714D01*
X63674761Y-113833333D01*
X63722380Y-113928571D01*
X63722380Y-114119047D01*
X63674761Y-114214285D01*
X63627142Y-114261904D01*
X63531904Y-114309523D01*
X63293809Y-114309523D01*
X63198571Y-114261904D01*
X63150952Y-114214285D01*
X63103333Y-114119047D01*
X63103333Y-113928571D01*
X63150952Y-113833333D01*
X63198571Y-113785714D01*
X63293809Y-113738095D01*
X62722380Y-115214285D02*
X62722380Y-114738095D01*
X63198571Y-114690476D01*
X63150952Y-114738095D01*
X63103333Y-114833333D01*
X63103333Y-115071428D01*
X63150952Y-115166666D01*
X63198571Y-115214285D01*
X63293809Y-115261904D01*
X63531904Y-115261904D01*
X63627142Y-115214285D01*
X63674761Y-115166666D01*
X63722380Y-115071428D01*
X63722380Y-114833333D01*
X63674761Y-114738095D01*
X63627142Y-114690476D01*
G04 #@! TO.C,C47*
X115642857Y-160857142D02*
X115690476Y-160904761D01*
X115833333Y-160952380D01*
X115928571Y-160952380D01*
X116071428Y-160904761D01*
X116166666Y-160809523D01*
X116214285Y-160714285D01*
X116261904Y-160523809D01*
X116261904Y-160380952D01*
X116214285Y-160190476D01*
X116166666Y-160095238D01*
X116071428Y-160000000D01*
X115928571Y-159952380D01*
X115833333Y-159952380D01*
X115690476Y-160000000D01*
X115642857Y-160047619D01*
X114785714Y-160285714D02*
X114785714Y-160952380D01*
X115023809Y-159904761D02*
X115261904Y-160619047D01*
X114642857Y-160619047D01*
X114357142Y-159952380D02*
X113690476Y-159952380D01*
X114119047Y-160952380D01*
G04 #@! TO.C,C53*
X92857142Y-155857142D02*
X92904761Y-155809523D01*
X92952380Y-155666666D01*
X92952380Y-155571428D01*
X92904761Y-155428571D01*
X92809523Y-155333333D01*
X92714285Y-155285714D01*
X92523809Y-155238095D01*
X92380952Y-155238095D01*
X92190476Y-155285714D01*
X92095238Y-155333333D01*
X92000000Y-155428571D01*
X91952380Y-155571428D01*
X91952380Y-155666666D01*
X92000000Y-155809523D01*
X92047619Y-155857142D01*
X91952380Y-156761904D02*
X91952380Y-156285714D01*
X92428571Y-156238095D01*
X92380952Y-156285714D01*
X92333333Y-156380952D01*
X92333333Y-156619047D01*
X92380952Y-156714285D01*
X92428571Y-156761904D01*
X92523809Y-156809523D01*
X92761904Y-156809523D01*
X92857142Y-156761904D01*
X92904761Y-156714285D01*
X92952380Y-156619047D01*
X92952380Y-156380952D01*
X92904761Y-156285714D01*
X92857142Y-156238095D01*
X91952380Y-157142857D02*
X91952380Y-157761904D01*
X92333333Y-157428571D01*
X92333333Y-157571428D01*
X92380952Y-157666666D01*
X92428571Y-157714285D01*
X92523809Y-157761904D01*
X92761904Y-157761904D01*
X92857142Y-157714285D01*
X92904761Y-157666666D01*
X92952380Y-157571428D01*
X92952380Y-157285714D01*
X92904761Y-157190476D01*
X92857142Y-157142857D01*
G04 #@! TO.C,C51*
X92857142Y-159857142D02*
X92904761Y-159809523D01*
X92952380Y-159666666D01*
X92952380Y-159571428D01*
X92904761Y-159428571D01*
X92809523Y-159333333D01*
X92714285Y-159285714D01*
X92523809Y-159238095D01*
X92380952Y-159238095D01*
X92190476Y-159285714D01*
X92095238Y-159333333D01*
X92000000Y-159428571D01*
X91952380Y-159571428D01*
X91952380Y-159666666D01*
X92000000Y-159809523D01*
X92047619Y-159857142D01*
X91952380Y-160761904D02*
X91952380Y-160285714D01*
X92428571Y-160238095D01*
X92380952Y-160285714D01*
X92333333Y-160380952D01*
X92333333Y-160619047D01*
X92380952Y-160714285D01*
X92428571Y-160761904D01*
X92523809Y-160809523D01*
X92761904Y-160809523D01*
X92857142Y-160761904D01*
X92904761Y-160714285D01*
X92952380Y-160619047D01*
X92952380Y-160380952D01*
X92904761Y-160285714D01*
X92857142Y-160238095D01*
X92952380Y-161761904D02*
X92952380Y-161190476D01*
X92952380Y-161476190D02*
X91952380Y-161476190D01*
X92095238Y-161380952D01*
X92190476Y-161285714D01*
X92238095Y-161190476D01*
G04 #@! TO.C,C49*
X92857142Y-164357142D02*
X92904761Y-164309523D01*
X92952380Y-164166666D01*
X92952380Y-164071428D01*
X92904761Y-163928571D01*
X92809523Y-163833333D01*
X92714285Y-163785714D01*
X92523809Y-163738095D01*
X92380952Y-163738095D01*
X92190476Y-163785714D01*
X92095238Y-163833333D01*
X92000000Y-163928571D01*
X91952380Y-164071428D01*
X91952380Y-164166666D01*
X92000000Y-164309523D01*
X92047619Y-164357142D01*
X92285714Y-165214285D02*
X92952380Y-165214285D01*
X91904761Y-164976190D02*
X92619047Y-164738095D01*
X92619047Y-165357142D01*
X92952380Y-165785714D02*
X92952380Y-165976190D01*
X92904761Y-166071428D01*
X92857142Y-166119047D01*
X92714285Y-166214285D01*
X92523809Y-166261904D01*
X92142857Y-166261904D01*
X92047619Y-166214285D01*
X92000000Y-166166666D01*
X91952380Y-166071428D01*
X91952380Y-165880952D01*
X92000000Y-165785714D01*
X92047619Y-165738095D01*
X92142857Y-165690476D01*
X92380952Y-165690476D01*
X92476190Y-165738095D01*
X92523809Y-165785714D01*
X92571428Y-165880952D01*
X92571428Y-166071428D01*
X92523809Y-166166666D01*
X92476190Y-166214285D01*
X92380952Y-166261904D01*
G04 #@! TO.C,C45*
X111642857Y-160857142D02*
X111690476Y-160904761D01*
X111833333Y-160952380D01*
X111928571Y-160952380D01*
X112071428Y-160904761D01*
X112166666Y-160809523D01*
X112214285Y-160714285D01*
X112261904Y-160523809D01*
X112261904Y-160380952D01*
X112214285Y-160190476D01*
X112166666Y-160095238D01*
X112071428Y-160000000D01*
X111928571Y-159952380D01*
X111833333Y-159952380D01*
X111690476Y-160000000D01*
X111642857Y-160047619D01*
X110785714Y-160285714D02*
X110785714Y-160952380D01*
X111023809Y-159904761D02*
X111261904Y-160619047D01*
X110642857Y-160619047D01*
X109785714Y-159952380D02*
X110261904Y-159952380D01*
X110309523Y-160428571D01*
X110261904Y-160380952D01*
X110166666Y-160333333D01*
X109928571Y-160333333D01*
X109833333Y-160380952D01*
X109785714Y-160428571D01*
X109738095Y-160523809D01*
X109738095Y-160761904D01*
X109785714Y-160857142D01*
X109833333Y-160904761D01*
X109928571Y-160952380D01*
X110166666Y-160952380D01*
X110261904Y-160904761D01*
X110309523Y-160857142D01*
G04 #@! TO.C,C37*
X107642857Y-160857142D02*
X107690476Y-160904761D01*
X107833333Y-160952380D01*
X107928571Y-160952380D01*
X108071428Y-160904761D01*
X108166666Y-160809523D01*
X108214285Y-160714285D01*
X108261904Y-160523809D01*
X108261904Y-160380952D01*
X108214285Y-160190476D01*
X108166666Y-160095238D01*
X108071428Y-160000000D01*
X107928571Y-159952380D01*
X107833333Y-159952380D01*
X107690476Y-160000000D01*
X107642857Y-160047619D01*
X107309523Y-159952380D02*
X106690476Y-159952380D01*
X107023809Y-160333333D01*
X106880952Y-160333333D01*
X106785714Y-160380952D01*
X106738095Y-160428571D01*
X106690476Y-160523809D01*
X106690476Y-160761904D01*
X106738095Y-160857142D01*
X106785714Y-160904761D01*
X106880952Y-160952380D01*
X107166666Y-160952380D01*
X107261904Y-160904761D01*
X107309523Y-160857142D01*
X106357142Y-159952380D02*
X105690476Y-159952380D01*
X106119047Y-160952380D01*
G04 #@! TO.C,C29*
X112857142Y-110257142D02*
X112904761Y-110209523D01*
X112952380Y-110066666D01*
X112952380Y-109971428D01*
X112904761Y-109828571D01*
X112809523Y-109733333D01*
X112714285Y-109685714D01*
X112523809Y-109638095D01*
X112380952Y-109638095D01*
X112190476Y-109685714D01*
X112095238Y-109733333D01*
X112000000Y-109828571D01*
X111952380Y-109971428D01*
X111952380Y-110066666D01*
X112000000Y-110209523D01*
X112047619Y-110257142D01*
X112047619Y-110638095D02*
X112000000Y-110685714D01*
X111952380Y-110780952D01*
X111952380Y-111019047D01*
X112000000Y-111114285D01*
X112047619Y-111161904D01*
X112142857Y-111209523D01*
X112238095Y-111209523D01*
X112380952Y-111161904D01*
X112952380Y-110590476D01*
X112952380Y-111209523D01*
X112952380Y-111685714D02*
X112952380Y-111876190D01*
X112904761Y-111971428D01*
X112857142Y-112019047D01*
X112714285Y-112114285D01*
X112523809Y-112161904D01*
X112142857Y-112161904D01*
X112047619Y-112114285D01*
X112000000Y-112066666D01*
X111952380Y-111971428D01*
X111952380Y-111780952D01*
X112000000Y-111685714D01*
X112047619Y-111638095D01*
X112142857Y-111590476D01*
X112380952Y-111590476D01*
X112476190Y-111638095D01*
X112523809Y-111685714D01*
X112571428Y-111780952D01*
X112571428Y-111971428D01*
X112523809Y-112066666D01*
X112476190Y-112114285D01*
X112380952Y-112161904D01*
G04 #@! TO.C,C42*
X116642857Y-152357142D02*
X116690476Y-152404761D01*
X116833333Y-152452380D01*
X116928571Y-152452380D01*
X117071428Y-152404761D01*
X117166666Y-152309523D01*
X117214285Y-152214285D01*
X117261904Y-152023809D01*
X117261904Y-151880952D01*
X117214285Y-151690476D01*
X117166666Y-151595238D01*
X117071428Y-151500000D01*
X116928571Y-151452380D01*
X116833333Y-151452380D01*
X116690476Y-151500000D01*
X116642857Y-151547619D01*
X115785714Y-151785714D02*
X115785714Y-152452380D01*
X116023809Y-151404761D02*
X116261904Y-152119047D01*
X115642857Y-152119047D01*
X115309523Y-151547619D02*
X115261904Y-151500000D01*
X115166666Y-151452380D01*
X114928571Y-151452380D01*
X114833333Y-151500000D01*
X114785714Y-151547619D01*
X114738095Y-151642857D01*
X114738095Y-151738095D01*
X114785714Y-151880952D01*
X115357142Y-152452380D01*
X114738095Y-152452380D01*
G04 #@! TO.C,C39*
X116642857Y-147357142D02*
X116690476Y-147404761D01*
X116833333Y-147452380D01*
X116928571Y-147452380D01*
X117071428Y-147404761D01*
X117166666Y-147309523D01*
X117214285Y-147214285D01*
X117261904Y-147023809D01*
X117261904Y-146880952D01*
X117214285Y-146690476D01*
X117166666Y-146595238D01*
X117071428Y-146500000D01*
X116928571Y-146452380D01*
X116833333Y-146452380D01*
X116690476Y-146500000D01*
X116642857Y-146547619D01*
X116309523Y-146452380D02*
X115690476Y-146452380D01*
X116023809Y-146833333D01*
X115880952Y-146833333D01*
X115785714Y-146880952D01*
X115738095Y-146928571D01*
X115690476Y-147023809D01*
X115690476Y-147261904D01*
X115738095Y-147357142D01*
X115785714Y-147404761D01*
X115880952Y-147452380D01*
X116166666Y-147452380D01*
X116261904Y-147404761D01*
X116309523Y-147357142D01*
X115214285Y-147452380D02*
X115023809Y-147452380D01*
X114928571Y-147404761D01*
X114880952Y-147357142D01*
X114785714Y-147214285D01*
X114738095Y-147023809D01*
X114738095Y-146642857D01*
X114785714Y-146547619D01*
X114833333Y-146500000D01*
X114928571Y-146452380D01*
X115119047Y-146452380D01*
X115214285Y-146500000D01*
X115261904Y-146547619D01*
X115309523Y-146642857D01*
X115309523Y-146880952D01*
X115261904Y-146976190D01*
X115214285Y-147023809D01*
X115119047Y-147071428D01*
X114928571Y-147071428D01*
X114833333Y-147023809D01*
X114785714Y-146976190D01*
X114738095Y-146880952D01*
G04 #@! TO.C,C28*
X102642857Y-135357142D02*
X102690476Y-135404761D01*
X102833333Y-135452380D01*
X102928571Y-135452380D01*
X103071428Y-135404761D01*
X103166666Y-135309523D01*
X103214285Y-135214285D01*
X103261904Y-135023809D01*
X103261904Y-134880952D01*
X103214285Y-134690476D01*
X103166666Y-134595238D01*
X103071428Y-134500000D01*
X102928571Y-134452380D01*
X102833333Y-134452380D01*
X102690476Y-134500000D01*
X102642857Y-134547619D01*
X102261904Y-134547619D02*
X102214285Y-134500000D01*
X102119047Y-134452380D01*
X101880952Y-134452380D01*
X101785714Y-134500000D01*
X101738095Y-134547619D01*
X101690476Y-134642857D01*
X101690476Y-134738095D01*
X101738095Y-134880952D01*
X102309523Y-135452380D01*
X101690476Y-135452380D01*
X101119047Y-134880952D02*
X101214285Y-134833333D01*
X101261904Y-134785714D01*
X101309523Y-134690476D01*
X101309523Y-134642857D01*
X101261904Y-134547619D01*
X101214285Y-134500000D01*
X101119047Y-134452380D01*
X100928571Y-134452380D01*
X100833333Y-134500000D01*
X100785714Y-134547619D01*
X100738095Y-134642857D01*
X100738095Y-134690476D01*
X100785714Y-134785714D01*
X100833333Y-134833333D01*
X100928571Y-134880952D01*
X101119047Y-134880952D01*
X101214285Y-134928571D01*
X101261904Y-134976190D01*
X101309523Y-135071428D01*
X101309523Y-135261904D01*
X101261904Y-135357142D01*
X101214285Y-135404761D01*
X101119047Y-135452380D01*
X100928571Y-135452380D01*
X100833333Y-135404761D01*
X100785714Y-135357142D01*
X100738095Y-135261904D01*
X100738095Y-135071428D01*
X100785714Y-134976190D01*
X100833333Y-134928571D01*
X100928571Y-134880952D01*
G04 #@! TO.C,C25*
X102642857Y-140357142D02*
X102690476Y-140404761D01*
X102833333Y-140452380D01*
X102928571Y-140452380D01*
X103071428Y-140404761D01*
X103166666Y-140309523D01*
X103214285Y-140214285D01*
X103261904Y-140023809D01*
X103261904Y-139880952D01*
X103214285Y-139690476D01*
X103166666Y-139595238D01*
X103071428Y-139500000D01*
X102928571Y-139452380D01*
X102833333Y-139452380D01*
X102690476Y-139500000D01*
X102642857Y-139547619D01*
X102261904Y-139547619D02*
X102214285Y-139500000D01*
X102119047Y-139452380D01*
X101880952Y-139452380D01*
X101785714Y-139500000D01*
X101738095Y-139547619D01*
X101690476Y-139642857D01*
X101690476Y-139738095D01*
X101738095Y-139880952D01*
X102309523Y-140452380D01*
X101690476Y-140452380D01*
X100785714Y-139452380D02*
X101261904Y-139452380D01*
X101309523Y-139928571D01*
X101261904Y-139880952D01*
X101166666Y-139833333D01*
X100928571Y-139833333D01*
X100833333Y-139880952D01*
X100785714Y-139928571D01*
X100738095Y-140023809D01*
X100738095Y-140261904D01*
X100785714Y-140357142D01*
X100833333Y-140404761D01*
X100928571Y-140452380D01*
X101166666Y-140452380D01*
X101261904Y-140404761D01*
X101309523Y-140357142D01*
G04 #@! TO.C,C19*
X118142857Y-124857142D02*
X118190476Y-124904761D01*
X118333333Y-124952380D01*
X118428571Y-124952380D01*
X118571428Y-124904761D01*
X118666666Y-124809523D01*
X118714285Y-124714285D01*
X118761904Y-124523809D01*
X118761904Y-124380952D01*
X118714285Y-124190476D01*
X118666666Y-124095238D01*
X118571428Y-124000000D01*
X118428571Y-123952380D01*
X118333333Y-123952380D01*
X118190476Y-124000000D01*
X118142857Y-124047619D01*
X117190476Y-124952380D02*
X117761904Y-124952380D01*
X117476190Y-124952380D02*
X117476190Y-123952380D01*
X117571428Y-124095238D01*
X117666666Y-124190476D01*
X117761904Y-124238095D01*
X116714285Y-124952380D02*
X116523809Y-124952380D01*
X116428571Y-124904761D01*
X116380952Y-124857142D01*
X116285714Y-124714285D01*
X116238095Y-124523809D01*
X116238095Y-124142857D01*
X116285714Y-124047619D01*
X116333333Y-124000000D01*
X116428571Y-123952380D01*
X116619047Y-123952380D01*
X116714285Y-124000000D01*
X116761904Y-124047619D01*
X116809523Y-124142857D01*
X116809523Y-124380952D01*
X116761904Y-124476190D01*
X116714285Y-124523809D01*
X116619047Y-124571428D01*
X116428571Y-124571428D01*
X116333333Y-124523809D01*
X116285714Y-124476190D01*
X116238095Y-124380952D01*
G04 #@! TO.C,C18*
X117642857Y-129357142D02*
X117690476Y-129404761D01*
X117833333Y-129452380D01*
X117928571Y-129452380D01*
X118071428Y-129404761D01*
X118166666Y-129309523D01*
X118214285Y-129214285D01*
X118261904Y-129023809D01*
X118261904Y-128880952D01*
X118214285Y-128690476D01*
X118166666Y-128595238D01*
X118071428Y-128500000D01*
X117928571Y-128452380D01*
X117833333Y-128452380D01*
X117690476Y-128500000D01*
X117642857Y-128547619D01*
X116690476Y-129452380D02*
X117261904Y-129452380D01*
X116976190Y-129452380D02*
X116976190Y-128452380D01*
X117071428Y-128595238D01*
X117166666Y-128690476D01*
X117261904Y-128738095D01*
X116119047Y-128880952D02*
X116214285Y-128833333D01*
X116261904Y-128785714D01*
X116309523Y-128690476D01*
X116309523Y-128642857D01*
X116261904Y-128547619D01*
X116214285Y-128500000D01*
X116119047Y-128452380D01*
X115928571Y-128452380D01*
X115833333Y-128500000D01*
X115785714Y-128547619D01*
X115738095Y-128642857D01*
X115738095Y-128690476D01*
X115785714Y-128785714D01*
X115833333Y-128833333D01*
X115928571Y-128880952D01*
X116119047Y-128880952D01*
X116214285Y-128928571D01*
X116261904Y-128976190D01*
X116309523Y-129071428D01*
X116309523Y-129261904D01*
X116261904Y-129357142D01*
X116214285Y-129404761D01*
X116119047Y-129452380D01*
X115928571Y-129452380D01*
X115833333Y-129404761D01*
X115785714Y-129357142D01*
X115738095Y-129261904D01*
X115738095Y-129071428D01*
X115785714Y-128976190D01*
X115833333Y-128928571D01*
X115928571Y-128880952D01*
G04 #@! TO.C,C16*
X63627142Y-101857142D02*
X63674761Y-101809523D01*
X63722380Y-101666666D01*
X63722380Y-101571428D01*
X63674761Y-101428571D01*
X63579523Y-101333333D01*
X63484285Y-101285714D01*
X63293809Y-101238095D01*
X63150952Y-101238095D01*
X62960476Y-101285714D01*
X62865238Y-101333333D01*
X62770000Y-101428571D01*
X62722380Y-101571428D01*
X62722380Y-101666666D01*
X62770000Y-101809523D01*
X62817619Y-101857142D01*
X63722380Y-102809523D02*
X63722380Y-102238095D01*
X63722380Y-102523809D02*
X62722380Y-102523809D01*
X62865238Y-102428571D01*
X62960476Y-102333333D01*
X63008095Y-102238095D01*
X62722380Y-103666666D02*
X62722380Y-103476190D01*
X62770000Y-103380952D01*
X62817619Y-103333333D01*
X62960476Y-103238095D01*
X63150952Y-103190476D01*
X63531904Y-103190476D01*
X63627142Y-103238095D01*
X63674761Y-103285714D01*
X63722380Y-103380952D01*
X63722380Y-103571428D01*
X63674761Y-103666666D01*
X63627142Y-103714285D01*
X63531904Y-103761904D01*
X63293809Y-103761904D01*
X63198571Y-103714285D01*
X63150952Y-103666666D01*
X63103333Y-103571428D01*
X63103333Y-103380952D01*
X63150952Y-103285714D01*
X63198571Y-103238095D01*
X63293809Y-103190476D01*
G04 #@! TO.C,C15*
X63627142Y-104957142D02*
X63674761Y-104909523D01*
X63722380Y-104766666D01*
X63722380Y-104671428D01*
X63674761Y-104528571D01*
X63579523Y-104433333D01*
X63484285Y-104385714D01*
X63293809Y-104338095D01*
X63150952Y-104338095D01*
X62960476Y-104385714D01*
X62865238Y-104433333D01*
X62770000Y-104528571D01*
X62722380Y-104671428D01*
X62722380Y-104766666D01*
X62770000Y-104909523D01*
X62817619Y-104957142D01*
X63722380Y-105909523D02*
X63722380Y-105338095D01*
X63722380Y-105623809D02*
X62722380Y-105623809D01*
X62865238Y-105528571D01*
X62960476Y-105433333D01*
X63008095Y-105338095D01*
X62722380Y-106814285D02*
X62722380Y-106338095D01*
X63198571Y-106290476D01*
X63150952Y-106338095D01*
X63103333Y-106433333D01*
X63103333Y-106671428D01*
X63150952Y-106766666D01*
X63198571Y-106814285D01*
X63293809Y-106861904D01*
X63531904Y-106861904D01*
X63627142Y-106814285D01*
X63674761Y-106766666D01*
X63722380Y-106671428D01*
X63722380Y-106433333D01*
X63674761Y-106338095D01*
X63627142Y-106290476D01*
G04 #@! TO.C,C3*
X70666666Y-106857142D02*
X70714285Y-106904761D01*
X70857142Y-106952380D01*
X70952380Y-106952380D01*
X71095238Y-106904761D01*
X71190476Y-106809523D01*
X71238095Y-106714285D01*
X71285714Y-106523809D01*
X71285714Y-106380952D01*
X71238095Y-106190476D01*
X71190476Y-106095238D01*
X71095238Y-106000000D01*
X70952380Y-105952380D01*
X70857142Y-105952380D01*
X70714285Y-106000000D01*
X70666666Y-106047619D01*
X70333333Y-105952380D02*
X69714285Y-105952380D01*
X70047619Y-106333333D01*
X69904761Y-106333333D01*
X69809523Y-106380952D01*
X69761904Y-106428571D01*
X69714285Y-106523809D01*
X69714285Y-106761904D01*
X69761904Y-106857142D01*
X69809523Y-106904761D01*
X69904761Y-106952380D01*
X70190476Y-106952380D01*
X70285714Y-106904761D01*
X70333333Y-106857142D01*
G04 #@! TO.C,C1*
X70666666Y-101857142D02*
X70714285Y-101904761D01*
X70857142Y-101952380D01*
X70952380Y-101952380D01*
X71095238Y-101904761D01*
X71190476Y-101809523D01*
X71238095Y-101714285D01*
X71285714Y-101523809D01*
X71285714Y-101380952D01*
X71238095Y-101190476D01*
X71190476Y-101095238D01*
X71095238Y-101000000D01*
X70952380Y-100952380D01*
X70857142Y-100952380D01*
X70714285Y-101000000D01*
X70666666Y-101047619D01*
X69714285Y-101952380D02*
X70285714Y-101952380D01*
X70000000Y-101952380D02*
X70000000Y-100952380D01*
X70095238Y-101095238D01*
X70190476Y-101190476D01*
X70285714Y-101238095D01*
G04 #@! TO.C,C14*
X89142857Y-101857142D02*
X89190476Y-101904761D01*
X89333333Y-101952380D01*
X89428571Y-101952380D01*
X89571428Y-101904761D01*
X89666666Y-101809523D01*
X89714285Y-101714285D01*
X89761904Y-101523809D01*
X89761904Y-101380952D01*
X89714285Y-101190476D01*
X89666666Y-101095238D01*
X89571428Y-101000000D01*
X89428571Y-100952380D01*
X89333333Y-100952380D01*
X89190476Y-101000000D01*
X89142857Y-101047619D01*
X88190476Y-101952380D02*
X88761904Y-101952380D01*
X88476190Y-101952380D02*
X88476190Y-100952380D01*
X88571428Y-101095238D01*
X88666666Y-101190476D01*
X88761904Y-101238095D01*
X87333333Y-101285714D02*
X87333333Y-101952380D01*
X87571428Y-100904761D02*
X87809523Y-101619047D01*
X87190476Y-101619047D01*
G04 #@! TO.C,C11*
X78427142Y-103657142D02*
X78474761Y-103609523D01*
X78522380Y-103466666D01*
X78522380Y-103371428D01*
X78474761Y-103228571D01*
X78379523Y-103133333D01*
X78284285Y-103085714D01*
X78093809Y-103038095D01*
X77950952Y-103038095D01*
X77760476Y-103085714D01*
X77665238Y-103133333D01*
X77570000Y-103228571D01*
X77522380Y-103371428D01*
X77522380Y-103466666D01*
X77570000Y-103609523D01*
X77617619Y-103657142D01*
X78522380Y-104609523D02*
X78522380Y-104038095D01*
X78522380Y-104323809D02*
X77522380Y-104323809D01*
X77665238Y-104228571D01*
X77760476Y-104133333D01*
X77808095Y-104038095D01*
X78522380Y-105561904D02*
X78522380Y-104990476D01*
X78522380Y-105276190D02*
X77522380Y-105276190D01*
X77665238Y-105180952D01*
X77760476Y-105085714D01*
X77808095Y-104990476D01*
G04 #@! TO.C,C10*
X78427142Y-100457142D02*
X78474761Y-100409523D01*
X78522380Y-100266666D01*
X78522380Y-100171428D01*
X78474761Y-100028571D01*
X78379523Y-99933333D01*
X78284285Y-99885714D01*
X78093809Y-99838095D01*
X77950952Y-99838095D01*
X77760476Y-99885714D01*
X77665238Y-99933333D01*
X77570000Y-100028571D01*
X77522380Y-100171428D01*
X77522380Y-100266666D01*
X77570000Y-100409523D01*
X77617619Y-100457142D01*
X78522380Y-101409523D02*
X78522380Y-100838095D01*
X78522380Y-101123809D02*
X77522380Y-101123809D01*
X77665238Y-101028571D01*
X77760476Y-100933333D01*
X77808095Y-100838095D01*
X77522380Y-102028571D02*
X77522380Y-102123809D01*
X77570000Y-102219047D01*
X77617619Y-102266666D01*
X77712857Y-102314285D01*
X77903333Y-102361904D01*
X78141428Y-102361904D01*
X78331904Y-102314285D01*
X78427142Y-102266666D01*
X78474761Y-102219047D01*
X78522380Y-102123809D01*
X78522380Y-102028571D01*
X78474761Y-101933333D01*
X78427142Y-101885714D01*
X78331904Y-101838095D01*
X78141428Y-101790476D01*
X77903333Y-101790476D01*
X77712857Y-101838095D01*
X77617619Y-101885714D01*
X77570000Y-101933333D01*
X77522380Y-102028571D01*
G04 #@! TD*
M02*
