G04 #@! TF.GenerationSoftware,KiCad,Pcbnew,6.0.0-rc1-unknown-589e1f6~66~ubuntu18.04.1*
G04 #@! TF.CreationDate,2018-11-04T22:43:28+01:00*
G04 #@! TF.ProjectId,Ntester,4e746573-7465-4722-9e6b-696361645f70,rev?*
G04 #@! TF.SameCoordinates,Original*
G04 #@! TF.FileFunction,Copper,L3,Inr*
G04 #@! TF.FilePolarity,Positive*
%FSLAX46Y46*%
G04 Gerber Fmt 4.6, Leading zero omitted, Abs format (unit mm)*
G04 Created by KiCad (PCBNEW 6.0.0-rc1-unknown-589e1f6~66~ubuntu18.04.1) date nie, 4 lis 2018, 22:43:28*
%MOMM*%
%LPD*%
G01*
G04 APERTURE LIST*
G04 #@! TA.AperFunction,ViaPad*
%ADD10C,3.810000*%
G04 #@! TD*
G04 #@! TA.AperFunction,ViaPad*
%ADD11C,3.556000*%
G04 #@! TD*
G04 #@! TA.AperFunction,ViaPad*
%ADD12O,1.700000X1.700000*%
G04 #@! TD*
G04 #@! TA.AperFunction,ViaPad*
%ADD13R,1.700000X1.700000*%
G04 #@! TD*
G04 #@! TA.AperFunction,ViaPad*
%ADD14C,1.000000*%
G04 #@! TD*
G04 #@! TA.AperFunction,ViaPad*
%ADD15C,1.400000*%
G04 #@! TD*
G04 #@! TA.AperFunction,ViaPad*
%ADD16R,1.400000X1.400000*%
G04 #@! TD*
G04 #@! TA.AperFunction,ViaPad*
%ADD17C,0.800000*%
G04 #@! TD*
G04 #@! TA.AperFunction,ViaPad*
%ADD18C,7.000000*%
G04 #@! TD*
G04 #@! TA.AperFunction,ViaPad*
%ADD19C,1.700000*%
G04 #@! TD*
G04 #@! TA.AperFunction,Conductor*
%ADD20C,0.600000*%
G04 #@! TD*
G04 #@! TA.AperFunction,Conductor*
%ADD21C,1.000000*%
G04 #@! TD*
G04 APERTURE END LIST*
D10*
G04 #@! TO.N,GND*
G04 #@! TO.C,J6*
X102575000Y-164375000D03*
X96225000Y-164375000D03*
X102575000Y-158025000D03*
D11*
G04 #@! TO.N,/GainBlock/1MHZ_OUT*
X99400000Y-161200000D03*
D10*
G04 #@! TO.N,GND*
X96225000Y-158025000D03*
G04 #@! TD*
D12*
G04 #@! TO.N,Net-(F2-Pad2)*
G04 #@! TO.C,J8*
X64220000Y-165000000D03*
G04 #@! TO.N,GND*
X61680000Y-165000000D03*
X59140000Y-165000000D03*
D13*
G04 #@! TO.N,Net-(F1-Pad2)*
X56600000Y-165000000D03*
G04 #@! TD*
D14*
G04 #@! TO.N,Net-(C79-Pad1)*
G04 #@! TO.C,TP18*
X82500000Y-141600000D03*
G04 #@! TD*
G04 #@! TO.N,Net-(Q4-Pad5)*
G04 #@! TO.C,TP17*
X75600000Y-141600000D03*
G04 #@! TD*
G04 #@! TO.N,Net-(Q3-Pad5)*
G04 #@! TO.C,TP13*
X75600000Y-130100000D03*
G04 #@! TD*
G04 #@! TO.N,Net-(C68-Pad1)*
G04 #@! TO.C,TP15*
X82500000Y-130100000D03*
G04 #@! TD*
G04 #@! TO.N,/InputAmplifier/IN_AMP*
G04 #@! TO.C,TP1*
X59000000Y-100400000D03*
G04 #@! TD*
G04 #@! TO.N,Net-(C57-Pad1)*
G04 #@! TO.C,TP16*
X82500000Y-118600000D03*
G04 #@! TD*
G04 #@! TO.N,Net-(Q2-Pad5)*
G04 #@! TO.C,TP14*
X75600000Y-118600000D03*
G04 #@! TD*
D15*
G04 #@! TO.N,-5V*
G04 #@! TO.C,SW1*
X62500000Y-155800000D03*
G04 #@! TO.N,Net-(C44-Pad1)*
X62500000Y-158300000D03*
X62500000Y-160800000D03*
G04 #@! TO.N,+5V*
X59200000Y-155800000D03*
G04 #@! TO.N,Net-(C43-Pad1)*
X59200000Y-158300000D03*
D16*
X59200000Y-160800000D03*
G04 #@! TD*
D14*
G04 #@! TO.N,+5V*
G04 #@! TO.C,TP12*
X58000000Y-149600000D03*
G04 #@! TD*
G04 #@! TO.N,-5V*
G04 #@! TO.C,TP11*
X62500000Y-151600000D03*
G04 #@! TD*
G04 #@! TO.N,GND*
G04 #@! TO.C,TP2*
X53000000Y-158000000D03*
G04 #@! TD*
G04 #@! TO.N,Net-(C32-Pad1)*
G04 #@! TO.C,TP10*
X111000000Y-143400000D03*
G04 #@! TD*
G04 #@! TO.N,Net-(R11-Pad2)*
G04 #@! TO.C,TP9*
X113800000Y-133900000D03*
G04 #@! TD*
G04 #@! TO.N,Net-(C17-Pad1)*
G04 #@! TO.C,TP8*
X102300000Y-123100000D03*
G04 #@! TD*
G04 #@! TO.N,Net-(C44-Pad1)*
G04 #@! TO.C,TP7*
X65400000Y-158300000D03*
G04 #@! TD*
G04 #@! TO.N,Net-(C43-Pad1)*
G04 #@! TO.C,TP6*
X56800000Y-158300000D03*
G04 #@! TD*
D17*
G04 #@! TO.N,Net-(H4-Pad1)*
G04 #@! TO.C,H4*
X32056155Y-161943845D03*
X30200000Y-161175000D03*
X28343845Y-161943845D03*
X27575000Y-163800000D03*
X28343845Y-165656155D03*
X30200000Y-166425000D03*
X32056155Y-165656155D03*
X32825000Y-163800000D03*
D18*
X30200000Y-163800000D03*
G04 #@! TD*
D17*
G04 #@! TO.N,Net-(H3-Pad1)*
G04 #@! TO.C,H3*
X32056155Y-94343845D03*
X30200000Y-93575000D03*
X28343845Y-94343845D03*
X27575000Y-96200000D03*
X28343845Y-98056155D03*
X30200000Y-98825000D03*
X32056155Y-98056155D03*
X32825000Y-96200000D03*
D18*
X30200000Y-96200000D03*
G04 #@! TD*
D17*
G04 #@! TO.N,Net-(H2-Pad1)*
G04 #@! TO.C,H2*
X123656155Y-161943845D03*
X121800000Y-161175000D03*
X119943845Y-161943845D03*
X119175000Y-163800000D03*
X119943845Y-165656155D03*
X121800000Y-166425000D03*
X123656155Y-165656155D03*
X124425000Y-163800000D03*
D18*
X121800000Y-163800000D03*
G04 #@! TD*
D17*
G04 #@! TO.N,Net-(H1-Pad1)*
G04 #@! TO.C,H1*
X123656155Y-94343845D03*
X121800000Y-93575000D03*
X119943845Y-94343845D03*
X119175000Y-96200000D03*
X119943845Y-98056155D03*
X121800000Y-98825000D03*
X123656155Y-98056155D03*
X124425000Y-96200000D03*
D18*
X121800000Y-96200000D03*
G04 #@! TD*
D14*
G04 #@! TO.N,GND*
G04 #@! TO.C,TP4*
X52200000Y-100400000D03*
G04 #@! TD*
G04 #@! TO.N,Net-(Q1-Pad5)*
G04 #@! TO.C,TP3*
X75600000Y-107100000D03*
G04 #@! TD*
G04 #@! TO.N,Net-(C12-Pad2)*
G04 #@! TO.C,TP5*
X82500000Y-107100000D03*
G04 #@! TD*
D10*
G04 #@! TO.N,GND*
G04 #@! TO.C,J3*
X29825000Y-110175000D03*
D11*
G04 #@! TO.N,/InputStage/IN_STG*
X33000000Y-107000000D03*
D10*
G04 #@! TO.N,GND*
X29825000Y-103825000D03*
X36175000Y-110175000D03*
X36175000Y-103825000D03*
G04 #@! TD*
G04 #@! TO.N,GND*
G04 #@! TO.C,J2*
X29825000Y-124175000D03*
D11*
G04 #@! TO.N,/InputStage/IN_STG*
X33000000Y-121000000D03*
D10*
G04 #@! TO.N,GND*
X29825000Y-117825000D03*
X36175000Y-124175000D03*
X36175000Y-117825000D03*
G04 #@! TD*
G04 #@! TO.N,GND*
G04 #@! TO.C,J5*
X77325000Y-164175000D03*
X77325000Y-157825000D03*
X83675000Y-164175000D03*
D11*
G04 #@! TO.N,/GainBlock/WB_OUT*
X80500000Y-161000000D03*
D10*
G04 #@! TO.N,GND*
X83675000Y-157825000D03*
G04 #@! TD*
D12*
G04 #@! TO.N,Net-(J4-Pad8)*
G04 #@! TO.C,J4*
X37100000Y-137460000D03*
G04 #@! TO.N,Net-(C2-Pad1)*
X39640000Y-137460000D03*
G04 #@! TO.N,Net-(J4-Pad6)*
X37100000Y-140000000D03*
G04 #@! TO.N,Net-(C2-Pad1)*
X39640000Y-140000000D03*
G04 #@! TO.N,Net-(J4-Pad4)*
X37100000Y-142540000D03*
G04 #@! TO.N,Net-(C2-Pad1)*
X39640000Y-142540000D03*
G04 #@! TO.N,Net-(J4-Pad2)*
X37100000Y-145080000D03*
D13*
G04 #@! TO.N,Net-(C2-Pad1)*
X39640000Y-145080000D03*
G04 #@! TD*
D12*
G04 #@! TO.N,GND*
G04 #@! TO.C,J1*
X30460000Y-131400000D03*
D13*
G04 #@! TO.N,/InputStage/IN_STG*
X33000000Y-131400000D03*
G04 #@! TD*
D19*
G04 #@! TO.N,GND*
G04 #@! TO.C,J7*
X49940000Y-95950000D03*
X49940000Y-146450000D03*
X47550000Y-98340000D03*
X98050000Y-98340000D03*
X95660000Y-95950000D03*
X95660000Y-146450000D03*
X47550000Y-144060000D03*
X98050000Y-144060000D03*
X55020000Y-95950000D03*
X55020000Y-146450000D03*
X47550000Y-103420000D03*
X98050000Y-103420000D03*
X90580000Y-95950000D03*
X90580000Y-146450000D03*
X47550000Y-138980000D03*
X98050000Y-138980000D03*
X60100000Y-95950000D03*
X60100000Y-146450000D03*
X47550000Y-108500000D03*
X98050000Y-108500000D03*
X85500000Y-95950000D03*
X85500000Y-146450000D03*
X47550000Y-133900000D03*
X98050000Y-133900000D03*
X65180000Y-95950000D03*
X65180000Y-146450000D03*
X47550000Y-113580000D03*
X98050000Y-113580000D03*
X80420000Y-95950000D03*
X80420000Y-146450000D03*
X47550000Y-128820000D03*
X98050000Y-128820000D03*
X70260000Y-95950000D03*
X70260000Y-146450000D03*
X47550000Y-118660000D03*
X98050000Y-118660000D03*
X75340000Y-95950000D03*
X75340000Y-146450000D03*
X47550000Y-123740000D03*
X98050000Y-123740000D03*
G04 #@! TD*
D17*
G04 #@! TO.N,GND*
X63000000Y-101600000D03*
X73700000Y-103900000D03*
X78300000Y-103500000D03*
X78300000Y-101900000D03*
X74900000Y-105100000D03*
X74000000Y-99700010D03*
X72100000Y-99700010D03*
X70100000Y-99700010D03*
X110000000Y-131000000D03*
X109400021Y-136400021D03*
X109100000Y-139600000D03*
X109100000Y-140700000D03*
X104400000Y-151900000D03*
X103200000Y-146600000D03*
X114800000Y-143700000D03*
X114800000Y-143700000D03*
X114800000Y-143700000D03*
X116300000Y-145100000D03*
X103300000Y-142600000D03*
X115000000Y-150400000D03*
X115000000Y-152000000D03*
X115000000Y-153400000D03*
X103200000Y-145600000D03*
X109500000Y-149400000D03*
X109500000Y-151000000D03*
X110500000Y-151000000D03*
X110500000Y-152000000D03*
X109500000Y-154000000D03*
X109500000Y-152600000D03*
X109500000Y-148000000D03*
X45000000Y-148000000D03*
X30000000Y-143000000D03*
X30000000Y-142000000D03*
X31000000Y-142000000D03*
X31000000Y-143000000D03*
X31000000Y-141000000D03*
X30000000Y-141000000D03*
X32000000Y-141000000D03*
X32000000Y-142000000D03*
X32000000Y-143000000D03*
X32000000Y-138000000D03*
X30000000Y-140000000D03*
X32000000Y-139000000D03*
X31000000Y-140000000D03*
X30000000Y-139000000D03*
X31000000Y-138000000D03*
X32000000Y-140000000D03*
X31000000Y-139000000D03*
X30000000Y-138000000D03*
X32000000Y-137000000D03*
X31000000Y-136000000D03*
X30000000Y-136000000D03*
X32000000Y-136000000D03*
X31000000Y-137000000D03*
X30000000Y-137000000D03*
X109600000Y-124500000D03*
X110100000Y-121800000D03*
X107457114Y-132242886D03*
X104400000Y-132200000D03*
X103200000Y-132000000D03*
X104014966Y-136799990D03*
X38800000Y-96200000D03*
X37100000Y-94200000D03*
X37100000Y-98100000D03*
X114900000Y-94200000D03*
X114900000Y-98300000D03*
X112900000Y-96200000D03*
X28600000Y-155300000D03*
X30700000Y-157175000D03*
X104441445Y-150834116D03*
X123600000Y-154600000D03*
X73700000Y-115400000D03*
X78300000Y-115000000D03*
X78300000Y-113400000D03*
X74900000Y-116600000D03*
X74000000Y-111200010D03*
X72100000Y-111200010D03*
X70100000Y-111200010D03*
X73700000Y-126900000D03*
X78300000Y-126500000D03*
X78300000Y-124900000D03*
X74900000Y-128100000D03*
X74000000Y-122700010D03*
X72100000Y-122700010D03*
X70100000Y-122700010D03*
X70100000Y-134200010D03*
X73700000Y-138400000D03*
X78300000Y-138000000D03*
X78300000Y-136400000D03*
X74900000Y-139600000D03*
X63000000Y-137500000D03*
X63000000Y-139500000D03*
X63000000Y-141000000D03*
X63000000Y-136000000D03*
X63000000Y-129500000D03*
X63000000Y-126000000D03*
X63000000Y-128000000D03*
X63000000Y-124500000D03*
X71000000Y-143200000D03*
X72400000Y-143200000D03*
X73600000Y-143200000D03*
X74800000Y-143200000D03*
X63200000Y-118100000D03*
X63200000Y-116600000D03*
X63200000Y-114600000D03*
X63200000Y-113100000D03*
X63000000Y-103000000D03*
X63000000Y-105200000D03*
X63000000Y-106700000D03*
X109600000Y-125600000D03*
X109600000Y-126800000D03*
X111000000Y-125600000D03*
X111000000Y-126800000D03*
X118600000Y-127600000D03*
X120600000Y-127600000D03*
X117000000Y-130800000D03*
X118800000Y-130800000D03*
X120600000Y-130800000D03*
X109200000Y-143000000D03*
X108800000Y-141800000D03*
G04 #@! TO.N,+5V*
X80700000Y-100300000D03*
X64699996Y-99700000D03*
X106500000Y-140700000D03*
X100300000Y-139799996D03*
X100500000Y-144000000D03*
X114799988Y-147900000D03*
X66400000Y-148200000D03*
X45000000Y-134500000D03*
X113500000Y-120600000D03*
X111100000Y-124500000D03*
X80700000Y-111800000D03*
X64699996Y-111200000D03*
X80700000Y-123300000D03*
X64699996Y-122700000D03*
X64699996Y-134200000D03*
X80700000Y-134800000D03*
X57400000Y-112800000D03*
X57200000Y-124400000D03*
X57200000Y-135400000D03*
G04 #@! TO.N,-5V*
X78400000Y-105100000D03*
X64700000Y-108000000D03*
X108000000Y-153600000D03*
X56300000Y-151600000D03*
X109600000Y-129200000D03*
D14*
X104900000Y-129900000D03*
D17*
X103900000Y-131000000D03*
X111000000Y-132100000D03*
X43000000Y-148000000D03*
X78400000Y-116600000D03*
X64700000Y-119500000D03*
X78400000Y-128100000D03*
X64700000Y-131000000D03*
X64700000Y-142500000D03*
X78400000Y-139600000D03*
G04 #@! TO.N,Net-(C12-Pad1)*
X91600000Y-104000000D03*
G04 #@! TO.N,Net-(C12-Pad2)*
X85400000Y-104000000D03*
G04 #@! TO.N,Net-(C24-Pad1)*
X117600000Y-110800000D03*
X117600000Y-109800000D03*
X117600000Y-112000000D03*
G04 #@! TO.N,Net-(C29-Pad1)*
X115400000Y-127700000D03*
X116400000Y-127700000D03*
G04 #@! TO.N,/GainBlock/WB_OUT*
X87925001Y-162760000D03*
X87925001Y-158530000D03*
G04 #@! TO.N,/GainBlock/1MHZ_OUT*
X108790000Y-158820000D03*
X113000000Y-158820000D03*
X117130000Y-158820000D03*
G04 #@! TO.N,Net-(C33-Pad1)*
X90725001Y-162820000D03*
X90725001Y-158560000D03*
X90725001Y-154330000D03*
G04 #@! TO.N,Net-(C35-Pad2)*
X112990000Y-156020000D03*
X108830000Y-156020000D03*
X117130000Y-156020000D03*
G04 #@! TO.N,Net-(C57-Pad1)*
X85400000Y-115500000D03*
G04 #@! TO.N,Net-(C60-Pad1)*
X91600000Y-115500000D03*
G04 #@! TO.N,Net-(C68-Pad1)*
X85400000Y-127000000D03*
G04 #@! TO.N,Net-(C71-Pad1)*
X91600000Y-127000000D03*
G04 #@! TO.N,Net-(C79-Pad1)*
X85400000Y-138500000D03*
G04 #@! TO.N,Net-(C82-Pad1)*
X91600000Y-138500000D03*
G04 #@! TD*
D20*
G04 #@! TO.N,+5V*
X100500000Y-144000000D02*
X99999989Y-144000000D01*
X100300000Y-139799996D02*
X100300000Y-139899989D01*
D21*
X99999989Y-144000000D02*
X99999989Y-140200000D01*
D20*
X100300000Y-139899989D02*
X99999989Y-140200000D01*
D21*
X58000000Y-154600000D02*
X58000000Y-149600000D01*
X59200000Y-155800000D02*
X58000000Y-154600000D01*
X66965685Y-148200000D02*
X66400000Y-148200000D01*
X99999989Y-144000000D02*
X99999989Y-146700011D01*
X99999989Y-146700011D02*
X98500000Y-148200000D01*
X98500000Y-148200000D02*
X66965685Y-148200000D01*
D20*
X45000000Y-145800000D02*
X45000000Y-134500000D01*
X58000000Y-149600000D02*
X48800000Y-149600000D01*
X48800000Y-149600000D02*
X45000000Y-145800000D01*
D21*
X62900000Y-99700000D02*
X64699996Y-99700000D01*
X58000000Y-104600000D02*
X62900000Y-99700000D01*
X57400000Y-112800000D02*
X58000000Y-112800000D01*
X58000000Y-120900000D02*
X58000000Y-112800000D01*
X58000000Y-112800000D02*
X58000000Y-104600000D01*
X57200000Y-124400000D02*
X58000000Y-124400000D01*
X58000000Y-124400000D02*
X58000000Y-121000000D01*
X58000000Y-149600000D02*
X58000000Y-135400000D01*
X57200000Y-135400000D02*
X58000000Y-135400000D01*
X58000000Y-135400000D02*
X58000000Y-124400000D01*
X112300000Y-119400000D02*
X113500000Y-120600000D01*
X109400000Y-119400000D02*
X112300000Y-119400000D01*
X99999989Y-140200000D02*
X99999989Y-128800011D01*
X99999989Y-128800011D02*
X109400000Y-119400000D01*
G04 #@! TO.N,-5V*
X99750000Y-149250000D02*
X100500000Y-148500000D01*
X108000000Y-153600000D02*
X104100000Y-153600000D01*
X104100000Y-153600000D02*
X99750000Y-149250000D01*
X62500000Y-151000000D02*
X62500000Y-155800000D01*
X63600000Y-151600000D02*
X62500000Y-151600000D01*
X64900000Y-150300000D02*
X63600000Y-151600000D01*
X100500000Y-148500000D02*
X98700000Y-150300000D01*
X98700000Y-150300000D02*
X64900000Y-150300000D01*
D20*
X56300000Y-151600000D02*
X47700000Y-151600000D01*
D21*
X109100000Y-128700000D02*
X109600000Y-129200000D01*
X104000000Y-128700000D02*
X109100000Y-128700000D01*
X100500000Y-148500000D02*
X101800000Y-147200000D01*
X101800000Y-147200000D02*
X101800000Y-130900000D01*
X102900000Y-130000000D02*
X103900000Y-131000000D01*
X102700000Y-130000000D02*
X102900000Y-130000000D01*
X101800000Y-130900000D02*
X102700000Y-130000000D01*
X102700000Y-130000000D02*
X104000000Y-128700000D01*
D20*
X47700000Y-151600000D02*
X46600000Y-151600000D01*
X46600000Y-151600000D02*
X43000000Y-148000000D01*
D21*
X61500000Y-143900000D02*
X62500000Y-144900000D01*
X62500000Y-144900000D02*
X62500000Y-150900000D01*
X64700000Y-108000000D02*
X61500000Y-111200000D01*
X64700000Y-142500000D02*
X61600000Y-142500000D01*
X61600000Y-142500000D02*
X61500000Y-142400000D01*
X61500000Y-142400000D02*
X61500000Y-143900000D01*
X64700000Y-131000000D02*
X61500000Y-131000000D01*
X61500000Y-131000000D02*
X61500000Y-142400000D01*
X61600000Y-119500000D02*
X61500000Y-119600000D01*
X64700000Y-119500000D02*
X61600000Y-119500000D01*
X61500000Y-111200000D02*
X61500000Y-119600000D01*
X61500000Y-119600000D02*
X61500000Y-131000000D01*
G04 #@! TD*
M02*
